Mirza-SemiBold - Without Production Names.ufo
<glyph name="number-ar" format="1">
  <advance width="483"/>
  <unicode hex="0600"/>
  <outline>
    <contour>
      <point x="653" y="-59" type="line"/>
      <point x="604" y="-39"/>
      <point x="578" y="-5"/>
      <point x="571" y="25" type="curve"/>
      <point x="590" y="38"/>
      <point x="625" y="53"/>
      <point x="671" y="53" type="curve" smooth="yes"/>
      <point x="709" y="53"/>
      <point x="735" y="45"/>
      <point x="761" y="32" type="curve"/>
      <point x="795" y="64" type="line"/>
      <point x="765" y="105"/>
      <point x="721" y="146"/>
      <point x="660" y="146" type="curve" smooth="yes"/>
      <point x="626" y="146"/>
      <point x="584" y="125"/>
      <point x="552" y="95" type="curve" smooth="yes"/>
      <point x="517" y="63"/>
      <point x="495" y="24"/>
      <point x="495" y="-13" type="curve" smooth="yes"/>
      <point x="495" y="-30"/>
      <point x="503" y="-45"/>
      <point x="521" y="-58" type="curve"/>
      <point x="-30" y="-58" type="line"/>
      <point x="-74" y="-58"/>
      <point x="-157" y="-50"/>
      <point x="-194" y="-45" type="curve"/>
      <point x="-168" y="-101"/>
      <point x="-129" y="-151"/>
      <point x="-82" y="-186" type="curve"/>
      <point x="-62" y="-185"/>
      <point x="-43" y="-183"/>
      <point x="-22" y="-183" type="curve"/>
      <point x="775" y="-183" type="line"/>
      <point x="796" y="-144"/>
      <point x="812" y="-103"/>
      <point x="822" y="-59" type="curve"/>
    </contour>
  </outline>
</glyph>
<glyph name="pagenumber-ar" format="1">
  <advance width="600"/>
  <unicode hex="0603"/>
  <outline>
    <contour>
      <point x="-94" y="-101"/>
      <point x="-55" y="-151"/>
      <point x="-8" y="-186" type="curve"/>
      <point x="21" y="-184"/>
      <point x="378" y="-184"/>
      <point x="599" y="-183" type="curve" smooth="yes"/>
      <point x="646" y="-183"/>
      <point x="678" y="-165"/>
      <point x="692" y="-131" type="curve"/>
      <point x="698" y="-142"/>
      <point x="707" y="-152"/>
      <point x="723" y="-157" type="curve"/>
      <point x="713" y="-200" type="line"/>
      <point x="762" y="-200" type="line"/>
      <point x="769" y="-175" type="line"/>
      <point x="791" y="-180"/>
      <point x="816" y="-179"/>
      <point x="850" y="-179" type="curve" smooth="yes"/>
      <point x="914" y="-179"/>
      <point x="989" y="-152"/>
      <point x="1046" y="-109" type="curve" smooth="yes"/>
      <point x="1075" y="-86"/>
      <point x="1100" y="-59"/>
      <point x="1116" y="-32" type="curve" smooth="yes"/>
      <point x="1135" y="-2"/>
      <point x="1144" y="30"/>
      <point x="1144" y="59" type="curve" smooth="yes"/>
      <point x="1144" y="84"/>
      <point x="1132" y="112"/>
      <point x="1102" y="135" type="curve" smooth="yes"/>
      <point x="1079" y="153"/>
      <point x="1050" y="165"/>
      <point x="1025" y="165" type="curve" smooth="yes"/>
      <point x="962" y="165"/>
      <point x="892" y="109"/>
      <point x="845" y="57" type="curve" smooth="yes"/>
      <point x="799" y="7"/>
      <point x="766" y="-43"/>
      <point x="757" y="-58" type="curve"/>
      <point x="743" y="-57"/>
      <point x="732" y="-51"/>
      <point x="724" y="-43" type="curve"/>
      <point x="708" y="-24"/>
      <point x="709" y="5"/>
      <point x="716" y="46" type="curve"/>
      <point x="675" y="29" type="line"/>
      <point x="671" y="5"/>
      <point x="664" y="-16"/>
      <point x="654" y="-30" type="curve"/>
      <point x="641" y="-47"/>
      <point x="626" y="-58"/>
      <point x="600" y="-58" type="curve" smooth="yes"/>
      <point x="166" y="-56"/>
      <point x="-59" y="-54"/>
      <point x="-119" y="-45" type="curve"/>
    </contour>
    <contour>
      <point x="831" y="-39"/>
      <point x="850" y="-14"/>
      <point x="870" y="6" type="curve" smooth="yes"/>
      <point x="903" y="40"/>
      <point x="936" y="65"/>
      <point x="980" y="65" type="curve" smooth="yes"/>
      <point x="1010" y="65"/>
      <point x="1029" y="51"/>
      <point x="1042" y="39" type="curve"/>
      <point x="1054" y="26"/>
      <point x="1060" y="11"/>
      <point x="1064" y="-1" type="curve"/>
      <point x="1052" y="-14"/>
      <point x="1038" y="-27"/>
      <point x="1011" y="-39" type="curve" smooth="yes"/>
      <point x="983" y="-51"/>
      <point x="951" y="-58"/>
      <point x="915" y="-58" type="curve" smooth="yes"/>
      <point x="817" y="-58" type="line"/>
    </contour>
  </outline>
</glyph>
<glyph name="afghani-ar" format="1">
  <advance width="343"/>
  <unicode hex="060B"/>
  <outline>
    <contour>
      <point x="277" y="372"/>
      <point x="237" y="455"/>
      <point x="168" y="455" type="curve" smooth="yes"/>
      <point x="129" y="455"/>
      <point x="102" y="428"/>
      <point x="85" y="400" type="curve" smooth="yes"/>
      <point x="65" y="365"/>
      <point x="54" y="322"/>
      <point x="54" y="288" type="curve" smooth="yes"/>
      <point x="54" y="251"/>
      <point x="66" y="228"/>
      <point x="84" y="213" type="curve"/>
      <point x="101" y="197"/>
      <point x="126" y="188"/>
      <point x="160" y="188" type="curve" smooth="yes"/>
      <point x="181" y="188"/>
      <point x="208" y="191"/>
      <point x="224" y="202" type="curve"/>
      <point x="220" y="181"/>
      <point x="207" y="159"/>
      <point x="186" y="147" type="curve" smooth="yes"/>
      <point x="168" y="134"/>
      <point x="140" y="125"/>
      <point x="99" y="125" type="curve" smooth="yes"/>
      <point x="-76" y="125" type="line"/>
      <point x="-76" y="0" type="line"/>
      <point x="59" y="0" type="line" smooth="yes"/>
      <point x="118" y="0"/>
      <point x="169" y="9"/>
      <point x="207" y="41" type="curve" smooth="yes"/>
      <point x="234" y="63"/>
      <point x="258" y="98"/>
      <point x="272" y="151" type="curve" smooth="yes"/>
      <point x="284" y="193"/>
      <point x="289" y="243"/>
      <point x="285" y="288" type="curve" smooth="yes"/>
    </contour>
    <contour>
      <point x="203" y="290"/>
      <point x="188" y="281"/>
      <point x="159" y="281" type="curve" smooth="yes"/>
      <point x="110" y="281"/>
      <point x="103" y="306"/>
      <point x="103" y="320" type="curve" smooth="yes"/>
      <point x="103" y="342"/>
      <point x="119" y="369"/>
      <point x="152" y="369" type="curve" smooth="yes"/>
      <point x="194" y="369"/>
      <point x="209" y="320"/>
      <point x="213" y="299" type="curve"/>
    </contour>
    <component base="alefbelow-ar" xOffset="125" yOffset="233" xScale="1.25" yScale="1.25"/>
    <component base="dotabove-ar" xOffset="167" yOffset="-166"/>
  </outline>
</glyph>
<glyph name="verseComma-ar" format="1">
  <advance width="802"/>
  <unicode hex="060E"/>
  <outline>
    <contour>
      <point x="758" y="112"/>
      <point x="735" y="136"/>
      <point x="704" y="136" type="curve" smooth="yes"/>
      <point x="691" y="136"/>
      <point x="680" y="131"/>
      <point x="672" y="125" type="curve"/>
      <point x="642" y="162"/>
      <point x="619" y="195"/>
      <point x="612" y="209" type="curve"/>
      <point x="625" y="212"/>
      <point x="636" y="220"/>
      <point x="643" y="232" type="curve"/>
      <point x="650" y="244"/>
      <point x="650" y="261"/>
      <point x="642" y="277" type="curve" smooth="yes"/>
      <point x="626" y="302"/>
      <point x="629" y="318"/>
      <point x="646" y="337" type="curve"/>
      <point x="618" y="344"/>
      <point x="595" y="343"/>
      <point x="581" y="329" type="curve"/>
      <point x="566" y="315"/>
      <point x="560" y="293"/>
      <point x="566" y="268" type="curve"/>
      <point x="535" y="285"/>
      <point x="502" y="290"/>
      <point x="450" y="280" type="curve" smooth="yes"/>
      <point x="383" y="269"/>
      <point x="367" y="285"/>
      <point x="369" y="310" type="curve"/>
      <point x="349" y="302"/>
      <point x="331" y="288"/>
      <point x="329" y="268" type="curve" smooth="yes"/>
      <point x="329" y="254"/>
      <point x="332" y="240"/>
      <point x="347" y="229" type="curve"/>
      <point x="320" y="204"/>
      <point x="274" y="135"/>
      <point x="255" y="110" type="curve"/>
      <point x="226" y="72"/>
      <point x="186" y="40"/>
      <point x="153" y="39" type="curve"/>
      <point x="139" y="38"/>
      <point x="127" y="42"/>
      <point x="117" y="47" type="curve"/>
      <point x="135" y="54"/>
      <point x="155" y="71"/>
      <point x="155" y="96" type="curve" smooth="yes"/>
      <point x="155" y="127"/>
      <point x="131" y="152"/>
      <point x="102" y="152" type="curve" smooth="yes"/>
      <point x="67" y="152"/>
      <point x="45" y="121"/>
      <point x="43" y="87" type="curve"/>
      <point x="43" y="33"/>
      <point x="84" y="-3"/>
      <point x="146" y="-3" type="curve" smooth="yes"/>
      <point x="218" y="-3"/>
      <point x="261" y="45"/>
      <point x="312" y="101" type="curve" smooth="yes"/>
      <point x="361" y="156"/>
      <point x="411" y="218"/>
      <point x="479" y="218" type="curve" smooth="yes"/>
      <point x="534" y="222"/>
      <point x="571" y="185"/>
      <point x="609" y="140" type="curve"/>
      <point x="603" y="132"/>
      <point x="589" y="115"/>
      <point x="577" y="101" type="curve"/>
      <point x="565" y="115"/>
      <point x="549" y="131"/>
      <point x="525" y="143" type="curve"/>
      <point x="517" y="173"/>
      <point x="499" y="187"/>
      <point x="463" y="188" type="curve"/>
      <point x="465" y="174"/>
      <point x="455" y="158"/>
      <point x="439" y="151" type="curve"/>
      <point x="411" y="133"/>
      <point x="386" y="111"/>
      <point x="386" y="74" type="curve" smooth="yes"/>
      <point x="386" y="30"/>
      <point x="419" y="-1"/>
      <point x="469" y="-1" type="curve" smooth="yes"/>
      <point x="506" y="-1"/>
      <point x="542" y="13"/>
      <point x="578" y="39" type="curve"/>
      <point x="612" y="9"/>
      <point x="653" y="-5"/>
      <point x="691" y="7" type="curve" smooth="yes"/>
      <point x="735" y="15"/>
      <point x="758" y="53"/>
      <point x="758" y="82" type="curve" smooth="yes"/>
    </contour>
    <contour>
      <point x="530" y="56"/>
      <point x="508" y="44"/>
      <point x="484" y="43" type="curve" smooth="yes"/>
      <point x="462" y="42"/>
      <point x="422" y="53"/>
      <point x="429" y="87" type="curve"/>
      <point x="433" y="105"/>
      <point x="452" y="113"/>
      <point x="469" y="113" type="curve" smooth="yes"/>
      <point x="499" y="113"/>
      <point x="527" y="93"/>
      <point x="549" y="72" type="curve"/>
    </contour>
    <contour>
      <point x="647" y="34"/>
      <point x="623" y="50"/>
      <point x="606" y="66" type="curve"/>
      <point x="616" y="77"/>
      <point x="630" y="94"/>
      <point x="640" y="108" type="curve"/>
      <point x="644" y="103"/>
      <point x="649" y="98"/>
      <point x="653" y="94" type="curve"/>
      <point x="647" y="76"/>
      <point x="653" y="53"/>
      <point x="675" y="40" type="curve"/>
    </contour>
  </outline>
</glyph>
<glyph name="sadabove-ar" format="1">
  <advance width="0"/>
  <unicode hex="0610"/>
  <outline>
    <contour>
      <point x="-88" y="779"/>
      <point x="-80" y="769"/>
      <point x="-75" y="759" type="curve"/>
      <point x="-72" y="752"/>
      <point x="-59" y="730"/>
      <point x="-54" y="702" type="curve"/>
      <point x="-49" y="704" type="line"/>
      <point x="-44" y="716"/>
      <point x="-42" y="727"/>
      <point x="-42" y="735" type="curve" smooth="yes"/>
      <point x="-42" y="742"/>
      <point x="-43" y="750"/>
      <point x="-45" y="758" type="curve"/>
      <point x="-40" y="756"/>
      <point x="-34" y="755"/>
      <point x="-28" y="754" type="curve" smooth="yes"/>
      <point x="-22" y="753"/>
      <point x="-13" y="753"/>
      <point x="-4" y="753" type="curve" smooth="yes"/>
      <point x="18" y="753"/>
      <point x="43" y="762"/>
      <point x="64" y="778" type="curve"/>
      <point x="74" y="785"/>
      <point x="83" y="795"/>
      <point x="88" y="804" type="curve"/>
      <point x="95" y="815"/>
      <point x="97" y="825"/>
      <point x="97" y="836" type="curve" smooth="yes"/>
      <point x="97" y="844"/>
      <point x="94" y="853"/>
      <point x="83" y="861" type="curve" smooth="yes"/>
      <point x="75" y="867"/>
      <point x="65" y="872"/>
      <point x="57" y="872" type="curve" smooth="yes"/>
      <point x="31" y="872"/>
      <point x="6" y="847"/>
      <point x="-5" y="834" type="curve" smooth="yes"/>
      <point x="-21" y="818"/>
      <point x="-30" y="805"/>
      <point x="-36" y="795" type="curve"/>
      <point x="-53" y="796"/>
      <point x="-64" y="808"/>
      <point x="-72" y="818" type="curve"/>
      <point x="-80" y="809"/>
      <point x="-88" y="799"/>
      <point x="-94" y="787" type="curve"/>
    </contour>
    <contour>
      <point x="-10" y="803"/>
      <point x="-4" y="810"/>
      <point x="2" y="818" type="curve"/>
      <point x="13" y="828"/>
      <point x="24" y="838"/>
      <point x="41" y="838" type="curve" smooth="yes"/>
      <point x="49" y="838"/>
      <point x="57" y="834"/>
      <point x="61" y="830" type="curve"/>
      <point x="66" y="826"/>
      <point x="68" y="819"/>
      <point x="70" y="815" type="curve"/>
      <point x="67" y="812"/>
      <point x="60" y="805"/>
      <point x="48" y="800" type="curve"/>
      <point x="40" y="797"/>
      <point x="30" y="795"/>
      <point x="18" y="795" type="curve" smooth="yes"/>
      <point x="-16" y="795" type="line"/>
    </contour>
    <contour>
      <point x="2" y="872" type="move" name="top"/>
    </contour>
    <contour>
      <point x="2" y="682" type="move" name="_top"/>
    </contour>
  </outline>
</glyph>
<glyph name="takhallusabove-ar" format="1">
  <advance width="0"/>
  <unicode hex="0614"/>
  <outline>
    <contour>
      <point x="113" y="778"/>
      <point x="103" y="746"/>
      <point x="72" y="746" type="curve" smooth="yes"/>
      <point x="54" y="746" type="line" smooth="yes"/>
      <point x="42" y="746"/>
      <point x="35" y="749"/>
      <point x="31" y="755" type="curve"/>
      <point x="24" y="762"/>
      <point x="27" y="773"/>
      <point x="27" y="775" type="curve"/>
      <point x="13" y="769" type="line"/>
      <point x="12" y="762"/>
      <point x="8" y="746"/>
      <point x="-16" y="746" type="curve" smooth="yes"/>
      <point x="-123" y="746" type="line"/>
      <point x="-105" y="703" type="line"/>
      <point x="-13" y="703" type="line" smooth="yes"/>
      <point x="-2" y="703"/>
      <point x="8" y="706"/>
      <point x="13" y="712" type="curve" smooth="yes"/>
      <point x="20" y="717"/>
      <point x="22" y="721"/>
      <point x="22" y="723" type="curve"/>
      <point x="23" y="721"/>
      <point x="24" y="716"/>
      <point x="30" y="712" type="curve" smooth="yes"/>
      <point x="36" y="707"/>
      <point x="45" y="703"/>
      <point x="59" y="703" type="curve" smooth="yes"/>
      <point x="69" y="703" type="line" smooth="yes"/>
      <point x="87" y="703"/>
      <point x="100" y="710"/>
      <point x="109" y="724" type="curve" smooth="yes"/>
      <point x="117" y="736"/>
      <point x="121" y="752"/>
      <point x="121" y="767" type="curve" smooth="yes"/>
      <point x="121" y="769"/>
      <point x="121" y="771"/>
      <point x="121" y="774" type="curve"/>
      <point x="113" y="778" type="line"/>
    </contour>
    <contour>
      <point x="-1" y="778" type="move" name="top"/>
    </contour>
    <contour>
      <point x="-1" y="683" type="move" name="_top"/>
    </contour>
  </outline>
</glyph>
<glyph name="tahabove-ar" format="1">
  <advance width="0"/>
  <unicode hex="0615"/>
  <outline>
    <contour>
      <point x="-58" y="857" type="line"/>
      <point x="-50" y="842"/>
      <point x="-38" y="800"/>
      <point x="-36" y="760" type="curve"/>
      <point x="-43" y="746" type="line"/>
      <point x="-74" y="746" type="line"/>
      <point x="-62" y="701" type="line"/>
      <point x="-18" y="701" type="line"/>
      <point x="3" y="701"/>
      <point x="27" y="710"/>
      <point x="45" y="723" type="curve" smooth="yes"/>
      <point x="65" y="739"/>
      <point x="76" y="758"/>
      <point x="76" y="778" type="curve" smooth="yes"/>
      <point x="76" y="797"/>
      <point x="51" y="813"/>
      <point x="34" y="813" type="curve" smooth="yes"/>
      <point x="20" y="813"/>
      <point x="0" y="803"/>
      <point x="-18" y="777" type="curve"/>
      <point x="-15" y="794"/>
      <point x="-16" y="808"/>
      <point x="-19" y="827" type="curve"/>
      <point x="-21" y="843"/>
      <point x="-18" y="847"/>
      <point x="-7" y="852" type="curve"/>
      <point x="-18" y="864"/>
      <point x="-26" y="876"/>
      <point x="-32" y="890" type="curve"/>
    </contour>
    <contour>
      <point x="44" y="754"/>
      <point x="25" y="744"/>
      <point x="5" y="744" type="curve" smooth="yes"/>
      <point x="-21" y="744" type="line"/>
      <point x="-12" y="760"/>
      <point x="3" y="779"/>
      <point x="21" y="779" type="curve" smooth="yes"/>
      <point x="38" y="779"/>
      <point x="46" y="770"/>
      <point x="50" y="763" type="curve"/>
    </contour>
    <contour>
      <point x="0" y="890" type="move" name="top"/>
    </contour>
    <contour>
      <point x="0" y="674" type="move" name="_top"/>
    </contour>
  </outline>
</glyph>
<glyph name="zainabove-ar" format="1">
  <advance width="0"/>
  <unicode hex="0617"/>
  <outline>
    <contour>
      <point x="59" y="821"/>
      <point x="51" y="838"/>
      <point x="43" y="849" type="curve" smooth="yes"/>
      <point x="37" y="857"/>
      <point x="33" y="861"/>
      <point x="32" y="862" type="curve"/>
      <point x="24" y="852"/>
      <point x="16" y="842"/>
      <point x="9" y="830" type="curve"/>
      <point x="14" y="826"/>
      <point x="23" y="817"/>
      <point x="28" y="804" type="curve" smooth="yes"/>
      <point x="32" y="795"/>
      <point x="34" y="785"/>
      <point x="30" y="774" type="curve" smooth="yes"/>
      <point x="28" y="758"/>
      <point x="10" y="747"/>
      <point x="-9" y="735" type="curve" smooth="yes"/>
      <point x="-29" y="724"/>
      <point x="-51" y="713"/>
      <point x="-59" y="708" type="curve"/>
      <point x="-51" y="698" type="line"/>
      <point x="-42" y="700"/>
      <point x="-33" y="700"/>
      <point x="-26" y="700" type="curve" smooth="yes"/>
      <point x="-18" y="700"/>
      <point x="-13" y="700"/>
      <point x="-5" y="700" type="curve" smooth="yes"/>
      <point x="6" y="700"/>
      <point x="15" y="702"/>
      <point x="24" y="708" type="curve"/>
      <point x="31" y="713"/>
      <point x="38" y="721"/>
      <point x="43" y="730" type="curve" smooth="yes"/>
      <point x="55" y="751"/>
      <point x="59" y="778"/>
      <point x="59" y="794" type="curve" smooth="yes"/>
    </contour>
    <contour>
      <point x="49" y="908"/>
      <point x="40" y="917"/>
      <point x="30" y="922" type="curve"/>
      <point x="27" y="919"/>
      <point x="16" y="907"/>
      <point x="10" y="901" type="curve"/>
      <point x="19" y="895"/>
      <point x="26" y="887"/>
      <point x="32" y="880" type="curve"/>
      <point x="40" y="886"/>
      <point x="49" y="896"/>
      <point x="53" y="901" type="curve"/>
    </contour>
    <contour>
      <point x="0" y="922" type="move" name="top"/>
    </contour>
    <contour>
      <point x="0" y="678" type="move" name="_top"/>
    </contour>
  </outline>
</glyph>
<glyph name="hah-ar" format="1">
  <advance width="600"/>
  <unicode hex="062D"/>
  <outline>
    <contour>
      <point x="534" y="289"/>
      <point x="516" y="289"/>
      <point x="500" y="289" type="curve" smooth="yes"/>
      <point x="389" y="288"/>
      <point x="317" y="312"/>
      <point x="284" y="322" type="curve" smooth="yes"/>
      <point x="249" y="333"/>
      <point x="225" y="338"/>
      <point x="207" y="338" type="curve" smooth="yes"/>
      <point x="169" y="338"/>
      <point x="144" y="322"/>
      <point x="118" y="279" type="curve" smooth="yes"/>
      <point x="103" y="258"/>
      <point x="91" y="234"/>
      <point x="84" y="218" type="curve"/>
      <point x="113" y="195" type="line"/>
      <point x="131" y="224"/>
      <point x="150" y="240"/>
      <point x="198" y="240" type="curve" smooth="yes"/>
      <point x="229" y="240"/>
      <point x="260" y="231"/>
      <point x="283" y="224" type="curve"/>
      <point x="253" y="212"/>
      <point x="224" y="197"/>
      <point x="198" y="177" type="curve" smooth="yes"/>
      <point x="164" y="151"/>
      <point x="133" y="118"/>
      <point x="110" y="79" type="curve" smooth="yes"/>
      <point x="84" y="35"/>
      <point x="68" y="-17"/>
      <point x="65" y="-75" type="curve" smooth="yes"/>
      <point x="61" y="-145"/>
      <point x="80" y="-213"/>
      <point x="121" y="-260" type="curve" smooth="yes"/>
      <point x="164" y="-309"/>
      <point x="225" y="-336"/>
      <point x="297" y="-336" type="curve" smooth="yes"/>
      <point x="346" y="-336"/>
      <point x="372" y="-323"/>
      <point x="398" y="-309" type="curve" smooth="yes"/>
      <point x="422" y="-296"/>
      <point x="453" y="-281"/>
      <point x="496" y="-282" type="curve"/>
      <point x="509" y="-242" type="line"/>
      <point x="469" y="-235"/>
      <point x="440" y="-233"/>
      <point x="410" y="-232" type="curve" smooth="yes"/>
      <point x="392" y="-231"/>
      <point x="347" y="-227"/>
      <point x="316" y="-222" type="curve" smooth="yes"/>
      <point x="254" y="-211"/>
      <point x="210" y="-189"/>
      <point x="182" y="-158" type="curve" smooth="yes"/>
      <point x="149" y="-122"/>
      <point x="138" y="-76"/>
      <point x="143" y="-28" type="curve" smooth="yes"/>
      <point x="149" y="44"/>
      <point x="189" y="98"/>
      <point x="245" y="134" type="curve" smooth="yes"/>
      <point x="316" y="178"/>
      <point x="415" y="195"/>
      <point x="513" y="184" type="curve"/>
      <point x="529" y="220"/>
      <point x="538" y="257"/>
      <point x="547" y="290" type="curve"/>
    </contour>
    <contour>
      <point x="327" y="-16" type="move" name="center"/>
    </contour>
    <contour>
      <point x="296" y="-366" type="move" name="bottom"/>
    </contour>
    <contour>
      <point x="264" y="369" type="move" name="top"/>
    </contour>
  </outline>
</glyph>
<glyph name="sad-ar" format="1">
  <advance width="1018"/>
  <unicode hex="0635"/>
  <outline>
    <contour>
      <point x="964" y="266"/>
      <point x="952" y="294"/>
      <point x="922" y="317" type="curve" smooth="yes"/>
      <point x="899" y="335"/>
      <point x="869" y="347"/>
      <point x="847" y="347" type="curve" smooth="yes"/>
      <point x="772" y="347"/>
      <point x="697" y="274"/>
      <point x="665" y="239" type="curve" smooth="yes"/>
      <point x="622" y="192"/>
      <point x="595" y="153"/>
      <point x="577" y="125" type="curve"/>
      <point x="528" y="129"/>
      <point x="495" y="164"/>
      <point x="474" y="194" type="curve"/>
      <point x="448" y="165"/>
      <point x="427" y="135"/>
      <point x="409" y="101" type="curve"/>
      <point x="447" y="51"/>
      <point x="494" y="-15"/>
      <point x="494" y="-53" type="curve" smooth="yes"/>
      <point x="494" y="-87"/>
      <point x="458" y="-114"/>
      <point x="406" y="-129" type="curve" smooth="yes"/>
      <point x="376" y="-140"/>
      <point x="340" y="-146"/>
      <point x="300" y="-146" type="curve" smooth="yes"/>
      <point x="234" y="-146"/>
      <point x="177" y="-128"/>
      <point x="149" y="-94" type="curve" smooth="yes"/>
      <point x="122" y="-61"/>
      <point x="123" y="-14"/>
      <point x="134" y="40" type="curve"/>
      <point x="99" y="52" type="line"/>
      <point x="80" y="11"/>
      <point x="67" y="-39"/>
      <point x="64" y="-77" type="curve" smooth="yes"/>
      <point x="62" y="-107"/>
      <point x="65" y="-140"/>
      <point x="78" y="-171" type="curve" smooth="yes"/>
      <point x="94" y="-210"/>
      <point x="122" y="-239"/>
      <point x="161" y="-259" type="curve" smooth="yes"/>
      <point x="197" y="-276"/>
      <point x="239" y="-285"/>
      <point x="291" y="-285" type="curve" smooth="yes"/>
      <point x="391" y="-285"/>
      <point x="449" y="-257"/>
      <point x="488" y="-218" type="curve" smooth="yes"/>
      <point x="544" y="-164"/>
      <point x="558" y="-90"/>
      <point x="558" y="-50" type="curve" smooth="yes"/>
      <point x="558" y="-30"/>
      <point x="557" y="-6"/>
      <point x="553" y="18" type="curve"/>
      <point x="567" y="11"/>
      <point x="584" y="8"/>
      <point x="600" y="6" type="curve" smooth="yes"/>
      <point x="619" y="3"/>
      <point x="642" y="3"/>
      <point x="670" y="3" type="curve" smooth="yes"/>
      <point x="734" y="3"/>
      <point x="808" y="29"/>
      <point x="866" y="74" type="curve" smooth="yes"/>
      <point x="895" y="97"/>
      <point x="920" y="123"/>
      <point x="936" y="150" type="curve" smooth="yes"/>
      <point x="955" y="180"/>
      <point x="964" y="212"/>
      <point x="964" y="243" type="curve" smooth="yes"/>
    </contour>
    <contour>
      <point x="874" y="172"/>
      <point x="857" y="154"/>
      <point x="819" y="141" type="curve" smooth="yes"/>
      <point x="797" y="132"/>
      <point x="770" y="125"/>
      <point x="735" y="125" type="curve" smooth="yes"/>
      <point x="637" y="125" type="line"/>
      <point x="653" y="148"/>
      <point x="670" y="170"/>
      <point x="691" y="190" type="curve" smooth="yes"/>
      <point x="719" y="218"/>
      <point x="751" y="248"/>
      <point x="802" y="248" type="curve" smooth="yes"/>
      <point x="825" y="248"/>
      <point x="845" y="238"/>
      <point x="857" y="227" type="curve" smooth="yes"/>
      <point x="873" y="214"/>
      <point x="880" y="196"/>
      <point x="884" y="182" type="curve"/>
    </contour>
    <contour>
      <point x="714" y="-102" type="move" name="center"/>
    </contour>
    <contour>
      <point x="298" y="-315" type="move" name="bottom"/>
    </contour>
    <contour>
      <point x="827" y="377" type="move" name="top"/>
    </contour>
  </outline>
</glyph>
<glyph name="tah-ar" format="1">
  <advance width="669"/>
  <unicode hex="0637"/>
  <outline>
    <contour>
      <point x="615" y="255"/>
      <point x="603" y="282"/>
      <point x="573" y="305" type="curve" smooth="yes"/>
      <point x="549" y="324"/>
      <point x="520" y="335"/>
      <point x="498" y="335" type="curve" smooth="yes"/>
      <point x="458" y="335"/>
      <point x="423" y="320"/>
      <point x="381" y="284" type="curve" smooth="yes"/>
      <point x="365" y="273"/>
      <point x="342" y="254"/>
      <point x="322" y="232" type="curve"/>
      <point x="324" y="246"/>
      <point x="328" y="269"/>
      <point x="326" y="308" type="curve" smooth="yes"/>
      <point x="324" y="333"/>
      <point x="321" y="360"/>
      <point x="316" y="398" type="curve"/>
      <point x="306" y="451"/>
      <point x="342" y="475"/>
      <point x="350" y="481" type="curve"/>
      <point x="309" y="521"/>
      <point x="282" y="572"/>
      <point x="272" y="597" type="curve"/>
      <point x="205" y="494" type="line"/>
      <point x="206" y="491"/>
      <point x="220" y="459"/>
      <point x="232" y="407" type="curve" smooth="yes"/>
      <point x="251" y="331"/>
      <point x="261" y="248"/>
      <point x="265" y="170" type="curve"/>
      <point x="252" y="156"/>
      <point x="239" y="140"/>
      <point x="226" y="125" type="curve"/>
      <point x="183" y="127"/>
      <point x="99" y="133"/>
      <point x="63" y="139" type="curve"/>
      <point x="89" y="82"/>
      <point x="128" y="33"/>
      <point x="175" y="-3" type="curve"/>
      <point x="192" y="-1"/>
      <point x="217" y="0"/>
      <point x="238" y="0" type="curve" smooth="yes"/>
      <point x="251" y="0"/>
      <point x="288" y="1"/>
      <point x="333" y="2" type="curve" smooth="yes"/>
      <point x="398" y="3"/>
      <point x="468" y="31"/>
      <point x="522" y="71" type="curve" smooth="yes"/>
      <point x="582" y="116"/>
      <point x="615" y="173"/>
      <point x="615" y="231" type="curve" smooth="yes"/>
    </contour>
    <contour>
      <point x="522" y="169"/>
      <point x="507" y="156"/>
      <point x="480" y="144" type="curve" smooth="yes"/>
      <point x="453" y="132"/>
      <point x="422" y="125"/>
      <point x="386" y="125" type="curve" smooth="yes"/>
      <point x="301" y="125" type="line"/>
      <point x="313" y="138"/>
      <point x="325" y="153"/>
      <point x="340" y="166" type="curve" smooth="yes"/>
      <point x="377" y="203"/>
      <point x="418" y="229"/>
      <point x="452" y="229" type="curve" smooth="yes"/>
      <point x="503" y="229"/>
      <point x="523" y="204"/>
      <point x="535" y="182" type="curve"/>
    </contour>
    <contour>
      <point x="491" y="365" type="move" name="top"/>
    </contour>
    <contour>
      <point x="290" y="-28" type="move" name="bottom"/>
    </contour>
  </outline>
</glyph>
<glyph name="kashida-ar" format="1">
  <advance width="208"/>
  <unicode hex="0640"/>
  <outline>
    <contour>
      <point x="-14" y="125" type="line" smooth="yes"/>
      <point x="-50" y="125"/>
      <point x="-76" y="95"/>
      <point x="-76" y="62" type="curve" smooth="yes"/>
      <point x="-76" y="28"/>
      <point x="-49" y="0"/>
      <point x="-14" y="0" type="curve" smooth="yes"/>
      <point x="208" y="0" type="line"/>
      <point x="208" y="125" type="line"/>
    </contour>
  </outline>
</glyph>
<glyph name="lam-ar" format="1">
  <advance width="571"/>
  <unicode hex="0644"/>
  <outline>
    <contour>
      <point x="479" y="572"/>
      <point x="458" y="609"/>
      <point x="435" y="654" type="curve"/>
      <point x="366" y="555" type="line"/>
      <point x="390" y="450"/>
      <point x="410" y="367"/>
      <point x="434" y="229" type="curve" smooth="yes"/>
      <point x="446" y="158"/>
      <point x="453" y="110"/>
      <point x="453" y="86" type="curve" smooth="yes"/>
      <point x="453" y="57"/>
      <point x="443" y="36"/>
      <point x="421" y="21" type="curve" smooth="yes"/>
      <point x="394" y="1"/>
      <point x="349" y="-11"/>
      <point x="298" y="-11" type="curve" smooth="yes"/>
      <point x="257" y="-11"/>
      <point x="225" y="-3"/>
      <point x="204" y="4" type="curve" smooth="yes"/>
      <point x="173" y="15"/>
      <point x="156" y="30"/>
      <point x="146" y="44" type="curve" smooth="yes"/>
      <point x="119" y="79"/>
      <point x="126" y="136"/>
      <point x="134" y="175" type="curve"/>
      <point x="99" y="188" type="line"/>
      <point x="77" y="130"/>
      <point x="66" y="94"/>
      <point x="64" y="58" type="curve" smooth="yes"/>
      <point x="62" y="26"/>
      <point x="66" y="-8"/>
      <point x="78" y="-36" type="curve" smooth="yes"/>
      <point x="92" y="-72"/>
      <point x="119" y="-102"/>
      <point x="156" y="-121" type="curve" smooth="yes"/>
      <point x="193" y="-141"/>
      <point x="238" y="-150"/>
      <point x="291" y="-150" type="curve" smooth="yes"/>
      <point x="363" y="-150"/>
      <point x="422" y="-129"/>
      <point x="461" y="-85" type="curve" smooth="yes"/>
      <point x="484" y="-58"/>
      <point x="501" y="-23"/>
      <point x="510" y="18" type="curve" smooth="yes"/>
      <point x="518" y="55"/>
      <point x="519" y="97"/>
      <point x="514" y="143" type="curve"/>
      <point x="505" y="252"/>
      <point x="495" y="346"/>
      <point x="481" y="463" type="curve"/>
      <point x="475" y="505"/>
      <point x="484" y="524"/>
      <point x="514" y="543" type="curve"/>
    </contour>
    <contour>
      <point x="328" y="646" type="move" name="top"/>
    </contour>
    <contour>
      <point x="291" y="-180" type="move" name="bottom"/>
    </contour>
  </outline>
</glyph>
<glyph name="meem-ar" format="1">
  <advance width="425"/>
  <unicode hex="0645"/>
  <outline>
    <contour>
      <point x="370" y="245"/>
      <point x="343" y="281"/>
      <point x="305" y="306" type="curve" smooth="yes"/>
      <point x="284" y="321"/>
      <point x="258" y="333"/>
      <point x="230" y="333" type="curve" smooth="yes"/>
      <point x="200" y="333"/>
      <point x="176" y="320"/>
      <point x="159" y="295" type="curve" smooth="yes"/>
      <point x="145" y="277"/>
      <point x="136" y="253"/>
      <point x="135" y="227" type="curve"/>
      <point x="158" y="240"/>
      <point x="210" y="246"/>
      <point x="244" y="214" type="curve"/>
      <point x="161" y="212"/>
      <point x="114" y="177"/>
      <point x="85" y="122" type="curve" smooth="yes"/>
      <point x="70" y="96"/>
      <point x="59" y="57"/>
      <point x="66" y="4" type="curve" smooth="yes"/>
      <point x="71" y="-35"/>
      <point x="78" y="-80"/>
      <point x="85" y="-126" type="curve" smooth="yes"/>
      <point x="93" y="-169"/>
      <point x="107" y="-280"/>
      <point x="117" y="-360" type="curve"/>
      <point x="164" y="-343" type="line"/>
      <point x="165" y="-243"/>
      <point x="155" y="-130"/>
      <point x="142" y="-5" type="curve" smooth="yes"/>
      <point x="140" y="24"/>
      <point x="145" y="49"/>
      <point x="163" y="68" type="curve" smooth="yes"/>
      <point x="184" y="91"/>
      <point x="215" y="107"/>
      <point x="254" y="115" type="curve" smooth="yes"/>
      <point x="289" y="123"/>
      <point x="324" y="123"/>
      <point x="355" y="121" type="curve"/>
      <point x="365" y="166"/>
      <point x="372" y="207"/>
      <point x="372" y="242" type="curve"/>
    </contour>
    <contour>
      <point x="229" y="362" type="move" name="top"/>
    </contour>
    <contour>
      <point x="143" y="-381" type="move" name="bottom"/>
    </contour>
  </outline>
</glyph>
<glyph name="heh-ar" format="1">
  <advance width="380"/>
  <unicode hex="0647"/>
  <outline>
    <contour>
      <point x="327" y="186"/>
      <point x="316" y="220"/>
      <point x="299" y="248" type="curve" smooth="yes"/>
      <point x="283" y="273"/>
      <point x="262" y="295"/>
      <point x="238" y="312" type="curve" smooth="yes"/>
      <point x="210" y="333"/>
      <point x="178" y="347"/>
      <point x="144" y="356" type="curve"/>
      <point x="112" y="329"/>
      <point x="91" y="305"/>
      <point x="67" y="271" type="curve"/>
      <point x="106" y="255" type="line"/>
      <point x="84" y="222"/>
      <point x="65" y="171"/>
      <point x="67" y="122" type="curve" smooth="yes"/>
      <point x="68" y="87"/>
      <point x="77" y="54"/>
      <point x="94" y="32" type="curve" smooth="yes"/>
      <point x="114" y="5"/>
      <point x="146" y="-8"/>
      <point x="186" y="-8" type="curve" smooth="yes"/>
      <point x="246" y="-8"/>
      <point x="283" y="13"/>
      <point x="305" y="51" type="curve" smooth="yes"/>
      <point x="325" y="84"/>
      <point x="327" y="127"/>
      <point x="327" y="145" type="curve" smooth="yes"/>
    </contour>
    <contour>
      <point x="256" y="184"/>
      <point x="272" y="172"/>
      <point x="274" y="158" type="curve"/>
      <point x="274" y="138"/>
      <point x="251" y="121"/>
      <point x="220" y="121" type="curve" smooth="yes"/>
      <point x="190" y="121"/>
      <point x="158" y="126"/>
      <point x="144" y="138" type="curve" smooth="yes"/>
      <point x="129" y="149"/>
      <point x="123" y="165"/>
      <point x="123" y="186" type="curve" smooth="yes"/>
      <point x="123" y="219"/>
      <point x="145" y="239"/>
      <point x="145" y="239" type="curve"/>
      <point x="174" y="229"/>
      <point x="208" y="213"/>
      <point x="227" y="202" type="curve" smooth="yes"/>
    </contour>
    <contour>
      <point x="144" y="386" type="move" name="top"/>
    </contour>
    <contour>
      <point x="186" y="-38" type="move" name="bottom"/>
    </contour>
  </outline>
</glyph>
<glyph name="waw-ar" format="1">
  <advance width="375"/>
  <unicode hex="0648"/>
  <outline>
    <contour>
      <point x="288" y="297"/>
      <point x="261" y="348"/>
      <point x="206" y="348" type="curve" smooth="yes"/>
      <point x="176" y="348"/>
      <point x="149" y="326"/>
      <point x="129" y="295" type="curve" smooth="yes"/>
      <point x="109" y="264"/>
      <point x="96" y="222"/>
      <point x="96" y="186" type="curve" smooth="yes"/>
      <point x="95" y="154"/>
      <point x="99" y="116"/>
      <point x="125" y="92" type="curve" smooth="yes"/>
      <point x="141" y="76"/>
      <point x="166" y="66"/>
      <point x="204" y="66" type="curve" smooth="yes"/>
      <point x="236" y="66"/>
      <point x="252" y="80"/>
      <point x="261" y="88" type="curve"/>
      <point x="260" y="59"/>
      <point x="250" y="28"/>
      <point x="234" y="2" type="curve" smooth="yes"/>
      <point x="212" y="-44"/>
      <point x="168" y="-80"/>
      <point x="123" y="-106" type="curve" smooth="yes"/>
      <point x="61" y="-144"/>
      <point x="-4" y="-176"/>
      <point x="-20" y="-184" type="curve"/>
      <point x="3" y="-217" type="line"/>
      <point x="23" y="-211"/>
      <point x="55" y="-207"/>
      <point x="77" y="-207" type="curve" smooth="yes"/>
      <point x="93" y="-207"/>
      <point x="113" y="-210"/>
      <point x="131" y="-210" type="curve" smooth="yes"/>
      <point x="168" y="-210"/>
      <point x="193" y="-203"/>
      <point x="218" y="-186" type="curve" smooth="yes"/>
      <point x="240" y="-171"/>
      <point x="264" y="-146"/>
      <point x="281" y="-111" type="curve" smooth="yes"/>
      <point x="295" y="-82"/>
      <point x="305" y="-51"/>
      <point x="312" y="-15" type="curve" smooth="yes"/>
      <point x="320" y="25"/>
      <point x="322" y="66"/>
      <point x="322" y="106" type="curve" smooth="yes"/>
      <point x="321" y="153"/>
      <point x="315" y="208"/>
      <point x="302" y="251" type="curve" smooth="yes"/>
    </contour>
    <contour>
      <point x="250" y="207"/>
      <point x="254" y="185"/>
      <point x="254" y="185" type="curve"/>
      <point x="249" y="182"/>
      <point x="232" y="167"/>
      <point x="203" y="167" type="curve" smooth="yes"/>
      <point x="154" y="167"/>
      <point x="141" y="183"/>
      <point x="141" y="209" type="curve" smooth="yes"/>
      <point x="141" y="231"/>
      <point x="158" y="257"/>
      <point x="192" y="257" type="curve" smooth="yes"/>
      <point x="212" y="257"/>
      <point x="228" y="243"/>
      <point x="237" y="228" type="curve" smooth="yes"/>
    </contour>
    <contour>
      <point x="91" y="-4" type="move" name="center"/>
    </contour>
    <contour>
      <point x="104" y="-243" type="move" name="bottom"/>
    </contour>
    <contour>
      <point x="202" y="378" type="move" name="top"/>
    </contour>
  </outline>
</glyph>
<glyph name="kasratan-ar" format="1">
  <advance width="0"/>
  <unicode hex="064D"/>
  <outline>
    <contour>
      <point x="-63" y="-362"/>
      <point x="36" y="-319"/>
      <point x="80" y="-304" type="curve"/>
      <point x="86" y="-291"/>
      <point x="88" y="-283"/>
      <point x="91" y="-269" type="curve"/>
      <point x="46" y="-282"/>
      <point x="-37" y="-314"/>
      <point x="-79" y="-336" type="curve"/>
      <point x="-83" y="-346"/>
      <point x="-87" y="-360"/>
      <point x="-90" y="-373" type="curve"/>
    </contour>
    <contour>
      <point x="-63" y="-289"/>
      <point x="36" y="-246"/>
      <point x="80" y="-232" type="curve"/>
      <point x="86" y="-218"/>
      <point x="88" y="-210"/>
      <point x="91" y="-196" type="curve"/>
      <point x="46" y="-209"/>
      <point x="-37" y="-241"/>
      <point x="-79" y="-264" type="curve"/>
      <point x="-83" y="-272"/>
      <point x="-87" y="-287"/>
      <point x="-90" y="-300" type="curve"/>
    </contour>
    <contour>
      <point x="1" y="-166" type="move" name="_bottom"/>
    </contour>
    <contour>
      <point x="1" y="-373" type="move" name="bottom"/>
    </contour>
  </outline>
</glyph>
<glyph name="kasra-ar" format="1">
  <advance width="0"/>
  <unicode hex="0650"/>
  <outline>
    <contour>
      <point x="46" y="-216"/>
      <point x="-37" y="-248"/>
      <point x="-79" y="-271" type="curve"/>
      <point x="-83" y="-280"/>
      <point x="-87" y="-295"/>
      <point x="-90" y="-308" type="curve"/>
      <point x="-63" y="-297"/>
      <point x="36" y="-254"/>
      <point x="80" y="-240" type="curve"/>
      <point x="86" y="-226"/>
      <point x="88" y="-218"/>
      <point x="91" y="-204" type="curve"/>
    </contour>
    <contour>
      <point x="1" y="-175" type="move" name="_bottom"/>
    </contour>
    <contour>
      <point x="1" y="-310" type="move" name="bottom"/>
    </contour>
  </outline>
</glyph>
<glyph name="madda-ar" format="1">
  <advance width="0"/>
  <unicode hex="0653"/>
  <outline>
    <contour>
      <point x="158" y="804"/>
      <point x="105" y="778"/>
      <point x="55" y="778" type="curve" smooth="yes"/>
      <point x="19" y="778"/>
      <point x="-17" y="788"/>
      <point x="-43" y="796" type="curve" smooth="yes"/>
      <point x="-70" y="804"/>
      <point x="-90" y="810"/>
      <point x="-107" y="810" type="curve" smooth="yes"/>
      <point x="-165" y="810"/>
      <point x="-183" y="739"/>
      <point x="-189" y="715" type="curve"/>
      <point x="-186" y="707"/>
      <point x="-171" y="697"/>
      <point x="-166" y="694" type="curve"/>
      <point x="-161" y="702"/>
      <point x="-143" y="729"/>
      <point x="-114" y="729" type="curve" smooth="yes"/>
      <point x="-103" y="729"/>
      <point x="-91" y="727"/>
      <point x="-77" y="723" type="curve" smooth="yes"/>
      <point x="-58" y="718"/>
      <point x="-34" y="712"/>
      <point x="-3" y="712" type="curve" smooth="yes"/>
      <point x="53" y="712"/>
      <point x="96" y="730"/>
      <point x="121" y="746" type="curve" smooth="yes"/>
      <point x="143" y="758"/>
      <point x="156" y="772"/>
      <point x="159" y="775" type="curve" smooth="yes"/>
      <point x="160" y="778"/>
      <point x="167" y="796"/>
      <point x="167" y="807" type="curve"/>
    </contour>
    <contour>
      <point x="-10" y="814" type="move" name="top"/>
    </contour>
    <contour>
      <point x="-10" y="803" type="move" name="_top"/>
    </contour>
  </outline>
</glyph>
<glyph name="hamzaabove-ar" format="1">
  <advance width="0"/>
  <unicode hex="0654"/>
  <outline>
    <contour>
      <point x="78" y="795"/>
      <point x="66" y="792"/>
      <point x="53" y="790" type="curve" smooth="yes"/>
      <point x="34" y="788"/>
      <point x="22" y="787"/>
      <point x="5" y="792" type="curve" smooth="yes"/>
      <point x="-18" y="798"/>
      <point x="-26" y="808"/>
      <point x="-28" y="819" type="curve"/>
      <point x="-16" y="826"/>
      <point x="0" y="834"/>
      <point x="23" y="834" type="curve" smooth="yes"/>
      <point x="34" y="834"/>
      <point x="44" y="831"/>
      <point x="54" y="827" type="curve"/>
      <point x="65" y="839" type="line"/>
      <point x="63" y="855"/>
      <point x="51" y="874"/>
      <point x="19" y="874" type="curve" smooth="yes"/>
      <point x="-2" y="874"/>
      <point x="-22" y="867"/>
      <point x="-41" y="851" type="curve" smooth="yes"/>
      <point x="-54" y="841"/>
      <point x="-66" y="826"/>
      <point x="-71" y="819" type="curve" smooth="yes"/>
      <point x="-75" y="814"/>
      <point x="-76" y="810"/>
      <point x="-76" y="804" type="curve" smooth="yes"/>
      <point x="-76" y="787"/>
      <point x="-64" y="771"/>
      <point x="-36" y="763" type="curve"/>
      <point x="-57" y="752"/>
      <point x="-77" y="739"/>
      <point x="-89" y="725" type="curve" smooth="yes"/>
      <point x="-93" y="719"/>
      <point x="-93" y="714"/>
      <point x="-92" y="711" type="curve" smooth="yes"/>
      <point x="-90" y="704"/>
      <point x="-86" y="700"/>
      <point x="-80" y="700" type="curve" smooth="yes"/>
      <point x="-73" y="704"/>
      <point x="-44" y="722"/>
      <point x="-5" y="735" type="curve" smooth="yes"/>
      <point x="19" y="744"/>
      <point x="41" y="750"/>
      <point x="67" y="752" type="curve"/>
      <point x="77" y="767"/>
      <point x="84" y="779"/>
      <point x="91" y="797" type="curve"/>
    </contour>
    <contour>
      <point x="-1" y="874" type="move" name="top"/>
    </contour>
    <contour>
      <point x="-1" y="673" type="move" name="_top"/>
    </contour>
  </outline>
</glyph>
<glyph name="alefbelow-ar" format="1">
  <advance width="0"/>
  <unicode hex="0656"/>
  <outline>
    <contour>
      <point x="31" y="-285"/>
      <point x="27" y="-235"/>
      <point x="8" y="-199" type="curve"/>
      <point x="-9" y="-208"/>
      <point x="-18" y="-215"/>
      <point x="-30" y="-227" type="curve"/>
      <point x="-14" y="-253"/>
      <point x="1" y="-287"/>
      <point x="-4" y="-344" type="curve"/>
      <point x="24" y="-337" type="line"/>
    </contour>
    <contour>
      <point x="-2" y="-179" type="move" name="_bottom"/>
    </contour>
    <contour>
      <point x="-2" y="-344" type="move" name="bottom"/>
    </contour>
  </outline>
</glyph>
<glyph name="vabove-ar" format="1">
  <advance width="0"/>
  <unicode hex="065A"/>
  <outline>
    <contour>
      <point x="73" y="853"/>
      <point x="68" y="864"/>
      <point x="60" y="877" type="curve"/>
      <point x="50" y="863"/>
      <point x="41" y="850"/>
      <point x="34" y="838" type="curve" smooth="yes"/>
      <point x="26" y="826"/>
      <point x="19" y="815"/>
      <point x="13" y="804" type="curve" smooth="yes"/>
      <point x="8" y="791"/>
      <point x="4" y="779"/>
      <point x="1" y="771" type="curve"/>
      <point x="-1" y="778"/>
      <point x="-5" y="788"/>
      <point x="-10" y="800" type="curve" smooth="yes"/>
      <point x="-14" y="808"/>
      <point x="-19" y="817"/>
      <point x="-24" y="827" type="curve" smooth="yes"/>
      <point x="-33" y="843"/>
      <point x="-45" y="859"/>
      <point x="-59" y="877" type="curve"/>
      <point x="-67" y="865"/>
      <point x="-72" y="855"/>
      <point x="-75" y="842" type="curve"/>
      <point x="-50" y="813"/>
      <point x="-31" y="780"/>
      <point x="-20" y="750" type="curve" smooth="yes"/>
      <point x="-14" y="732"/>
      <point x="-11" y="719"/>
      <point x="-10" y="700" type="curve"/>
      <point x="11" y="700" type="line"/>
      <point x="12" y="718"/>
      <point x="15" y="735"/>
      <point x="21" y="751" type="curve" smooth="yes"/>
      <point x="33" y="781"/>
      <point x="51" y="812"/>
      <point x="77" y="842" type="curve"/>
    </contour>
    <contour>
      <point x="1" y="877" type="move" name="top"/>
    </contour>
    <contour>
      <point x="2" y="677" type="move" name="_top"/>
    </contour>
  </outline>
</glyph>
<glyph name="three-ar" format="1">
  <advance width="497"/>
  <unicode hex="0663"/>
  <outline>
    <contour>
      <point x="417" y="537" type="line"/>
      <point x="417" y="501"/>
      <point x="410" y="459"/>
      <point x="367" y="459" type="curve" smooth="yes"/>
      <point x="314" y="459"/>
      <point x="310" y="508"/>
      <point x="313" y="553" type="curve"/>
      <point x="271" y="537" type="line"/>
      <point x="274" y="497"/>
      <point x="266" y="465"/>
      <point x="223" y="465" type="curve" smooth="yes"/>
      <point x="158" y="465"/>
      <point x="123" y="542"/>
      <point x="111" y="561" type="curve"/>
      <point x="81" y="525"/>
      <point x="65" y="500"/>
      <point x="47" y="462" type="curve"/>
      <point x="79" y="407"/>
      <point x="103" y="345"/>
      <point x="119" y="278" type="curve" smooth="yes"/>
      <point x="140" y="188"/>
      <point x="148" y="100"/>
      <point x="142" y="0" type="curve"/>
      <point x="188" y="0" type="line"/>
      <point x="204" y="73"/>
      <point x="215" y="138"/>
      <point x="217" y="201" type="curve" smooth="yes"/>
      <point x="218" y="249"/>
      <point x="214" y="296"/>
      <point x="203" y="346" type="curve"/>
      <point x="237" y="346"/>
      <point x="264" y="354"/>
      <point x="287" y="381" type="curve"/>
      <point x="306" y="368"/>
      <point x="325" y="362"/>
      <point x="351" y="362" type="curve" smooth="yes"/>
      <point x="387" y="363"/>
      <point x="413" y="376"/>
      <point x="431" y="399" type="curve" smooth="yes"/>
      <point x="461" y="438"/>
      <point x="464" y="499"/>
      <point x="456" y="553" type="curve"/>
    </contour>
  </outline>
</glyph>
<glyph name="thousandseparator-ar" format="1">
  <advance width="165"/>
  <unicode hex="066C"/>
  <outline>
    <contour>
      <point x="88" y="125" type="line"/>
      <point x="0" y="-91" type="line"/>
      <point x="78" y="-91" type="line"/>
      <point x="165" y="125" type="line"/>
    </contour>
  </outline>
</glyph>
<glyph name="asterisk-ar" format="1">
  <advance width="457"/>
  <unicode hex="066D"/>
  <outline>
    <contour>
      <point x="222" y="594"/>
      <point x="208" y="591"/>
      <point x="200" y="580" type="curve" smooth="yes"/>
      <point x="191" y="569"/>
      <point x="191" y="552"/>
      <point x="192" y="539" type="curve" smooth="yes"/>
      <point x="199" y="508"/>
      <point x="210" y="464"/>
      <point x="213" y="440" type="curve"/>
      <point x="194" y="455"/>
      <point x="156" y="491"/>
      <point x="137" y="507" type="curve" smooth="yes"/>
      <point x="127" y="515"/>
      <point x="115" y="520"/>
      <point x="104" y="520" type="curve" smooth="yes"/>
      <point x="102" y="520"/>
      <point x="101" y="520"/>
      <point x="99" y="520" type="curve" smooth="yes"/>
      <point x="84" y="518"/>
      <point x="75" y="508"/>
      <point x="69" y="497" type="curve" smooth="yes"/>
      <point x="64" y="487"/>
      <point x="60" y="474"/>
      <point x="66" y="460" type="curve" smooth="yes"/>
      <point x="71" y="448"/>
      <point x="85" y="440"/>
      <point x="98" y="434" type="curve" smooth="yes"/>
      <point x="128" y="426"/>
      <point x="169" y="414"/>
      <point x="193" y="406" type="curve"/>
      <point x="169" y="397"/>
      <point x="121" y="384"/>
      <point x="98" y="376" type="curve" smooth="yes"/>
      <point x="84" y="371"/>
      <point x="72" y="362"/>
      <point x="67" y="350" type="curve" smooth="yes"/>
      <point x="61" y="337"/>
      <point x="66" y="323"/>
      <point x="71" y="313" type="curve" smooth="yes"/>
      <point x="77" y="303"/>
      <point x="86" y="293"/>
      <point x="101" y="291" type="curve" smooth="yes"/>
      <point x="102" y="291"/>
      <point x="104" y="291"/>
      <point x="105" y="291" type="curve" smooth="yes"/>
      <point x="118" y="291"/>
      <point x="131" y="298"/>
      <point x="140" y="305" type="curve" smooth="yes"/>
      <point x="163" y="326"/>
      <point x="194" y="357"/>
      <point x="214" y="372" type="curve"/>
      <point x="210" y="347"/>
      <point x="197" y="298"/>
      <point x="192" y="274" type="curve" smooth="yes"/>
      <point x="190" y="260"/>
      <point x="192" y="245"/>
      <point x="199" y="234" type="curve" smooth="yes"/>
      <point x="208" y="223"/>
      <point x="222" y="220"/>
      <point x="234" y="220" type="curve" smooth="yes"/>
      <point x="245" y="220"/>
      <point x="259" y="223"/>
      <point x="267" y="234" type="curve" smooth="yes"/>
      <point x="276" y="245"/>
      <point x="276" y="262"/>
      <point x="275" y="275" type="curve" smooth="yes"/>
      <point x="268" y="306"/>
      <point x="257" y="350"/>
      <point x="254" y="373" type="curve"/>
      <point x="273" y="358"/>
      <point x="311" y="323"/>
      <point x="330" y="307" type="curve" smooth="yes"/>
      <point x="340" y="299"/>
      <point x="352" y="294"/>
      <point x="363" y="294" type="curve" smooth="yes"/>
      <point x="365" y="294"/>
      <point x="366" y="294"/>
      <point x="368" y="294" type="curve" smooth="yes"/>
      <point x="383" y="295"/>
      <point x="392" y="306"/>
      <point x="398" y="317" type="curve" smooth="yes"/>
      <point x="403" y="327"/>
      <point x="407" y="340"/>
      <point x="401" y="353" type="curve" smooth="yes"/>
      <point x="396" y="366"/>
      <point x="382" y="374"/>
      <point x="369" y="379" type="curve" smooth="yes"/>
      <point x="339" y="388"/>
      <point x="297" y="400"/>
      <point x="274" y="408" type="curve"/>
      <point x="298" y="416"/>
      <point x="346" y="430"/>
      <point x="369" y="438" type="curve" smooth="yes"/>
      <point x="383" y="443"/>
      <point x="395" y="452"/>
      <point x="400" y="464" type="curve" smooth="yes"/>
      <point x="406" y="477"/>
      <point x="401" y="491"/>
      <point x="395" y="500" type="curve" smooth="yes"/>
      <point x="390" y="511"/>
      <point x="381" y="521"/>
      <point x="366" y="523" type="curve" smooth="yes"/>
      <point x="365" y="523"/>
      <point x="363" y="523"/>
      <point x="362" y="523" type="curve" smooth="yes"/>
      <point x="349" y="523"/>
      <point x="336" y="516"/>
      <point x="327" y="509" type="curve" smooth="yes"/>
      <point x="304" y="488"/>
      <point x="272" y="457"/>
      <point x="253" y="442" type="curve"/>
      <point x="257" y="466"/>
      <point x="270" y="516"/>
      <point x="275" y="540" type="curve" smooth="yes"/>
      <point x="277" y="554"/>
      <point x="275" y="569"/>
      <point x="268" y="580" type="curve" smooth="yes"/>
      <point x="259" y="591"/>
      <point x="245" y="594"/>
      <point x="233" y="594" type="curve" smooth="yes"/>
    </contour>
  </outline>
</glyph>
<glyph name="dotlessqaf-ar" format="1">
  <advance width="591"/>
  <unicode hex="066F"/>
  <outline>
    <contour>
      <point x="379" y="379"/>
      <point x="352" y="364"/>
      <point x="331" y="331" type="curve" smooth="yes"/>
      <point x="307" y="297"/>
      <point x="294" y="250"/>
      <point x="294" y="211" type="curve" smooth="yes"/>
      <point x="294" y="177"/>
      <point x="303" y="148"/>
      <point x="323" y="130" type="curve" smooth="yes"/>
      <point x="342" y="113"/>
      <point x="369" y="105"/>
      <point x="401" y="105" type="curve" smooth="yes"/>
      <point x="436" y="105"/>
      <point x="459" y="115"/>
      <point x="469" y="118" type="curve"/>
      <point x="475" y="83" type="line"/>
      <point x="469" y="66"/>
      <point x="455" y="23"/>
      <point x="397" y="-8" type="curve" smooth="yes"/>
      <point x="371" y="-26"/>
      <point x="332" y="-40"/>
      <point x="284" y="-40" type="curve" smooth="yes"/>
      <point x="229" y="-40"/>
      <point x="178" y="-22"/>
      <point x="150" y="12" type="curve" smooth="yes"/>
      <point x="109" y="62"/>
      <point x="130" y="127"/>
      <point x="134" y="146" type="curve"/>
      <point x="99" y="158" type="line"/>
      <point x="94" y="146"/>
      <point x="70" y="96"/>
      <point x="65" y="29" type="curve" smooth="yes"/>
      <point x="62" y="-4"/>
      <point x="64" y="-35"/>
      <point x="77" y="-66" type="curve" smooth="yes"/>
      <point x="91" y="-100"/>
      <point x="116" y="-130"/>
      <point x="155" y="-150" type="curve" smooth="yes"/>
      <point x="192" y="-170"/>
      <point x="237" y="-179"/>
      <point x="283" y="-179" type="curve" smooth="yes"/>
      <point x="324" y="-179"/>
      <point x="358" y="-172"/>
      <point x="386" y="-160" type="curve" smooth="yes"/>
      <point x="422" y="-146"/>
      <point x="453" y="-122"/>
      <point x="477" y="-90" type="curve" smooth="yes"/>
      <point x="496" y="-65"/>
      <point x="510" y="-37"/>
      <point x="521" y="-3" type="curve" smooth="yes"/>
      <point x="532" y="33"/>
      <point x="538" y="74"/>
      <point x="538" y="112" type="curve" smooth="yes"/>
      <point x="538" y="157"/>
      <point x="530" y="221"/>
      <point x="506" y="280" type="curve" smooth="yes"/>
      <point x="493" y="313"/>
      <point x="480" y="336"/>
      <point x="460" y="354" type="curve" smooth="yes"/>
      <point x="443" y="371"/>
      <point x="425" y="379"/>
      <point x="405" y="379" type="curve" smooth="yes"/>
    </contour>
    <contour>
      <point x="439" y="292"/>
      <point x="450" y="227"/>
      <point x="451" y="223" type="curve"/>
      <point x="443" y="216"/>
      <point x="429" y="204"/>
      <point x="397" y="204" type="curve" smooth="yes"/>
      <point x="357" y="204"/>
      <point x="341" y="219"/>
      <point x="341" y="243" type="curve" smooth="yes"/>
      <point x="341" y="274"/>
      <point x="364" y="292"/>
      <point x="390" y="292" type="curve" smooth="yes"/>
    </contour>
    <contour>
      <point x="402" y="407" type="move" name="top"/>
    </contour>
    <contour>
      <point x="282" y="-215" type="move" name="bottom"/>
    </contour>
  </outline>
</glyph>
<glyph name="uHamzaabove-ar" format="1">
  <advance width="372"/>
  <unicode hex="0677"/>
  <outline>
    <contour>
      <point x="174" y="472"/>
      <point x="163" y="470"/>
      <point x="153" y="469" type="curve" smooth="yes"/>
      <point x="137" y="467"/>
      <point x="127" y="466"/>
      <point x="113" y="470" type="curve" smooth="yes"/>
      <point x="93" y="475"/>
      <point x="87" y="483"/>
      <point x="86" y="492" type="curve"/>
      <point x="96" y="498"/>
      <point x="109" y="505"/>
      <point x="127" y="505" type="curve" smooth="yes"/>
      <point x="138" y="505"/>
      <point x="146" y="502"/>
      <point x="154" y="499" type="curve"/>
      <point x="163" y="509" type="line"/>
      <point x="161" y="522"/>
      <point x="151" y="538"/>
      <point x="124" y="538" type="curve" smooth="yes"/>
      <point x="107" y="538"/>
      <point x="91" y="533"/>
      <point x="74" y="519" type="curve" smooth="yes"/>
      <point x="64" y="511"/>
      <point x="54" y="498"/>
      <point x="50" y="493" type="curve" smooth="yes"/>
      <point x="47" y="488"/>
      <point x="45" y="485"/>
      <point x="45" y="480" type="curve" smooth="yes"/>
      <point x="45" y="466"/>
      <point x="55" y="452"/>
      <point x="79" y="446" type="curve"/>
      <point x="61" y="437"/>
      <point x="45" y="426"/>
      <point x="35" y="414" type="curve" smooth="yes"/>
      <point x="32" y="410"/>
      <point x="31" y="405"/>
      <point x="32" y="402" type="curve" smooth="yes"/>
      <point x="34" y="396"/>
      <point x="38" y="393"/>
      <point x="43" y="393" type="curve" smooth="yes"/>
      <point x="48" y="396"/>
      <point x="72" y="412"/>
      <point x="105" y="423" type="curve" smooth="yes"/>
      <point x="125" y="430"/>
      <point x="143" y="435"/>
      <point x="165" y="436" type="curve"/>
      <point x="173" y="449"/>
      <point x="179" y="459"/>
      <point x="185" y="474" type="curve"/>
    </contour>
    <contour>
      <point x="297" y="466" type="line"/>
      <point x="313" y="495"/>
      <point x="318" y="530"/>
      <point x="294" y="542" type="curve" smooth="yes"/>
      <point x="276" y="552"/>
      <point x="255" y="544"/>
      <point x="235" y="519" type="curve" smooth="yes"/>
      <point x="223" y="506"/>
      <point x="220" y="492"/>
      <point x="222" y="480" type="curve" smooth="yes"/>
      <point x="226" y="465"/>
      <point x="239" y="455"/>
      <point x="254" y="448" type="curve"/>
      <point x="234" y="430"/>
      <point x="211" y="423"/>
      <point x="176" y="426" type="curve"/>
      <point x="170" y="417"/>
      <point x="167" y="408"/>
      <point x="162" y="393" type="curve"/>
      <point x="214" y="390"/>
      <point x="238" y="399"/>
      <point x="256" y="412" type="curve" smooth="yes"/>
      <point x="268" y="421"/>
      <point x="276" y="429"/>
      <point x="283" y="438" type="curve"/>
      <point x="311" y="426" type="line"/>
      <point x="311" y="443"/>
      <point x="311" y="448"/>
      <point x="310" y="460" type="curve"/>
    </contour>
    <contour>
      <point x="263" y="482" type="line" smooth="yes"/>
      <point x="251" y="488"/>
      <point x="247" y="496"/>
      <point x="248" y="502" type="curve" smooth="yes"/>
      <point x="247" y="508"/>
      <point x="252" y="515"/>
      <point x="261" y="518" type="curve" smooth="yes"/>
      <point x="268" y="519"/>
      <point x="275" y="518"/>
      <point x="281" y="511" type="curve" smooth="yes"/>
      <point x="288" y="504"/>
      <point x="287" y="487"/>
      <point x="279" y="474" type="curve"/>
    </contour>
    <contour>
      <point x="288" y="297"/>
      <point x="261" y="348"/>
      <point x="206" y="348" type="curve" smooth="yes"/>
      <point x="176" y="348"/>
      <point x="149" y="326"/>
      <point x="129" y="295" type="curve" smooth="yes"/>
      <point x="109" y="264"/>
      <point x="96" y="222"/>
      <point x="96" y="186" type="curve" smooth="yes"/>
      <point x="95" y="154"/>
      <point x="99" y="116"/>
      <point x="125" y="92" type="curve" smooth="yes"/>
      <point x="141" y="76"/>
      <point x="166" y="66"/>
      <point x="204" y="66" type="curve" smooth="yes"/>
      <point x="236" y="66"/>
      <point x="252" y="80"/>
      <point x="261" y="88" type="curve"/>
      <point x="260" y="59"/>
      <point x="250" y="28"/>
      <point x="234" y="2" type="curve" smooth="yes"/>
      <point x="212" y="-44"/>
      <point x="168" y="-80"/>
      <point x="123" y="-106" type="curve" smooth="yes"/>
      <point x="61" y="-144"/>
      <point x="-4" y="-176"/>
      <point x="-20" y="-184" type="curve"/>
      <point x="3" y="-217" type="line"/>
      <point x="23" y="-211"/>
      <point x="55" y="-207"/>
      <point x="77" y="-207" type="curve" smooth="yes"/>
      <point x="93" y="-207"/>
      <point x="113" y="-210"/>
      <point x="131" y="-210" type="curve" smooth="yes"/>
      <point x="168" y="-210"/>
      <point x="193" y="-203"/>
      <point x="218" y="-186" type="curve" smooth="yes"/>
      <point x="240" y="-171"/>
      <point x="264" y="-146"/>
      <point x="281" y="-111" type="curve" smooth="yes"/>
      <point x="295" y="-82"/>
      <point x="305" y="-51"/>
      <point x="312" y="-15" type="curve" smooth="yes"/>
      <point x="320" y="25"/>
      <point x="322" y="66"/>
      <point x="322" y="106" type="curve" smooth="yes"/>
      <point x="321" y="153"/>
      <point x="315" y="208"/>
      <point x="302" y="251" type="curve" smooth="yes"/>
    </contour>
    <contour>
      <point x="250" y="207"/>
      <point x="254" y="185"/>
      <point x="254" y="185" type="curve"/>
      <point x="249" y="182"/>
      <point x="232" y="167"/>
      <point x="203" y="167" type="curve" smooth="yes"/>
      <point x="154" y="167"/>
      <point x="141" y="183"/>
      <point x="141" y="209" type="curve" smooth="yes"/>
      <point x="141" y="231"/>
      <point x="158" y="257"/>
      <point x="192" y="257" type="curve" smooth="yes"/>
      <point x="212" y="257"/>
      <point x="228" y="243"/>
      <point x="237" y="228" type="curve" smooth="yes"/>
    </contour>
    <contour>
      <point x="91" y="-4" type="move" name="center"/>
    </contour>
    <contour>
      <point x="104" y="-243" type="move" name="bottom"/>
    </contour>
    <contour>
      <point x="176" y="569" type="move" name="top"/>
    </contour>
  </outline>
</glyph>
<glyph name="yehTail-ar" format="1">
  <advance width="672"/>
  <unicode hex="06CD"/>
  <outline>
    <contour>
      <point x="66" y="130"/>
      <point x="29" y="111"/>
      <point x="-17" y="99" type="curve"/>
      <point x="23" y="46" type="line"/>
      <point x="109" y="85" type="line"/>
      <point x="100" y="150" type="line"/>
    </contour>
    <component base="alefMaksura-ar"/>
  </outline>
</glyph>
<glyph name="meemabove-ar" format="1">
  <advance width="0"/>
  <unicode hex="06D8"/>
  <outline>
    <contour>
      <point x="70" y="801"/>
      <point x="64" y="807"/>
      <point x="60" y="810" type="curve" smooth="yes"/>
      <point x="50" y="816"/>
      <point x="44" y="815"/>
      <point x="37" y="815" type="curve" smooth="yes"/>
      <point x="35" y="811"/>
      <point x="37" y="801"/>
      <point x="43" y="799" type="curve"/>
      <point x="55" y="793"/>
      <point x="64" y="794"/>
      <point x="72" y="794" type="curve"/>
    </contour>
    <contour>
      <point x="49" y="755"/>
      <point x="33" y="759"/>
      <point x="15" y="770" type="curve"/>
      <point x="7" y="742"/>
      <point x="-7" y="722"/>
      <point x="-22" y="711" type="curve" smooth="yes"/>
      <point x="-31" y="706"/>
      <point x="-37" y="703"/>
      <point x="-49" y="703" type="curve" smooth="yes"/>
      <point x="-57" y="703"/>
      <point x="-61" y="704"/>
      <point x="-69" y="704" type="curve" smooth="yes"/>
      <point x="-76" y="704"/>
      <point x="-85" y="703"/>
      <point x="-94" y="700" type="curve"/>
      <point x="-101" y="712" type="line"/>
      <point x="-75" y="726"/>
      <point x="-67" y="731"/>
      <point x="-52" y="739" type="curve" smooth="yes"/>
      <point x="-14" y="760"/>
      <point x="-3" y="781"/>
      <point x="10" y="817" type="curve"/>
      <point x="15" y="813" type="line"/>
      <point x="18" y="821"/>
      <point x="22" y="828"/>
      <point x="26" y="833" type="curve"/>
      <point x="34" y="843"/>
      <point x="44" y="849"/>
      <point x="55" y="849" type="curve" smooth="yes"/>
      <point x="64" y="849"/>
      <point x="72" y="845"/>
      <point x="78" y="838" type="curve" smooth="yes"/>
      <point x="83" y="831"/>
      <point x="87" y="822"/>
      <point x="88" y="812" type="curve" smooth="yes"/>
      <point x="91" y="799"/>
      <point x="90" y="786"/>
      <point x="87" y="776" type="curve"/>
      <point x="74" y="752" type="line"/>
    </contour>
    <contour>
      <point x="-6" y="852" type="move" name="top"/>
    </contour>
    <contour>
      <point x="-6" y="676" type="move" name="_top"/>
    </contour>
  </outline>
</glyph>
<glyph name="asteriskArt-ar" format="1">
  <advance width="639"/>
  <unicode hex="06DE"/>
  <outline>
    <contour>
      <point x="564" y="286"/>
      <point x="551" y="294"/>
      <point x="511" y="299" type="curve"/>
      <point x="504" y="341"/>
      <point x="486" y="374"/>
      <point x="461" y="399" type="curve" smooth="yes"/>
      <point x="429" y="431"/>
      <point x="388" y="446"/>
      <point x="363" y="452" type="curve"/>
      <point x="358" y="491"/>
      <point x="350" y="509"/>
      <point x="324" y="533" type="curve" smooth="yes"/>
      <point x="301" y="510"/>
      <point x="291" y="495"/>
      <point x="285" y="452" type="curve"/>
      <point x="264" y="447"/>
      <point x="222" y="435"/>
      <point x="192" y="402" type="curve" smooth="yes"/>
      <point x="165" y="377"/>
      <point x="146" y="342"/>
      <point x="138" y="299" type="curve"/>
      <point x="104" y="295"/>
      <point x="85" y="287"/>
      <point x="63" y="267" type="curve" smooth="yes"/>
      <point x="81" y="250"/>
      <point x="101" y="239"/>
      <point x="138" y="233" type="curve"/>
      <point x="144" y="199"/>
      <point x="157" y="170"/>
      <point x="176" y="147" type="curve" smooth="yes"/>
      <point x="209" y="105"/>
      <point x="256" y="88"/>
      <point x="285" y="81" type="curve"/>
      <point x="290" y="42"/>
      <point x="299" y="25"/>
      <point x="324" y="0" type="curve" smooth="yes"/>
      <point x="346" y="20"/>
      <point x="357" y="40"/>
      <point x="363" y="81" type="curve"/>
      <point x="389" y="88"/>
      <point x="423" y="102"/>
      <point x="452" y="127" type="curve" smooth="yes"/>
      <point x="480" y="151"/>
      <point x="503" y="186"/>
      <point x="511" y="233" type="curve"/>
      <point x="544" y="238"/>
      <point x="563" y="246"/>
      <point x="585" y="267" type="curve" smooth="yes"/>
    </contour>
    <contour>
      <point x="425" y="242"/>
      <point x="451" y="207"/>
      <point x="455" y="156" type="curve"/>
      <point x="391" y="157"/>
      <point x="359" y="178"/>
      <point x="324" y="234" type="curve"/>
      <point x="294" y="181"/>
      <point x="255" y="155"/>
      <point x="194" y="156" type="curve" smooth="yes"/>
      <point x="202" y="207"/>
      <point x="220" y="241"/>
      <point x="275" y="267" type="curve"/>
      <point x="224" y="292"/>
      <point x="197" y="324"/>
      <point x="194" y="377" type="curve" smooth="yes"/>
      <point x="259" y="377"/>
      <point x="290" y="356"/>
      <point x="324" y="299" type="curve"/>
      <point x="357" y="352"/>
      <point x="389" y="376"/>
      <point x="455" y="377" type="curve" smooth="yes"/>
      <point x="450" y="326"/>
      <point x="432" y="296"/>
      <point x="373" y="267" type="curve"/>
    </contour>
  </outline>
</glyph>
<glyph name="sukunround-ar" format="1">
  <advance width="0"/>
  <unicode hex="06DF"/>
  <outline>
    <contour>
      <point x="-28" y="824"/>
      <point x="-47" y="786"/>
      <point x="-47" y="753" type="curve" smooth="yes"/>
      <point x="-47" y="740"/>
      <point x="-39" y="706"/>
      <point x="-1" y="706" type="curve" smooth="yes"/>
      <point x="20" y="706"/>
      <point x="35" y="714"/>
      <point x="42" y="726" type="curve" smooth="yes"/>
      <point x="49" y="738"/>
      <point x="49" y="751"/>
      <point x="49" y="760" type="curve" smooth="yes"/>
      <point x="49" y="790"/>
      <point x="35" y="824"/>
      <point x="-1" y="824" type="curve"/>
    </contour>
    <contour>
      <point x="14" y="783"/>
      <point x="32" y="771"/>
      <point x="32" y="758" type="curve" smooth="yes"/>
      <point x="32" y="744"/>
      <point x="16" y="744"/>
      <point x="11" y="744" type="curve" smooth="yes"/>
      <point x="-11" y="744"/>
      <point x="-28" y="755"/>
      <point x="-28" y="769" type="curve" smooth="yes"/>
      <point x="-28" y="779"/>
      <point x="-20" y="789"/>
      <point x="-16" y="795" type="curve"/>
    </contour>
    <contour>
      <point x="1" y="824" type="move" name="top"/>
    </contour>
    <contour>
      <point x="1" y="673" type="move" name="_top"/>
    </contour>
  </outline>
</glyph>
<glyph name="hahabove-ar" format="1">
  <advance width="0"/>
  <unicode hex="06E1"/>
  <outline>
    <contour>
      <point x="70" y="757"/>
      <point x="76" y="767"/>
      <point x="76" y="774" type="curve" smooth="yes"/>
      <point x="76" y="785"/>
      <point x="62" y="791"/>
      <point x="51" y="795" type="curve" smooth="yes"/>
      <point x="37" y="800"/>
      <point x="5" y="810"/>
      <point x="-17" y="810" type="curve" smooth="yes"/>
      <point x="-37" y="810"/>
      <point x="-51" y="795"/>
      <point x="-65" y="768" type="curve"/>
      <point x="-60" y="764"/>
      <point x="-54" y="761"/>
      <point x="-49" y="757" type="curve"/>
      <point x="-38" y="768"/>
      <point x="-28" y="776"/>
      <point x="-16" y="776" type="curve" smooth="yes"/>
      <point x="-5" y="776"/>
      <point x="15" y="770"/>
      <point x="29" y="765" type="curve"/>
      <point x="19" y="755"/>
      <point x="-7" y="741"/>
      <point x="-17" y="737" type="curve" smooth="yes"/>
      <point x="-27" y="733"/>
      <point x="-57" y="723"/>
      <point x="-80" y="717" type="curve"/>
      <point x="-76" y="710"/>
      <point x="-74" y="705"/>
      <point x="-68" y="698" type="curve"/>
      <point x="-59" y="701"/>
      <point x="-47" y="705"/>
      <point x="-34" y="705" type="curve" smooth="yes"/>
      <point x="-19" y="704"/>
      <point x="4" y="707"/>
      <point x="16" y="715" type="curve" smooth="yes"/>
      <point x="26" y="722"/>
      <point x="40" y="731"/>
      <point x="54" y="743" type="curve"/>
    </contour>
    <contour>
      <point x="-2" y="810" type="move" name="top"/>
    </contour>
    <contour>
      <point x="-2" y="668" type="move" name="_top"/>
    </contour>
  </outline>
</glyph>
<glyph name="maddalong-ar" format="1">
  <advance width="0"/>
  <unicode hex="06E4"/>
  <outline>
    <contour>
      <point x="85" y="755"/>
      <point x="58" y="742"/>
      <point x="33" y="742" type="curve" smooth="yes"/>
      <point x="13" y="742"/>
      <point x="-4" y="748"/>
      <point x="-18" y="751" type="curve" smooth="yes"/>
      <point x="-31" y="756"/>
      <point x="-42" y="758"/>
      <point x="-50" y="758" type="curve" smooth="yes"/>
      <point x="-80" y="758"/>
      <point x="-90" y="722"/>
      <point x="-93" y="710" type="curve"/>
      <point x="-90" y="706"/>
      <point x="-83" y="700"/>
      <point x="-80" y="699" type="curve"/>
      <point x="-78" y="703"/>
      <point x="-69" y="717"/>
      <point x="-54" y="717" type="curve" smooth="yes"/>
      <point x="-49" y="717"/>
      <point x="-43" y="716"/>
      <point x="-35" y="715" type="curve" smooth="yes"/>
      <point x="-25" y="712"/>
      <point x="-13" y="708"/>
      <point x="3" y="708" type="curve" smooth="yes"/>
      <point x="31" y="708"/>
      <point x="53" y="718"/>
      <point x="67" y="726" type="curve" smooth="yes"/>
      <point x="78" y="733"/>
      <point x="84" y="739"/>
      <point x="85" y="740" type="curve" smooth="yes"/>
      <point x="86" y="742"/>
      <point x="89" y="751"/>
      <point x="90" y="757" type="curve"/>
    </contour>
    <contour>
      <point x="-1" y="760" type="move" name="top"/>
    </contour>
    <contour>
      <point x="-1" y="679" type="move" name="_top"/>
    </contour>
  </outline>
</glyph>
<glyph name="yehbelow-ar" format="1">
  <advance width="0"/>
  <unicode hex="06E6"/>
  <outline>
    <contour>
      <point x="-4" y="-252"/>
      <point x="-2" y="-231"/>
      <point x="-10" y="-218" type="curve" smooth="yes"/>
      <point x="-15" y="-211"/>
      <point x="-22" y="-209"/>
      <point x="-26" y="-209" type="curve" smooth="yes"/>
      <point x="-36" y="-209"/>
      <point x="-42" y="-217"/>
      <point x="-49" y="-226" type="curve" smooth="yes"/>
      <point x="-59" y="-241"/>
      <point x="-62" y="-245"/>
      <point x="-91" y="-259" type="curve" smooth="yes"/>
      <point x="-103" y="-264"/>
      <point x="-117" y="-271"/>
      <point x="-128" y="-280" type="curve" smooth="yes"/>
      <point x="-140" y="-290"/>
      <point x="-148" y="-302"/>
      <point x="-148" y="-317" type="curve" smooth="yes"/>
      <point x="-148" y="-330"/>
      <point x="-143" y="-340"/>
      <point x="-132" y="-347" type="curve" smooth="yes"/>
      <point x="-120" y="-355"/>
      <point x="-102" y="-358"/>
      <point x="-75" y="-358" type="curve" smooth="yes"/>
      <point x="120" y="-358" type="line"/>
      <point x="133" y="-344"/>
      <point x="140" y="-331"/>
      <point x="147" y="-316" type="curve"/>
      <point x="-74" y="-316" type="line" smooth="yes"/>
      <point x="-107" y="-316"/>
      <point x="-116" y="-313"/>
      <point x="-116" y="-304" type="curve" smooth="yes"/>
      <point x="-116" y="-299"/>
      <point x="-113" y="-296"/>
      <point x="-108" y="-294" type="curve"/>
      <point x="-74" y="-281"/>
      <point x="-68" y="-273"/>
      <point x="-54" y="-258" type="curve" smooth="yes"/>
      <point x="-50" y="-255"/>
      <point x="-41" y="-241"/>
      <point x="-31" y="-241" type="curve" smooth="yes"/>
      <point x="-18" y="-241"/>
      <point x="-18" y="-259"/>
      <point x="-22" y="-277" type="curve"/>
      <point x="-7" y="-273" type="line"/>
    </contour>
    <contour>
      <point x="0" y="-189" type="move" name="_bottom"/>
    </contour>
    <contour>
      <point x="0" y="-358" type="move" name="bottom"/>
    </contour>
  </outline>
</glyph>
<glyph name="yehabove-ar" format="1">
  <advance width="0"/>
  <unicode hex="06E7"/>
  <outline>
    <contour>
      <point x="-3" y="807"/>
      <point x="-1" y="828"/>
      <point x="-9" y="842" type="curve" smooth="yes"/>
      <point x="-14" y="848"/>
      <point x="-21" y="851"/>
      <point x="-25" y="851" type="curve" smooth="yes"/>
      <point x="-35" y="851"/>
      <point x="-41" y="843"/>
      <point x="-48" y="833" type="curve" smooth="yes"/>
      <point x="-58" y="819"/>
      <point x="-61" y="814"/>
      <point x="-90" y="801" type="curve" smooth="yes"/>
      <point x="-102" y="795"/>
      <point x="-116" y="788"/>
      <point x="-127" y="779" type="curve" smooth="yes"/>
      <point x="-139" y="769"/>
      <point x="-147" y="757"/>
      <point x="-147" y="742" type="curve" smooth="yes"/>
      <point x="-147" y="729"/>
      <point x="-142" y="719"/>
      <point x="-131" y="712" type="curve" smooth="yes"/>
      <point x="-119" y="705"/>
      <point x="-101" y="701"/>
      <point x="-74" y="701" type="curve" smooth="yes"/>
      <point x="121" y="701" type="line"/>
      <point x="134" y="716"/>
      <point x="141" y="728"/>
      <point x="148" y="743" type="curve"/>
      <point x="-73" y="743" type="line" smooth="yes"/>
      <point x="-106" y="743"/>
      <point x="-115" y="747"/>
      <point x="-115" y="755" type="curve" smooth="yes"/>
      <point x="-115" y="760"/>
      <point x="-112" y="763"/>
      <point x="-107" y="766" type="curve"/>
      <point x="-73" y="778"/>
      <point x="-67" y="786"/>
      <point x="-53" y="801" type="curve" smooth="yes"/>
      <point x="-49" y="804"/>
      <point x="-40" y="818"/>
      <point x="-30" y="818" type="curve" smooth="yes"/>
      <point x="-17" y="818"/>
      <point x="-17" y="800"/>
      <point x="-21" y="782" type="curve"/>
      <point x="-6" y="786" type="line"/>
    </contour>
    <contour>
      <point x="1" y="851" type="move" name="top"/>
    </contour>
    <contour>
      <point x="1" y="678" type="move" name="_top"/>
    </contour>
  </outline>
</glyph>
<glyph name="noonabove-ar" format="1">
  <advance width="0"/>
  <unicode hex="06E8"/>
  <outline>
    <contour>
      <point x="-80" y="761"/>
      <point x="-79" y="749"/>
      <point x="-75" y="740" type="curve" smooth="yes"/>
      <point x="-69" y="726"/>
      <point x="-59" y="716"/>
      <point x="-46" y="709" type="curve" smooth="yes"/>
      <point x="-34" y="704"/>
      <point x="-19" y="701"/>
      <point x="-1" y="701" type="curve" smooth="yes"/>
      <point x="12" y="701"/>
      <point x="24" y="702"/>
      <point x="34" y="706" type="curve"/>
      <point x="46" y="709"/>
      <point x="55" y="715"/>
      <point x="63" y="723" type="curve"/>
      <point x="73" y="732"/>
      <point x="87" y="751"/>
      <point x="87" y="787" type="curve" smooth="yes"/>
      <point x="87" y="805"/>
      <point x="83" y="822"/>
      <point x="77" y="838" type="curve"/>
      <point x="70" y="855"/>
      <point x="60" y="863"/>
      <point x="59" y="865" type="curve"/>
      <point x="51" y="856"/>
      <point x="43" y="845"/>
      <point x="37" y="834" type="curve"/>
      <point x="48" y="819"/>
      <point x="67" y="794"/>
      <point x="67" y="781" type="curve" smooth="yes"/>
      <point x="67" y="773"/>
      <point x="61" y="765"/>
      <point x="49" y="759" type="curve" smooth="yes"/>
      <point x="36" y="753"/>
      <point x="21" y="748"/>
      <point x="2" y="748" type="curve" smooth="yes"/>
      <point x="-23" y="748"/>
      <point x="-41" y="754"/>
      <point x="-51" y="767" type="curve" smooth="yes"/>
      <point x="-59" y="777"/>
      <point x="-59" y="794"/>
      <point x="-56" y="812" type="curve"/>
      <point x="-67" y="816" type="line"/>
      <point x="-74" y="803"/>
      <point x="-79" y="785"/>
      <point x="-80" y="772" type="curve"/>
    </contour>
    <contour>
      <point x="-18" y="805"/>
      <point x="-9" y="795"/>
      <point x="-2" y="787" type="curve"/>
      <point x="6" y="795"/>
      <point x="17" y="806"/>
      <point x="21" y="811" type="curve"/>
      <point x="17" y="820"/>
      <point x="6" y="830"/>
      <point x="-4" y="837" type="curve"/>
      <point x="-9" y="831"/>
      <point x="-21" y="819"/>
      <point x="-28" y="812" type="curve"/>
    </contour>
    <contour>
      <point x="4" y="865" type="move" name="top"/>
    </contour>
    <contour>
      <point x="4" y="677" type="move" name="_top"/>
    </contour>
  </outline>
</glyph>
<glyph name="rhombusStopabove-ar" format="1">
  <advance width="0"/>
  <unicode hex="06EB"/>
  <outline>
    <contour>
      <point x="81" y="780" type="line"/>
      <point x="1" y="859" type="line"/>
      <point x="-79" y="780" type="line"/>
      <point x="1" y="700" type="line"/>
    </contour>
    <contour>
      <point x="1" y="824" type="line"/>
      <point x="45" y="780" type="line"/>
      <point x="1" y="736" type="line"/>
      <point x="-43" y="780" type="line"/>
    </contour>
    <contour>
      <point x="1" y="859" type="move" name="top"/>
    </contour>
    <contour>
      <point x="1" y="680" type="move" name="_top"/>
    </contour>
  </outline>
</glyph>
<glyph name="dotStopabove-ar" format="1">
  <advance width="0"/>
  <unicode hex="06EC"/>
  <outline>
    <contour>
      <point x="28" y="700"/>
      <point x="47" y="720"/>
      <point x="47" y="745" type="curve" smooth="yes"/>
      <point x="47" y="770"/>
      <point x="28" y="789"/>
      <point x="2" y="789" type="curve" smooth="yes"/>
      <point x="-23" y="789"/>
      <point x="-42" y="770"/>
      <point x="-42" y="745" type="curve" smooth="yes"/>
      <point x="-42" y="720"/>
      <point x="-23" y="700"/>
      <point x="2" y="700" type="curve" smooth="yes"/>
    </contour>
    <contour>
      <point x="2" y="789" type="move" name="top"/>
    </contour>
    <contour>
      <point x="2" y="680" type="move" name="_top"/>
    </contour>
  </outline>
</glyph>
<glyph name="four-persian" format="1">
  <advance width="414"/>
  <unicode hex="06F4"/>
  <outline>
    <contour>
      <point x="342" y="418"/>
      <point x="326" y="412"/>
      <point x="295" y="414" type="curve" smooth="yes"/>
      <point x="263" y="417"/>
      <point x="237" y="427"/>
      <point x="206" y="453" type="curve"/>
      <point x="225" y="480"/>
      <point x="246" y="498"/>
      <point x="278" y="499" type="curve" smooth="yes"/>
      <point x="301" y="500"/>
      <point x="320" y="495"/>
      <point x="339" y="483" type="curve"/>
      <point x="350" y="514" type="line"/>
      <point x="331" y="539"/>
      <point x="307" y="561"/>
      <point x="262" y="561" type="curve" smooth="yes"/>
      <point x="198" y="561"/>
      <point x="167" y="514"/>
      <point x="157" y="486" type="curve"/>
      <point x="140" y="511"/>
      <point x="124" y="536"/>
      <point x="111" y="561" type="curve"/>
      <point x="81" y="525"/>
      <point x="65" y="500"/>
      <point x="47" y="462" type="curve"/>
      <point x="79" y="407"/>
      <point x="103" y="345"/>
      <point x="119" y="278" type="curve" smooth="yes"/>
      <point x="140" y="188"/>
      <point x="148" y="100"/>
      <point x="142" y="0" type="curve"/>
      <point x="188" y="0" type="line"/>
      <point x="205" y="75"/>
      <point x="213" y="141"/>
      <point x="217" y="204" type="curve" smooth="yes"/>
      <point x="220" y="272"/>
      <point x="206" y="335"/>
      <point x="202" y="354" type="curve"/>
      <point x="216" y="347"/>
      <point x="239" y="337"/>
      <point x="270" y="337" type="curve" smooth="yes"/>
      <point x="324" y="337"/>
      <point x="366" y="381"/>
      <point x="378" y="407" type="curve"/>
      <point x="364" y="428" type="line"/>
    </contour>
  </outline>
</glyph>
<glyph name="five-persian" format="1">
  <advance width="478"/>
  <unicode hex="06F5"/>
  <outline>
    <contour>
      <point x="440" y="174"/>
      <point x="421" y="229"/>
      <point x="393" y="285" type="curve" smooth="yes"/>
      <point x="338" y="412"/>
      <point x="233" y="541"/>
      <point x="216" y="561" type="curve"/>
      <point x="193" y="526"/>
      <point x="180" y="495"/>
      <point x="166" y="455" type="curve"/>
      <point x="186" y="430" type="line"/>
      <point x="160" y="390"/>
      <point x="100" y="286"/>
      <point x="66" y="203" type="curve" smooth="yes"/>
      <point x="49" y="163"/>
      <point x="33" y="87"/>
      <point x="68" y="40" type="curve" smooth="yes"/>
      <point x="86" y="15"/>
      <point x="114" y="0"/>
      <point x="149" y="0" type="curve" smooth="yes"/>
      <point x="205" y="0"/>
      <point x="232" y="27"/>
      <point x="240" y="45" type="curve"/>
      <point x="258" y="18"/>
      <point x="290" y="0"/>
      <point x="330" y="0" type="curve" smooth="yes"/>
      <point x="359" y="0"/>
      <point x="386" y="11"/>
      <point x="405" y="30" type="curve" smooth="yes"/>
      <point x="433" y="60"/>
      <point x="443" y="98"/>
      <point x="441" y="134" type="curve" smooth="yes"/>
    </contour>
    <contour>
      <point x="370" y="158"/>
      <point x="371" y="140"/>
      <point x="361" y="125" type="curve" smooth="yes"/>
      <point x="352" y="113"/>
      <point x="336" y="105"/>
      <point x="310" y="105" type="curve" smooth="yes"/>
      <point x="268" y="105"/>
      <point x="261" y="146"/>
      <point x="261" y="183" type="curve"/>
      <point x="221" y="167" type="line"/>
      <point x="219" y="141"/>
      <point x="213" y="106"/>
      <point x="170" y="105" type="curve" smooth="yes"/>
      <point x="147" y="104"/>
      <point x="134" y="114"/>
      <point x="128" y="124" type="curve" smooth="yes"/>
      <point x="116" y="143"/>
      <point x="121" y="175"/>
      <point x="141" y="216" type="curve" smooth="yes"/>
      <point x="152" y="240"/>
      <point x="192" y="306"/>
      <point x="232" y="367" type="curve"/>
      <point x="244" y="351"/>
      <point x="280" y="304"/>
      <point x="309" y="263" type="curve" smooth="yes"/>
      <point x="338" y="224"/>
      <point x="360" y="186"/>
      <point x="366" y="169" type="curve" smooth="yes"/>
    </contour>
  </outline>
</glyph>
<glyph name="dalVinvertedbelow-ar" format="1">
  <advance width="440"/>
  <unicode hex="075A"/>
  <outline>
    <component base="dal-ar"/>
    <component base="circumflex.below" xOffset="193" yOffset="141"/>
    <contour>
      <point x="213" y="-266" type="move" name="bottom"/>
    </contour>
  </outline>
</glyph>
<glyph name="behVbelow-ar" format="1">
  <advance width="850"/>
  <unicode hex="08A0"/>
  <outline>
    <component base="dotlessbeh-ar"/>
    <component base="vbelow-ar" xOffset="409" yOffset="140"/>
    <contour>
      <point x="409" y="-277" type="move" name="bottom"/>
    </contour>
  </outline>
</glyph>
<glyph name="fathaCurly-ar" format="1">
  <advance width="0"/>
  <unicode hex="08E4"/>
  <outline>
    <contour>
      <point x="12" y="866" type="line"/>
      <point x="17" y="860"/>
      <point x="23" y="854"/>
      <point x="24" y="849" type="curve" smooth="yes"/>
      <point x="24" y="846"/>
      <point x="27" y="832"/>
      <point x="-4" y="814" type="curve" smooth="yes"/>
      <point x="-16" y="806"/>
      <point x="-34" y="798"/>
      <point x="-43" y="784" type="curve" smooth="yes"/>
      <point x="-52" y="773"/>
      <point x="-55" y="760"/>
      <point x="-55" y="748" type="curve" smooth="yes"/>
      <point x="-53" y="730"/>
      <point x="-46" y="719"/>
      <point x="-18" y="700" type="curve"/>
      <point x="-12" y="716" type="line"/>
      <point x="-17" y="721"/>
      <point x="-23" y="726"/>
      <point x="-24" y="733" type="curve" smooth="yes"/>
      <point x="-27" y="745"/>
      <point x="-13" y="758"/>
      <point x="1" y="767" type="curve" smooth="yes"/>
      <point x="12" y="774"/>
      <point x="34" y="785"/>
      <point x="43" y="796" type="curve" smooth="yes"/>
      <point x="50" y="807"/>
      <point x="54" y="819"/>
      <point x="54" y="832" type="curve" smooth="yes"/>
      <point x="54" y="852"/>
      <point x="48" y="860"/>
      <point x="19" y="882" type="curve"/>
    </contour>
    <contour>
      <point x="1" y="882" type="move" name="top"/>
    </contour>
    <contour>
      <point x="1" y="680" type="move" name="_top"/>
    </contour>
  </outline>
</glyph>
<glyph name="kasraCurly-ar" format="1">
  <advance width="0"/>
  <unicode hex="08E6"/>
  <outline>
    <contour>
      <point x="14" y="-220" type="line"/>
      <point x="19" y="-225"/>
      <point x="25" y="-231"/>
      <point x="26" y="-235" type="curve" smooth="yes"/>
      <point x="26" y="-240"/>
      <point x="29" y="-253"/>
      <point x="-2" y="-271" type="curve" smooth="yes"/>
      <point x="-14" y="-279"/>
      <point x="-32" y="-287"/>
      <point x="-41" y="-301" type="curve" smooth="yes"/>
      <point x="-50" y="-312"/>
      <point x="-53" y="-325"/>
      <point x="-53" y="-337" type="curve" smooth="yes"/>
      <point x="-51" y="-356"/>
      <point x="-44" y="-366"/>
      <point x="-16" y="-385" type="curve"/>
      <point x="-10" y="-369" type="line"/>
      <point x="-15" y="-364"/>
      <point x="-21" y="-358"/>
      <point x="-22" y="-352" type="curve" smooth="yes"/>
      <point x="-25" y="-340"/>
      <point x="-11" y="-326"/>
      <point x="3" y="-318" type="curve" smooth="yes"/>
      <point x="14" y="-312"/>
      <point x="36" y="-301"/>
      <point x="45" y="-288" type="curve" smooth="yes"/>
      <point x="52" y="-279"/>
      <point x="56" y="-266"/>
      <point x="56" y="-253" type="curve" smooth="yes"/>
      <point x="56" y="-233"/>
      <point x="50" y="-224"/>
      <point x="21" y="-203" type="curve"/>
    </contour>
  </outline>
</glyph>
<glyph name="dammatanCurly-ar" format="1">
  <advance width="0"/>
  <unicode hex="08E8"/>
  <outline>
    <contour>
      <point x="75" y="762" type="line"/>
      <point x="88" y="789"/>
      <point x="94" y="821"/>
      <point x="72" y="831" type="curve" smooth="yes"/>
      <point x="56" y="840"/>
      <point x="35" y="833"/>
      <point x="17" y="810" type="curve" smooth="yes"/>
      <point x="7" y="797"/>
      <point x="4" y="785"/>
      <point x="6" y="775" type="curve" smooth="yes"/>
      <point x="10" y="761"/>
      <point x="22" y="752"/>
      <point x="36" y="745" type="curve"/>
      <point x="15" y="728"/>
      <point x="-13" y="731"/>
      <point x="-21" y="750" type="curve"/>
      <point x="-41" y="720" type="line"/>
      <point x="-30" y="706"/>
      <point x="-15" y="701"/>
      <point x="-1" y="701" type="curve" smooth="yes"/>
      <point x="15" y="701"/>
      <point x="29" y="706"/>
      <point x="37" y="713" type="curve" smooth="yes"/>
      <point x="49" y="721"/>
      <point x="55" y="729"/>
      <point x="60" y="736" type="curve"/>
      <point x="86" y="726" type="line"/>
      <point x="87" y="741"/>
      <point x="87" y="746"/>
      <point x="85" y="756" type="curve"/>
    </contour>
    <contour>
      <point x="43" y="776" type="line" smooth="yes"/>
      <point x="31" y="782"/>
      <point x="28" y="789"/>
      <point x="28" y="794" type="curve" smooth="yes"/>
      <point x="28" y="800"/>
      <point x="32" y="807"/>
      <point x="40" y="809" type="curve" smooth="yes"/>
      <point x="47" y="810"/>
      <point x="53" y="809"/>
      <point x="59" y="803" type="curve" smooth="yes"/>
      <point x="65" y="797"/>
      <point x="64" y="782"/>
      <point x="56" y="769" type="curve"/>
    </contour>
    <contour>
      <point x="-79" y="836" type="line"/>
      <point x="-92" y="809"/>
      <point x="-97" y="777"/>
      <point x="-75" y="767" type="curve" smooth="yes"/>
      <point x="-59" y="758"/>
      <point x="-39" y="765"/>
      <point x="-21" y="788" type="curve" smooth="yes"/>
      <point x="-11" y="800"/>
      <point x="-7" y="812"/>
      <point x="-10" y="823" type="curve" smooth="yes"/>
      <point x="-14" y="837"/>
      <point x="-25" y="846"/>
      <point x="-39" y="852" type="curve"/>
      <point x="-19" y="870"/>
      <point x="9" y="867"/>
      <point x="17" y="848" type="curve"/>
      <point x="37" y="878" type="line"/>
      <point x="26" y="892"/>
      <point x="12" y="897"/>
      <point x="-3" y="897" type="curve" smooth="yes"/>
      <point x="-18" y="896"/>
      <point x="-33" y="891"/>
      <point x="-40" y="885" type="curve" smooth="yes"/>
      <point x="-52" y="877"/>
      <point x="-59" y="869"/>
      <point x="-64" y="861" type="curve"/>
      <point x="-89" y="871" type="line"/>
      <point x="-91" y="857"/>
      <point x="-90" y="852"/>
      <point x="-88" y="841" type="curve"/>
    </contour>
    <contour>
      <point x="-46" y="821" type="line" smooth="yes"/>
      <point x="-35" y="816"/>
      <point x="-32" y="808"/>
      <point x="-32" y="804" type="curve" smooth="yes"/>
      <point x="-32" y="797"/>
      <point x="-36" y="791"/>
      <point x="-44" y="789" type="curve" smooth="yes"/>
      <point x="-51" y="788"/>
      <point x="-57" y="789"/>
      <point x="-62" y="795" type="curve" smooth="yes"/>
      <point x="-69" y="801"/>
      <point x="-68" y="816"/>
      <point x="-60" y="828" type="curve"/>
    </contour>
    <contour>
      <point x="1" y="899" type="move" name="top"/>
    </contour>
    <contour>
      <point x="2" y="679" type="move" name="_top"/>
    </contour>
  </outline>
</glyph>
<glyph name="openfathatan-ar" format="1">
  <advance width="0"/>
  <unicode hex="08F0"/>
  <outline>
    <contour>
      <point x="11" y="794"/>
      <point x="-72" y="762"/>
      <point x="-114" y="739" type="curve"/>
      <point x="-118" y="730"/>
      <point x="-122" y="715"/>
      <point x="-125" y="702" type="curve"/>
      <point x="-98" y="713"/>
      <point x="1" y="756"/>
      <point x="45" y="770" type="curve"/>
      <point x="51" y="784"/>
      <point x="53" y="792"/>
      <point x="56" y="806" type="curve"/>
    </contour>
    <contour>
      <point x="82" y="898"/>
      <point x="-1" y="866"/>
      <point x="-43" y="843" type="curve"/>
      <point x="-47" y="834"/>
      <point x="-52" y="819"/>
      <point x="-54" y="806" type="curve"/>
      <point x="-28" y="817"/>
      <point x="71" y="860"/>
      <point x="116" y="874" type="curve"/>
      <point x="122" y="888"/>
      <point x="124" y="896"/>
      <point x="126" y="910" type="curve"/>
    </contour>
    <contour>
      <point x="1" y="910" type="move" name="top"/>
    </contour>
    <contour>
      <point x="1" y="680" type="move" name="_top"/>
    </contour>
  </outline>
</glyph>
<glyph name="highwaw-ar" format="1">
  <advance width="0"/>
  <unicode hex="08F3"/>
  <outline>
    <contour>
      <point x="39" y="836"/>
      <point x="38" y="842"/>
      <point x="33" y="848" type="curve" smooth="yes"/>
      <point x="30" y="853"/>
      <point x="25" y="859"/>
      <point x="18" y="859" type="curve" smooth="yes"/>
      <point x="6" y="859"/>
      <point x="1" y="850"/>
      <point x="1" y="841" type="curve" smooth="yes"/>
      <point x="1" y="833"/>
      <point x="5" y="827"/>
      <point x="21" y="827" type="curve" smooth="yes"/>
      <point x="30" y="827"/>
      <point x="35" y="830"/>
      <point x="39" y="834" type="curve"/>
    </contour>
    <contour>
      <point x="62" y="793"/>
      <point x="61" y="779"/>
      <point x="58" y="766" type="curve" smooth="yes"/>
      <point x="56" y="754"/>
      <point x="53" y="743"/>
      <point x="48" y="734" type="curve" smooth="yes"/>
      <point x="42" y="722"/>
      <point x="33" y="713"/>
      <point x="27" y="708" type="curve" smooth="yes"/>
      <point x="18" y="703"/>
      <point x="9" y="700"/>
      <point x="-3" y="700" type="curve" smooth="yes"/>
      <point x="-9" y="700"/>
      <point x="-16" y="701"/>
      <point x="-22" y="701" type="curve" smooth="yes"/>
      <point x="-29" y="701"/>
      <point x="-40" y="699"/>
      <point x="-47" y="698" type="curve"/>
      <point x="-54" y="709" type="line"/>
      <point x="-49" y="712"/>
      <point x="-27" y="722"/>
      <point x="-6" y="735" type="curve" smooth="yes"/>
      <point x="10" y="744"/>
      <point x="24" y="756"/>
      <point x="32" y="772" type="curve" smooth="yes"/>
      <point x="37" y="780"/>
      <point x="41" y="791"/>
      <point x="41" y="801" type="curve"/>
      <point x="38" y="798"/>
      <point x="33" y="793"/>
      <point x="21" y="793" type="curve" smooth="yes"/>
      <point x="8" y="793"/>
      <point x="0" y="797"/>
      <point x="-6" y="802" type="curve" smooth="yes"/>
      <point x="-14" y="811"/>
      <point x="-15" y="823"/>
      <point x="-15" y="834" type="curve" smooth="yes"/>
      <point x="-15" y="846"/>
      <point x="-11" y="860"/>
      <point x="-4" y="871" type="curve" smooth="yes"/>
      <point x="3" y="881"/>
      <point x="12" y="889"/>
      <point x="22" y="889" type="curve" smooth="yes"/>
      <point x="41" y="889"/>
      <point x="50" y="871"/>
      <point x="55" y="856" type="curve" smooth="yes"/>
      <point x="59" y="841"/>
      <point x="61" y="823"/>
      <point x="62" y="807" type="curve" smooth="yes"/>
    </contour>
    <contour>
      <point x="2" y="891" type="move" name="top"/>
    </contour>
    <contour>
      <point x="0" y="680" type="move" name="_top"/>
    </contour>
  </outline>
</glyph>
<glyph name="whiteRoundedCornersSquare" format="1">
  <advance width="416"/>
  <unicode hex="25A2"/>
  <outline>
    <contour>
      <point x="47" y="43"/>
      <point x="68" y="22"/>
      <point x="94" y="22" type="curve" smooth="yes"/>
      <point x="324" y="22" type="line" smooth="yes"/>
      <point x="349" y="22"/>
      <point x="370" y="43"/>
      <point x="370" y="68" type="curve" smooth="yes"/>
      <point x="370" y="299" type="line" smooth="yes"/>
      <point x="370" y="324"/>
      <point x="349" y="345"/>
      <point x="324" y="345" type="curve" smooth="yes"/>
      <point x="94" y="345" type="line" smooth="yes"/>
      <point x="68" y="345"/>
      <point x="47" y="324"/>
      <point x="47" y="299" type="curve" smooth="yes"/>
      <point x="47" y="68" type="line" smooth="yes"/>
    </contour>
    <contour>
      <point x="97" y="273" type="line" smooth="yes"/>
      <point x="97" y="285"/>
      <point x="107" y="295"/>
      <point x="119" y="295" type="curve" smooth="yes"/>
      <point x="298" y="295" type="line" smooth="yes"/>
      <point x="311" y="295"/>
      <point x="320" y="285"/>
      <point x="320" y="273" type="curve" smooth="yes"/>
      <point x="320" y="94" type="line" smooth="yes"/>
      <point x="320" y="82"/>
      <point x="311" y="72"/>
      <point x="298" y="72" type="curve" smooth="yes"/>
      <point x="119" y="72" type="line" smooth="yes"/>
      <point x="107" y="72"/>
      <point x="97" y="82"/>
      <point x="97" y="94" type="curve" smooth="yes"/>
    </contour>
  </outline>
</glyph>
<glyph name="whiteDiamond" format="1">
  <advance width="629"/>
  <unicode hex="25C7"/>
  <outline>
    <contour>
      <point x="583" y="66" type="line"/>
      <point x="314" y="334" type="line"/>
      <point x="47" y="66" type="line"/>
      <point x="315" y="-202" type="line"/>
    </contour>
    <contour>
      <point x="315" y="249" type="line"/>
      <point x="498" y="66" type="line"/>
      <point x="315" y="-117" type="line"/>
      <point x="132" y="66" type="line"/>
    </contour>
  </outline>
</glyph>
<glyph name="fisheye" format="1">
  <advance width="416"/>
  <unicode hex="25C9"/>
  <outline>
    <contour>
      <point x="370" y="250"/>
      <point x="297" y="323"/>
      <point x="208" y="323" type="curve" smooth="yes"/>
      <point x="119" y="323"/>
      <point x="47" y="250"/>
      <point x="47" y="161" type="curve" smooth="yes"/>
      <point x="47" y="72"/>
      <point x="119" y="0"/>
      <point x="208" y="0" type="curve" smooth="yes"/>
      <point x="297" y="0"/>
      <point x="370" y="72"/>
      <point x="370" y="161" type="curve" smooth="yes"/>
    </contour>
    <contour>
      <point x="97" y="223"/>
      <point x="146" y="273"/>
      <point x="208" y="273" type="curve" smooth="yes"/>
      <point x="270" y="273"/>
      <point x="320" y="223"/>
      <point x="320" y="161" type="curve" smooth="yes"/>
      <point x="320" y="100"/>
      <point x="270" y="50"/>
      <point x="208" y="50" type="curve" smooth="yes"/>
      <point x="146" y="50"/>
      <point x="97" y="100"/>
      <point x="97" y="161" type="curve" smooth="yes"/>
    </contour>
    <contour>
      <point x="283" y="203"/>
      <point x="250" y="237"/>
      <point x="207" y="237" type="curve" smooth="yes"/>
      <point x="166" y="237"/>
      <point x="132" y="203"/>
      <point x="132" y="161" type="curve" smooth="yes"/>
      <point x="132" y="120"/>
      <point x="166" y="86"/>
      <point x="207" y="86" type="curve" smooth="yes"/>
      <point x="250" y="86"/>
      <point x="283" y="120"/>
      <point x="283" y="161" type="curve" smooth="yes"/>
    </contour>
  </outline>
</glyph>
<glyph name="hehgoal-ar.fina" format="1">
  <advance width="448"/>
  <unicode hex="FBA7"/>
  <outline>
    <contour>
      <point x="400" y="125" type="line" smooth="yes"/>
      <point x="369" y="125"/>
      <point x="348" y="145"/>
      <point x="331" y="171" type="curve" smooth="yes"/>
      <point x="313" y="196"/>
      <point x="288" y="231"/>
      <point x="246" y="231" type="curve" smooth="yes"/>
      <point x="203" y="231"/>
      <point x="165" y="198"/>
      <point x="125" y="125" type="curve" smooth="yes"/>
      <point x="101" y="82"/>
      <point x="83" y="36"/>
      <point x="63" y="-26" type="curve"/>
      <point x="110" y="-12" type="line"/>
      <point x="118" y="5"/>
      <point x="133" y="38"/>
      <point x="148" y="63" type="curve" smooth="yes"/>
      <point x="176" y="112"/>
      <point x="203" y="133"/>
      <point x="229" y="133" type="curve" smooth="yes"/>
      <point x="256" y="133"/>
      <point x="270" y="110"/>
      <point x="285" y="83" type="curve" smooth="yes"/>
      <point x="295" y="63"/>
      <point x="305" y="45"/>
      <point x="320" y="30" type="curve" smooth="yes"/>
      <point x="339" y="11"/>
      <point x="363" y="0"/>
      <point x="398" y="0" type="curve" smooth="yes"/>
      <point x="448" y="0" type="line"/>
      <point x="448" y="125" type="line"/>
    </contour>
    <contour>
      <point x="199" y="261" type="move" name="top"/>
    </contour>
    <contour>
      <point x="154" y="-26" type="move" name="bottom"/>
    </contour>
  </outline>
</glyph>
<glyph name="hehgoal-ar.init" format="1">
  <advance width="237"/>
  <unicode hex="FBA8"/>
  <outline>
    <contour>
      <point x="184" y="264"/>
      <point x="130" y="321"/>
      <point x="119" y="333" type="curve"/>
      <point x="95" y="307"/>
      <point x="80" y="282"/>
      <point x="60" y="241" type="curve"/>
      <point x="85" y="214"/>
      <point x="104" y="194"/>
      <point x="126" y="170" type="curve"/>
      <point x="115" y="154"/>
      <point x="85" y="125"/>
      <point x="42" y="125" type="curve" smooth="yes"/>
      <point x="-13" y="125" type="line" smooth="yes"/>
      <point x="-46" y="125"/>
      <point x="-76" y="101"/>
      <point x="-76" y="63" type="curve" smooth="yes"/>
      <point x="-76" y="28"/>
      <point x="-49" y="0"/>
      <point x="-13" y="0" type="curve" smooth="yes"/>
      <point x="34" y="0" type="line" smooth="yes"/>
      <point x="85" y="0"/>
      <point x="124" y="21"/>
      <point x="150" y="62" type="curve" smooth="yes"/>
      <point x="173" y="97"/>
      <point x="184" y="133"/>
      <point x="184" y="176" type="curve" smooth="yes"/>
    </contour>
    <contour>
      <point x="111" y="-19" type="line"/>
      <point x="47" y="-45"/>
      <point x="-2" y="-79"/>
      <point x="-16" y="-136" type="curve" smooth="yes"/>
      <point x="-24" y="-173"/>
      <point x="-5" y="-201"/>
      <point x="23" y="-203" type="curve" smooth="yes"/>
      <point x="50" y="-205"/>
      <point x="63" y="-191"/>
      <point x="70" y="-165" type="curve"/>
      <point x="42" y="-161"/>
      <point x="29" y="-145"/>
      <point x="37" y="-117" type="curve" smooth="yes"/>
      <point x="47" y="-88"/>
      <point x="69" y="-69"/>
      <point x="111" y="-51" type="curve"/>
    </contour>
    <contour>
      <point x="5" y="311" type="move" name="top"/>
    </contour>
    <contour>
      <point x="23" y="-233" type="move" name="bottom"/>
    </contour>
  </outline>
</glyph>
<glyph name="hehDoachashmee-ar.medi" format="1">
  <advance width="500"/>
  <unicode hex="FBAD"/>
  <outline>
    <contour>
      <point x="436" y="125" type="line" smooth="yes"/>
      <point x="411" y="125"/>
      <point x="389" y="126"/>
      <point x="378" y="137" type="curve"/>
      <point x="379" y="182"/>
      <point x="360" y="219"/>
      <point x="340" y="244" type="curve" smooth="yes"/>
      <point x="317" y="277"/>
      <point x="286" y="301"/>
      <point x="246" y="325" type="curve" smooth="yes"/>
      <point x="227" y="337"/>
      <point x="206" y="348"/>
      <point x="186" y="358" type="curve" smooth="yes"/>
      <point x="158" y="372"/>
      <point x="148" y="377"/>
      <point x="128" y="390" type="curve"/>
      <point x="120" y="376"/>
      <point x="110" y="361"/>
      <point x="102" y="346" type="curve" smooth="yes"/>
      <point x="89" y="321"/>
      <point x="90" y="305"/>
      <point x="108" y="294" type="curve" smooth="yes"/>
      <point x="119" y="288" type="line"/>
      <point x="92" y="280"/>
      <point x="67" y="262"/>
      <point x="52" y="240" type="curve" smooth="yes"/>
      <point x="36" y="216"/>
      <point x="29" y="189"/>
      <point x="31" y="164" type="curve"/>
      <point x="31" y="151"/>
      <point x="34" y="139"/>
      <point x="39" y="125" type="curve"/>
      <point x="-13" y="125" type="line" smooth="yes"/>
      <point x="-48" y="125"/>
      <point x="-76" y="96"/>
      <point x="-76" y="62" type="curve" smooth="yes"/>
      <point x="-76" y="32"/>
      <point x="-56" y="0"/>
      <point x="-13" y="0" type="curve" smooth="yes"/>
      <point x="40" y="0" type="line" smooth="yes"/>
      <point x="97" y="0"/>
      <point x="139" y="14"/>
      <point x="166" y="45" type="curve"/>
      <point x="202" y="33"/>
      <point x="255" y="7"/>
      <point x="286" y="-10" type="curve"/>
      <point x="316" y="20" type="line"/>
      <point x="331" y="38"/>
      <point x="337" y="44"/>
      <point x="341" y="51" type="curve"/>
      <point x="344" y="43"/>
      <point x="350" y="32"/>
      <point x="363" y="22" type="curve" smooth="yes"/>
      <point x="380" y="9"/>
      <point x="407" y="0"/>
      <point x="445" y="0" type="curve" smooth="yes"/>
      <point x="500" y="0" type="line"/>
      <point x="500" y="125" type="line"/>
    </contour>
    <contour>
      <point x="193" y="213"/>
      <point x="198" y="196"/>
      <point x="198" y="191" type="curve" smooth="yes"/>
      <point x="198" y="186"/>
      <point x="193" y="172"/>
      <point x="178" y="160" type="curve"/>
      <point x="163" y="152"/>
      <point x="150" y="149"/>
      <point x="144" y="149" type="curve" smooth="yes"/>
      <point x="137" y="149"/>
      <point x="123" y="151"/>
      <point x="101" y="163" type="curve"/>
      <point x="86" y="171"/>
      <point x="76" y="182"/>
      <point x="74" y="189" type="curve"/>
      <point x="75" y="194"/>
      <point x="84" y="207"/>
      <point x="106" y="227" type="curve"/>
      <point x="131" y="248"/>
      <point x="146" y="254"/>
      <point x="155" y="254" type="curve" smooth="yes"/>
      <point x="167" y="254"/>
      <point x="177" y="242"/>
      <point x="183" y="229" type="curve"/>
    </contour>
    <contour>
      <point x="305" y="158"/>
      <point x="312" y="132"/>
      <point x="312" y="104" type="curve"/>
      <point x="282" y="112"/>
      <point x="242" y="122"/>
      <point x="215" y="129" type="curve"/>
      <point x="227" y="145"/>
      <point x="234" y="162"/>
      <point x="237" y="179" type="curve" smooth="yes"/>
      <point x="241" y="199"/>
      <point x="238" y="218"/>
      <point x="232" y="238" type="curve"/>
      <point x="258" y="220"/>
      <point x="278" y="201"/>
      <point x="291" y="180" type="curve" smooth="yes"/>
    </contour>
    <contour>
      <point x="128" y="420" type="move" name="top"/>
    </contour>
    <contour>
      <point x="161" y="-30" type="move" name="bottom"/>
    </contour>
  </outline>
</glyph>
<glyph name="yehbarree-ar.fina" format="1">
  <advance width="604"/>
  <unicode hex="FBAF"/>
  <outline>
    <contour>
      <point x="604" y="125" type="line"/>
      <point x="477" y="125" type="line" smooth="yes"/>
      <point x="432" y="125"/>
      <point x="397" y="115"/>
      <point x="370" y="100" type="curve" smooth="yes"/>
      <point x="345" y="86"/>
      <point x="330" y="72"/>
      <point x="319" y="60" type="curve" smooth="yes"/>
      <point x="299" y="41"/>
      <point x="265" y="23"/>
      <point x="226" y="5" type="curve" smooth="yes"/>
      <point x="193" y="-11"/>
      <point x="155" y="-30"/>
      <point x="124" y="-54" type="curve" smooth="yes"/>
      <point x="87" y="-84"/>
      <point x="63" y="-119"/>
      <point x="63" y="-166" type="curve" smooth="yes"/>
      <point x="63" y="-184"/>
      <point x="69" y="-218"/>
      <point x="108" y="-245" type="curve" smooth="yes"/>
      <point x="145" y="-271"/>
      <point x="201" y="-284"/>
      <point x="273" y="-284" type="curve" smooth="yes"/>
      <point x="580" y="-284" type="line"/>
      <point x="616" y="-240"/>
      <point x="638" y="-205"/>
      <point x="660" y="-159" type="curve"/>
      <point x="257" y="-159" type="line" smooth="yes"/>
      <point x="192" y="-159"/>
      <point x="156" y="-152"/>
      <point x="156" y="-125" type="curve" smooth="yes"/>
      <point x="156" y="-114"/>
      <point x="166" y="-103"/>
      <point x="179" y="-99" type="curve"/>
      <point x="201" y="-92"/>
      <point x="221" y="-82"/>
      <point x="235" y="-75" type="curve" smooth="yes"/>
      <point x="260" y="-62"/>
      <point x="292" y="-40"/>
      <point x="303" y="-30" type="curve" smooth="yes"/>
      <point x="311" y="-23"/>
      <point x="335" y="0"/>
      <point x="388" y="0" type="curve" smooth="yes"/>
      <point x="604" y="0" type="line" smooth="yes"/>
    </contour>
    <contour>
      <point x="247" y="118" type="move" name="top"/>
    </contour>
    <contour>
      <point x="273" y="-311" type="move" name="bottom"/>
    </contour>
  </outline>
</glyph>
<glyph name="dotbelow-ar" format="1">
  <advance width="0"/>
  <unicode hex="FBB3"/>
  <outline>
    <contour>
      <point x="-14" y="-175"/>
      <point x="-45" y="-208"/>
      <point x="-63" y="-223" type="curve"/>
      <point x="-37" y="-242"/>
      <point x="-15" y="-265"/>
      <point x="2" y="-286" type="curve"/>
      <point x="25" y="-268"/>
      <point x="52" y="-239"/>
      <point x="62" y="-226" type="curve"/>
      <point x="50" y="-204"/>
      <point x="25" y="-177"/>
      <point x="-2" y="-162" type="curve"/>
    </contour>
    <contour>
      <point x="0" y="-138" type="move" name="_bottom"/>
    </contour>
    <contour>
      <point x="0" y="-289" type="move" name="bottom"/>
    </contour>
  </outline>
</glyph>
<glyph name="twodotshorizontalabove-ar" format="1">
  <advance width="0"/>
  <unicode hex="FBB4"/>
  <outline>
    <contour>
      <point x="37" y="810"/>
      <point x="16" y="788"/>
      <point x="-2" y="771" type="curve"/>
      <point x="-15" y="789"/>
      <point x="-36" y="809"/>
      <point x="-57" y="821" type="curve"/>
      <point x="-68" y="808"/>
      <point x="-100" y="775"/>
      <point x="-117" y="760" type="curve"/>
      <point x="-91" y="740"/>
      <point x="-69" y="717"/>
      <point x="-52" y="696" type="curve"/>
      <point x="-34" y="711"/>
      <point x="-12" y="733"/>
      <point x="1" y="748" type="curve"/>
      <point x="20" y="731"/>
      <point x="37" y="713"/>
      <point x="51" y="696" type="curve"/>
      <point x="73" y="715"/>
      <point x="100" y="743"/>
      <point x="110" y="756" type="curve"/>
      <point x="99" y="778"/>
      <point x="73" y="805"/>
      <point x="45" y="821" type="curve"/>
    </contour>
    <contour>
      <point x="-4" y="832" type="move" name="top"/>
    </contour>
    <contour>
      <point x="-4" y="678" type="move" name="_top"/>
    </contour>
  </outline>
</glyph>
<glyph name="threedotsupabove-ar" format="1">
  <advance width="0"/>
  <unicode hex="FBB6"/>
  <outline>
    <contour>
      <point x="37" y="815"/>
      <point x="15" y="793"/>
      <point x="-2" y="776" type="curve"/>
      <point x="-16" y="794"/>
      <point x="-36" y="813"/>
      <point x="-57" y="826" type="curve"/>
      <point x="-68" y="813"/>
      <point x="-100" y="780"/>
      <point x="-117" y="765" type="curve"/>
      <point x="-91" y="745"/>
      <point x="-70" y="722"/>
      <point x="-52" y="701" type="curve"/>
      <point x="-34" y="716"/>
      <point x="-12" y="738"/>
      <point x="1" y="753" type="curve"/>
      <point x="20" y="736"/>
      <point x="37" y="718"/>
      <point x="50" y="701" type="curve"/>
      <point x="73" y="719"/>
      <point x="100" y="748"/>
      <point x="110" y="761" type="curve"/>
      <point x="98" y="783"/>
      <point x="73" y="810"/>
      <point x="45" y="826" type="curve"/>
    </contour>
    <contour>
      <point x="21" y="842"/>
      <point x="48" y="871"/>
      <point x="58" y="884" type="curve"/>
      <point x="46" y="906"/>
      <point x="21" y="933"/>
      <point x="-7" y="948" type="curve"/>
      <point x="-17" y="935"/>
      <point x="-49" y="902"/>
      <point x="-67" y="887" type="curve"/>
      <point x="-41" y="868"/>
      <point x="-19" y="845"/>
      <point x="-2" y="824" type="curve"/>
    </contour>
    <contour>
      <point x="-5" y="961" type="move" name="top"/>
    </contour>
    <contour>
      <point x="-5" y="680" type="move" name="_top"/>
    </contour>
  </outline>
</glyph>
<glyph name="threedotsdownbelow-ar" format="1">
  <advance width="0"/>
  <unicode hex="FBB9"/>
  <outline>
    <contour>
      <point x="97" y="-21"/>
      <point x="72" y="6"/>
      <point x="44" y="21" type="curve"/>
      <point x="36" y="11"/>
      <point x="14" y="-12"/>
      <point x="-3" y="-28" type="curve"/>
      <point x="-17" y="-9"/>
      <point x="-37" y="10"/>
      <point x="-58" y="21" type="curve"/>
      <point x="-69" y="8"/>
      <point x="-101" y="-25"/>
      <point x="-118" y="-40" type="curve"/>
      <point x="-92" y="-58"/>
      <point x="-71" y="-82"/>
      <point x="-53" y="-103" type="curve"/>
      <point x="-35" y="-88"/>
      <point x="-13" y="-66"/>
      <point x="0" y="-51" type="curve"/>
      <point x="19" y="-68"/>
      <point x="35" y="-86"/>
      <point x="49" y="-103" type="curve"/>
      <point x="72" y="-85"/>
      <point x="99" y="-56"/>
      <point x="109" y="-43" type="curve"/>
    </contour>
    <contour>
      <point x="50" y="-143"/>
      <point x="24" y="-116"/>
      <point x="-3" y="-101" type="curve"/>
      <point x="-13" y="-114"/>
      <point x="-45" y="-146"/>
      <point x="-63" y="-162" type="curve"/>
      <point x="-38" y="-181"/>
      <point x="-15" y="-204"/>
      <point x="2" y="-225" type="curve"/>
      <point x="25" y="-207"/>
      <point x="52" y="-178"/>
      <point x="62" y="-165" type="curve"/>
    </contour>
    <contour>
      <point x="-6" y="52" type="move" name="_bottom"/>
    </contour>
    <contour>
      <point x="-6" y="-229" type="move" name="bottom"/>
    </contour>
  </outline>
</glyph>
<glyph name="fourdotsabove-ar" format="1">
  <advance width="0"/>
  <unicode hex="FBBA"/>
  <outline>
    <contour>
      <point x="-91" y="626"/>
      <point x="-69" y="603"/>
      <point x="-52" y="582" type="curve"/>
      <point x="-34" y="597"/>
      <point x="-12" y="619"/>
      <point x="1" y="633" type="curve"/>
      <point x="20" y="617"/>
      <point x="37" y="599"/>
      <point x="51" y="582" type="curve"/>
      <point x="73" y="601"/>
      <point x="100" y="629"/>
      <point x="110" y="642" type="curve"/>
      <point x="100" y="661"/>
      <point x="79" y="684"/>
      <point x="55" y="700" type="curve"/>
      <point x="77" y="719"/>
      <point x="101" y="744"/>
      <point x="110" y="756" type="curve"/>
      <point x="99" y="778"/>
      <point x="73" y="805"/>
      <point x="45" y="821" type="curve"/>
      <point x="37" y="810"/>
      <point x="16" y="788"/>
      <point x="-2" y="771" type="curve"/>
      <point x="-15" y="789"/>
      <point x="-36" y="809"/>
      <point x="-57" y="821" type="curve"/>
      <point x="-68" y="808"/>
      <point x="-100" y="775"/>
      <point x="-117" y="760" type="curve"/>
      <point x="-94" y="743"/>
      <point x="-75" y="723"/>
      <point x="-59" y="704" type="curve"/>
      <point x="-71" y="690"/>
      <point x="-100" y="660"/>
      <point x="-117" y="645" type="curve"/>
    </contour>
    <contour>
      <point x="-30" y="715"/>
      <point x="-11" y="735"/>
      <point x="1" y="748" type="curve"/>
      <point x="17" y="734"/>
      <point x="32" y="719"/>
      <point x="44" y="705" type="curve"/>
      <point x="35" y="693"/>
      <point x="15" y="672"/>
      <point x="-2" y="657" type="curve"/>
      <point x="-13" y="672"/>
      <point x="-30" y="688"/>
      <point x="-47" y="700" type="curve"/>
    </contour>
    <contour>
      <point x="-4" y="821" type="move" name="top"/>
    </contour>
    <contour>
      <point x="-4" y="562" type="move" name="_top"/>
    </contour>
  </outline>
</glyph>
<glyph name="twodotsverticalabove-ar" format="1">
  <advance width="0"/>
  <unicode hex="FBBD"/>
  <outline>
    <contour>
      <point x="36" y="836"/>
      <point x="55" y="857"/>
      <point x="63" y="868" type="curve"/>
      <point x="52" y="890"/>
      <point x="26" y="917"/>
      <point x="-1" y="932" type="curve"/>
      <point x="-12" y="919"/>
      <point x="-44" y="886"/>
      <point x="-61" y="871" type="curve"/>
      <point x="-41" y="856"/>
      <point x="-23" y="839"/>
      <point x="-8" y="821" type="curve"/>
      <point x="-22" y="806"/>
      <point x="-46" y="781"/>
      <point x="-61" y="768" type="curve"/>
      <point x="-35" y="749"/>
      <point x="-13" y="726"/>
      <point x="4" y="705" type="curve"/>
      <point x="27" y="723"/>
      <point x="53" y="752"/>
      <point x="63" y="765" type="curve"/>
      <point x="55" y="783"/>
      <point x="37" y="802"/>
      <point x="16" y="818" type="curve"/>
    </contour>
    <contour>
      <point x="2" y="940" type="move" name="top"/>
    </contour>
    <contour>
      <point x="2" y="681" type="move" name="_top"/>
    </contour>
  </outline>
</glyph>
<glyph name="seen_meem-ar" format="1">
  <advance width="854"/>
  <unicode hex="FC1F"/>
  <outline>
    <contour>
      <point x="729" y="273"/>
      <point x="714" y="252"/>
      <point x="697" y="225" type="curve"/>
      <point x="744" y="159" type="line"/>
      <point x="730" y="131"/>
      <point x="717" y="121"/>
      <point x="687" y="121" type="curve" smooth="yes"/>
      <point x="670" y="121"/>
      <point x="648" y="124"/>
      <point x="635" y="139" type="curve"/>
      <point x="623" y="151"/>
      <point x="620" y="172"/>
      <point x="620" y="191" type="curve"/>
      <point x="621" y="203"/>
      <point x="623" y="213"/>
      <point x="624" y="223" type="curve"/>
      <point x="582" y="207" type="line"/>
      <point x="582" y="201"/>
      <point x="582" y="182"/>
      <point x="575" y="166" type="curve" smooth="yes"/>
      <point x="567" y="143"/>
      <point x="550" y="119"/>
      <point x="498" y="119" type="curve" smooth="yes"/>
      <point x="453" y="119"/>
      <point x="431" y="137"/>
      <point x="399" y="169" type="curve" smooth="yes"/>
      <point x="379" y="190"/>
      <point x="351" y="212"/>
      <point x="314" y="212" type="curve" smooth="yes"/>
      <point x="266" y="212"/>
      <point x="222" y="172"/>
      <point x="199" y="139" type="curve" smooth="yes"/>
      <point x="178" y="109"/>
      <point x="158" y="71"/>
      <point x="151" y="31" type="curve"/>
      <point x="114" y="11"/>
      <point x="92" y="-9"/>
      <point x="72" y="-41" type="curve" smooth="yes"/>
      <point x="55" y="-72"/>
      <point x="44" y="-112"/>
      <point x="51" y="-159" type="curve" smooth="yes"/>
      <point x="81" y="-346"/>
      <point x="91" y="-432"/>
      <point x="97" y="-497" type="curve"/>
      <point x="149" y="-476" type="line"/>
      <point x="149" y="-448"/>
      <point x="144" y="-346"/>
      <point x="135" y="-252" type="curve" smooth="yes"/>
      <point x="130" y="-195"/>
      <point x="123" y="-145"/>
      <point x="115" y="-91" type="curve"/>
      <point x="132" y="-75"/>
      <point x="156" y="-58"/>
      <point x="214" y="-58" type="curve" smooth="yes"/>
      <point x="254" y="-58"/>
      <point x="279" y="-67"/>
      <point x="316" y="-79" type="curve"/>
      <point x="338" y="-49"/>
      <point x="352" y="-26"/>
      <point x="363" y="12" type="curve"/>
      <point x="344" y="38"/>
      <point x="286" y="71"/>
      <point x="235" y="81" type="curve"/>
      <point x="250" y="96"/>
      <point x="273" y="117"/>
      <point x="312" y="117" type="curve"/>
      <point x="354" y="117"/>
      <point x="377" y="90"/>
      <point x="399" y="61" type="curve" smooth="yes"/>
      <point x="420" y="33"/>
      <point x="447" y="0"/>
      <point x="504" y="0" type="curve" smooth="yes"/>
      <point x="563" y="0"/>
      <point x="589" y="40"/>
      <point x="596" y="60" type="curve"/>
      <point x="602" y="41"/>
      <point x="630" y="9"/>
      <point x="681" y="9" type="curve" smooth="yes"/>
      <point x="722" y="9"/>
      <point x="755" y="31"/>
      <point x="776" y="67" type="curve" smooth="yes"/>
      <point x="798" y="104"/>
      <point x="801" y="146"/>
      <point x="801" y="167" type="curve" smooth="yes"/>
      <point x="801" y="212"/>
      <point x="783" y="261"/>
      <point x="750" y="295" type="curve"/>
    </contour>
    <contour>
      <point x="424" y="0" type="move" name="caret_1"/>
    </contour>
    <contour>
      <point x="594" y="-29" type="move" name="bottom_1"/>
    </contour>
    <contour>
      <point x="595" y="276" type="move" name="top_1"/>
    </contour>
    <contour>
      <point x="164" y="212" type="move" name="top_2"/>
    </contour>
    <contour>
      <point x="121" y="-517" type="move" name="bottom_2"/>
    </contour>
  </outline>
</glyph>
<glyph name="lam_meem-ar" format="1">
  <advance width="440"/>
  <unicode hex="FC42"/>
  <outline>
    <contour>
      <point x="362" y="150"/>
      <point x="323" y="172"/>
      <point x="283" y="184" type="curve"/>
      <point x="296" y="194"/>
      <point x="303" y="214"/>
      <point x="294" y="258" type="curve" smooth="yes"/>
      <point x="290" y="281"/>
      <point x="284" y="304"/>
      <point x="278" y="335" type="curve" smooth="yes"/>
      <point x="273" y="362"/>
      <point x="266" y="389"/>
      <point x="262" y="413" type="curve"/>
      <point x="255" y="454"/>
      <point x="268" y="470"/>
      <point x="299" y="494" type="curve" smooth="yes"/>
      <point x="262" y="531"/>
      <point x="240" y="564"/>
      <point x="220" y="609" type="curve"/>
      <point x="155" y="509" type="line"/>
      <point x="178" y="451"/>
      <point x="194" y="394"/>
      <point x="207" y="339" type="curve" smooth="yes"/>
      <point x="214" y="306"/>
      <point x="226" y="251"/>
      <point x="234" y="203" type="curve"/>
      <point x="227" y="191"/>
      <point x="216" y="188"/>
      <point x="195" y="187" type="curve"/>
      <point x="180" y="171"/>
      <point x="172" y="157"/>
      <point x="162" y="127" type="curve"/>
      <point x="126" y="111"/>
      <point x="103" y="89"/>
      <point x="83" y="55" type="curve" smooth="yes"/>
      <point x="66" y="25"/>
      <point x="54" y="-15"/>
      <point x="61" y="-62" type="curve" smooth="yes"/>
      <point x="92" y="-263"/>
      <point x="102" y="-335"/>
      <point x="107" y="-400" type="curve"/>
      <point x="159" y="-380" type="line"/>
      <point x="159" y="-351"/>
      <point x="153" y="-252"/>
      <point x="145" y="-168" type="curve" smooth="yes"/>
      <point x="140" y="-112"/>
      <point x="134" y="-48"/>
      <point x="125" y="6" type="curve"/>
      <point x="136" y="15"/>
      <point x="174" y="33"/>
      <point x="231" y="34" type="curve"/>
      <point x="275" y="35"/>
      <point x="308" y="26"/>
      <point x="341" y="18" type="curve"/>
      <point x="367" y="52"/>
      <point x="379" y="90"/>
      <point x="391" y="126" type="curve" smooth="yes"/>
    </contour>
    <contour>
      <point x="220" y="0" type="move" name="caret_1"/>
    </contour>
    <contour>
      <point x="287" y="-30" type="move" name="bottom_1"/>
    </contour>
    <contour>
      <point x="127" y="608" type="move" name="top_1"/>
    </contour>
    <contour>
      <point x="62" y="202" type="move" name="top_2"/>
    </contour>
    <contour>
      <point x="137" y="-418" type="move" name="bottom_2"/>
    </contour>
  </outline>
</glyph>
<glyph name="lam_alefMaksura-ar" format="1">
  <advance width="669"/>
  <unicode hex="FC43"/>
  <outline>
    <contour>
      <point x="539" y="520"/>
      <point x="517" y="548"/>
      <point x="499" y="595" type="curve"/>
      <point x="429" y="493" type="line"/>
      <point x="435" y="479"/>
      <point x="453" y="416"/>
      <point x="465" y="365" type="curve" smooth="yes"/>
      <point x="476" y="315"/>
      <point x="496" y="211"/>
      <point x="504" y="132" type="curve"/>
      <point x="490" y="111"/>
      <point x="439" y="83"/>
      <point x="391" y="81" type="curve"/>
      <point x="385" y="58"/>
      <point x="382" y="34"/>
      <point x="379" y="-2" type="curve"/>
      <point x="419" y="-5"/>
      <point x="453" y="-10"/>
      <point x="483" y="-17" type="curve" smooth="yes"/>
      <point x="521" y="-27"/>
      <point x="542" y="-41"/>
      <point x="543" y="-55" type="curve"/>
      <point x="541" y="-68"/>
      <point x="508" y="-90"/>
      <point x="468" y="-108" type="curve"/>
      <point x="438" y="-121"/>
      <point x="386" y="-143"/>
      <point x="296" y="-143" type="curve" smooth="yes"/>
      <point x="223" y="-143"/>
      <point x="176" y="-123"/>
      <point x="150" y="-91" type="curve" smooth="yes"/>
      <point x="123" y="-60"/>
      <point x="121" y="-7"/>
      <point x="134" y="54" type="curve"/>
      <point x="99" y="67" type="line"/>
      <point x="78" y="14"/>
      <point x="67" y="-35"/>
      <point x="64" y="-72" type="curve" smooth="yes"/>
      <point x="61" y="-108"/>
      <point x="66" y="-139"/>
      <point x="77" y="-167" type="curve" smooth="yes"/>
      <point x="92" y="-204"/>
      <point x="118" y="-232"/>
      <point x="156" y="-252" type="curve" smooth="yes"/>
      <point x="193" y="-271"/>
      <point x="238" y="-281"/>
      <point x="288" y="-281" type="curve" smooth="yes"/>
      <point x="347" y="-281"/>
      <point x="405" y="-269"/>
      <point x="456" y="-247" type="curve" smooth="yes"/>
      <point x="510" y="-225"/>
      <point x="558" y="-188"/>
      <point x="587" y="-139" type="curve" smooth="yes"/>
      <point x="603" y="-114"/>
      <point x="615" y="-83"/>
      <point x="615" y="-53" type="curve" smooth="yes"/>
      <point x="615" y="-2"/>
      <point x="581" y="32"/>
      <point x="535" y="48" type="curve"/>
      <point x="556" y="73"/>
      <point x="574" y="115"/>
      <point x="572" y="166" type="curve" smooth="yes"/>
      <point x="572" y="202"/>
      <point x="561" y="274"/>
      <point x="554" y="323" type="curve" smooth="yes"/>
      <point x="550" y="349"/>
      <point x="551" y="349"/>
      <point x="543" y="398" type="curve" smooth="yes"/>
      <point x="537" y="450"/>
      <point x="558" y="468"/>
      <point x="577" y="480" type="curve"/>
    </contour>
    <contour>
      <point x="338" y="0" type="move" name="caret_1"/>
    </contour>
    <contour>
      <point x="527" y="-283" type="move" name="bottom_1"/>
    </contour>
    <contour>
      <point x="441" y="615" type="move" name="top_1"/>
    </contour>
    <contour>
      <point x="258" y="65" type="move" name="top_2"/>
    </contour>
    <contour>
      <point x="295" y="-311" type="move" name="bottom_2"/>
    </contour>
  </outline>
</glyph>
<glyph name="meem_alefMaksura-ar" format="1">
  <advance width="814"/>
  <unicode hex="FC49"/>
  <outline>
    <contour>
      <point x="732" y="273"/>
      <point x="709" y="285"/>
      <point x="676" y="293" type="curve" smooth="yes"/>
      <point x="655" y="298"/>
      <point x="635" y="302"/>
      <point x="620" y="308" type="curve"/>
      <point x="607" y="290"/>
      <point x="596" y="269"/>
      <point x="591" y="252" type="curve" smooth="yes"/>
      <point x="583" y="228"/>
      <point x="584" y="200"/>
      <point x="593" y="176" type="curve"/>
      <point x="571" y="165"/>
      <point x="525" y="136"/>
      <point x="496" y="109" type="curve" smooth="yes"/>
      <point x="478" y="94"/>
      <point x="459" y="72"/>
      <point x="452" y="52" type="curve" smooth="yes"/>
      <point x="446" y="37"/>
      <point x="444" y="27"/>
      <point x="438" y="-8" type="curve"/>
      <point x="493" y="-12"/>
      <point x="542" y="-33"/>
      <point x="543" y="-55" type="curve"/>
      <point x="543" y="-69"/>
      <point x="507" y="-95"/>
      <point x="468" y="-111" type="curve" smooth="yes"/>
      <point x="432" y="-125"/>
      <point x="383" y="-141"/>
      <point x="299" y="-141" type="curve" smooth="yes"/>
      <point x="225" y="-141"/>
      <point x="178" y="-124"/>
      <point x="150" y="-91" type="curve" smooth="yes"/>
      <point x="125" y="-61"/>
      <point x="121" y="-7"/>
      <point x="135" y="54" type="curve"/>
      <point x="100" y="67" type="line"/>
      <point x="84" y="28"/>
      <point x="72" y="-16"/>
      <point x="67" y="-58" type="curve" smooth="yes"/>
      <point x="61" y="-98"/>
      <point x="64" y="-133"/>
      <point x="78" y="-167" type="curve" smooth="yes"/>
      <point x="93" y="-203"/>
      <point x="118" y="-230"/>
      <point x="156" y="-251" type="curve" smooth="yes"/>
      <point x="194" y="-271"/>
      <point x="237" y="-281"/>
      <point x="288" y="-281" type="curve" smooth="yes"/>
      <point x="352" y="-281"/>
      <point x="422" y="-265"/>
      <point x="478" y="-236" type="curve" smooth="yes"/>
      <point x="524" y="-212"/>
      <point x="564" y="-179"/>
      <point x="588" y="-139" type="curve" smooth="yes"/>
      <point x="607" y="-109"/>
      <point x="616" y="-77"/>
      <point x="616" y="-52" type="curve" smooth="yes"/>
      <point x="616" y="1"/>
      <point x="581" y="37"/>
      <point x="532" y="51" type="curve"/>
      <point x="567" y="84"/>
      <point x="626" y="119"/>
      <point x="693" y="125" type="curve"/>
      <point x="733" y="127"/>
      <point x="747" y="134"/>
      <point x="756" y="178" type="curve" smooth="yes"/>
      <point x="763" y="214"/>
      <point x="762" y="243"/>
      <point x="745" y="260" type="curve" smooth="yes"/>
    </contour>
    <contour>
      <point x="410" y="0" type="move" name="caret_1"/>
    </contour>
    <contour>
      <point x="647" y="-200" type="move" name="bottom_1"/>
    </contour>
    <contour>
      <point x="620" y="338" type="move" name="top_1"/>
    </contour>
    <contour>
      <point x="265" y="63" type="move" name="top_2"/>
    </contour>
    <contour>
      <point x="294" y="-311" type="move" name="bottom_2"/>
    </contour>
  </outline>
</glyph>
<glyph name="lam_alefMaksura-ar.fina" format="1">
  <advance width="744"/>
  <unicode hex="FC86"/>
  <outline>
    <contour>
      <point x="509" y="560"/>
      <point x="487" y="530"/>
      <point x="458" y="485" type="curve"/>
      <point x="465" y="448"/>
      <point x="485" y="346"/>
      <point x="496" y="263" type="curve" smooth="yes"/>
      <point x="503" y="209"/>
      <point x="508" y="168"/>
      <point x="514" y="118" type="curve"/>
      <point x="495" y="81"/>
      <point x="435" y="54"/>
      <point x="391" y="53" type="curve"/>
      <point x="384" y="29"/>
      <point x="380" y="4"/>
      <point x="379" y="-30" type="curve"/>
      <point x="419" y="-33"/>
      <point x="453" y="-38"/>
      <point x="483" y="-45" type="curve" smooth="yes"/>
      <point x="521" y="-55"/>
      <point x="542" y="-69"/>
      <point x="543" y="-83" type="curve"/>
      <point x="543" y="-112"/>
      <point x="488" y="-136"/>
      <point x="434" y="-149" type="curve" smooth="yes"/>
      <point x="396" y="-160"/>
      <point x="347" y="-171"/>
      <point x="296" y="-171" type="curve" smooth="yes"/>
      <point x="223" y="-171"/>
      <point x="176" y="-151"/>
      <point x="150" y="-119" type="curve" smooth="yes"/>
      <point x="123" y="-88"/>
      <point x="121" y="-35"/>
      <point x="134" y="26" type="curve"/>
      <point x="99" y="39" type="line"/>
      <point x="78" y="-14"/>
      <point x="67" y="-63"/>
      <point x="64" y="-100" type="curve" smooth="yes"/>
      <point x="61" y="-136"/>
      <point x="66" y="-167"/>
      <point x="77" y="-195" type="curve" smooth="yes"/>
      <point x="93" y="-232"/>
      <point x="118" y="-260"/>
      <point x="156" y="-280" type="curve" smooth="yes"/>
      <point x="193" y="-299"/>
      <point x="239" y="-309"/>
      <point x="286" y="-309" type="curve" smooth="yes"/>
      <point x="343" y="-309"/>
      <point x="403" y="-297"/>
      <point x="456" y="-273" type="curve" smooth="yes"/>
      <point x="495" y="-255"/>
      <point x="533" y="-228"/>
      <point x="561" y="-195" type="curve" smooth="yes"/>
      <point x="586" y="-165"/>
      <point x="602" y="-127"/>
      <point x="602" y="-87" type="curve" smooth="yes"/>
      <point x="602" y="-34"/>
      <point x="570" y="2"/>
      <point x="524" y="17" type="curve"/>
      <point x="542" y="26"/>
      <point x="558" y="46"/>
      <point x="567" y="72" type="curve"/>
      <point x="580" y="42"/>
      <point x="615" y="0"/>
      <point x="679" y="0" type="curve" smooth="yes"/>
      <point x="744" y="0" type="line"/>
      <point x="744" y="125" type="line"/>
      <point x="652" y="125" type="line" smooth="yes"/>
      <point x="628" y="125"/>
      <point x="612" y="133"/>
      <point x="602" y="144" type="curve" smooth="yes"/>
      <point x="588" y="159"/>
      <point x="585" y="181"/>
      <point x="584" y="193" type="curve" smooth="yes"/>
      <point x="553" y="486"/>
      <point x="547" y="549"/>
      <point x="543" y="595" type="curve"/>
    </contour>
    <contour>
      <point x="366" y="0" type="move" name="caret_1"/>
    </contour>
    <contour>
      <point x="575" y="-269" type="move" name="bottom_1"/>
    </contour>
    <contour>
      <point x="475" y="621" type="move" name="top_1"/>
    </contour>
    <contour>
      <point x="247" y="41" type="move" name="top_2"/>
    </contour>
    <contour>
      <point x="293" y="-339" type="move" name="bottom_2"/>
    </contour>
  </outline>
</glyph>
<glyph name="ain_meem-ar.init" format="1">
  <advance width="556"/>
  <unicode hex="FCBB"/>
  <outline>
    <contour>
      <point x="455" y="347"/>
      <point x="375" y="326"/>
      <point x="329" y="312" type="curve"/>
      <point x="295" y="328"/>
      <point x="260" y="357"/>
      <point x="252" y="400" type="curve"/>
      <point x="272" y="413"/>
      <point x="303" y="428"/>
      <point x="350" y="428" type="curve" smooth="yes"/>
      <point x="381" y="428"/>
      <point x="407" y="421"/>
      <point x="431" y="413" type="curve"/>
      <point x="468" y="447" type="line"/>
      <point x="437" y="492"/>
      <point x="391" y="520"/>
      <point x="345" y="520" type="curve" smooth="yes"/>
      <point x="303" y="520"/>
      <point x="264" y="500"/>
      <point x="232" y="471" type="curve" smooth="yes"/>
      <point x="200" y="441"/>
      <point x="177" y="400"/>
      <point x="177" y="355" type="curve" smooth="yes"/>
      <point x="177" y="321"/>
      <point x="189" y="287"/>
      <point x="221" y="260" type="curve"/>
      <point x="187" y="247"/>
      <point x="135" y="209"/>
      <point x="97" y="159" type="curve" smooth="yes"/>
      <point x="83" y="140"/>
      <point x="71" y="125"/>
      <point x="45" y="125" type="curve" smooth="yes"/>
      <point x="-15" y="125" type="line" smooth="yes"/>
      <point x="-58" y="125"/>
      <point x="-78" y="95"/>
      <point x="-78" y="61" type="curve" smooth="yes"/>
      <point x="-78" y="27"/>
      <point x="-58" y="0"/>
      <point x="-15" y="0" type="curve" smooth="yes"/>
      <point x="15" y="0" type="line" smooth="yes"/>
      <point x="55" y="0"/>
      <point x="82" y="13"/>
      <point x="98" y="46" type="curve"/>
      <point x="144" y="9"/>
      <point x="205" y="-9"/>
      <point x="248" y="-11" type="curve"/>
      <point x="277" y="12"/>
      <point x="301" y="54"/>
      <point x="301" y="95" type="curve" smooth="yes"/>
      <point x="301" y="123"/>
      <point x="291" y="158"/>
      <point x="260" y="184" type="curve"/>
      <point x="321" y="224"/>
      <point x="384" y="244"/>
      <point x="474" y="266" type="curve"/>
      <point x="491" y="296"/>
      <point x="500" y="325"/>
      <point x="509" y="357" type="curve"/>
    </contour>
    <contour>
      <point x="203" y="89"/>
      <point x="174" y="98"/>
      <point x="137" y="123" type="curve"/>
      <point x="147" y="137"/>
      <point x="162" y="152"/>
      <point x="185" y="152" type="curve" smooth="yes"/>
      <point x="230" y="152"/>
      <point x="247" y="103"/>
      <point x="244" y="80" type="curve"/>
    </contour>
    <contour>
      <point x="278" y="0" type="move" name="caret_1"/>
    </contour>
    <contour>
      <point x="314" y="-41" type="move" name="bottom_1"/>
    </contour>
    <contour>
      <point x="344" y="550" type="move" name="top_1"/>
    </contour>
    <contour>
      <point x="88" y="421" type="move" name="top_2"/>
    </contour>
    <contour>
      <point x="66" y="-28" type="move" name="bottom_2"/>
    </contour>
  </outline>
</glyph>
<glyph name="meem_meem-ar.init" format="1">
  <advance width="400"/>
  <unicode hex="FCD1"/>
  <outline>
    <contour>
      <point x="345" y="365"/>
      <point x="353" y="407"/>
      <point x="341" y="429" type="curve" smooth="yes"/>
      <point x="330" y="448"/>
      <point x="303" y="463"/>
      <point x="270" y="473" type="curve" smooth="yes"/>
      <point x="254" y="478"/>
      <point x="232" y="480"/>
      <point x="208" y="489" type="curve"/>
      <point x="200" y="481"/>
      <point x="183" y="461"/>
      <point x="176" y="421" type="curve" smooth="yes"/>
      <point x="172" y="398"/>
      <point x="171" y="373"/>
      <point x="178" y="355" type="curve"/>
      <point x="168" y="348"/>
      <point x="142" y="335"/>
      <point x="120" y="313" type="curve" smooth="yes"/>
      <point x="95" y="289"/>
      <point x="73" y="255"/>
      <point x="73" y="212" type="curve" smooth="yes"/>
      <point x="73" y="181"/>
      <point x="87" y="158"/>
      <point x="101" y="139" type="curve"/>
      <point x="95" y="137"/>
      <point x="82" y="125"/>
      <point x="39" y="125" type="curve" smooth="yes"/>
      <point x="-13" y="125" type="line" smooth="yes"/>
      <point x="-60" y="125"/>
      <point x="-76" y="82"/>
      <point x="-76" y="63" type="curve" smooth="yes"/>
      <point x="-76" y="28"/>
      <point x="-48" y="0"/>
      <point x="-13" y="0" type="curve" smooth="yes"/>
      <point x="20" y="0" type="line" smooth="yes"/>
      <point x="69" y="0"/>
      <point x="96" y="16"/>
      <point x="141" y="16" type="curve" smooth="yes"/>
      <point x="174" y="16"/>
      <point x="217" y="4"/>
      <point x="256" y="-23" type="curve"/>
      <point x="276" y="20"/>
      <point x="282" y="87"/>
      <point x="278" y="131" type="curve"/>
      <point x="247" y="152"/>
      <point x="224" y="163"/>
      <point x="196" y="174" type="curve" smooth="yes"/>
      <point x="148" y="192"/>
      <point x="133" y="210"/>
      <point x="133" y="223" type="curve"/>
      <point x="149" y="250"/>
      <point x="199" y="278"/>
      <point x="231" y="291" type="curve" smooth="yes"/>
      <point x="254" y="301"/>
      <point x="297" y="315"/>
      <point x="331" y="323" type="curve" smooth="yes"/>
    </contour>
    <contour>
      <point x="190" y="0" type="move" name="caret_1"/>
    </contour>
    <contour>
      <point x="241" y="-117" type="move" name="bottom_1"/>
    </contour>
    <contour>
      <point x="265" y="531" type="move" name="top_1"/>
    </contour>
    <contour>
      <point x="37" y="381" type="move" name="top_2"/>
    </contour>
    <contour>
      <point x="31" y="-53" type="move" name="bottom_2"/>
    </contour>
  </outline>
</glyph>
<glyph name="ain_alefMaksura-ar" format="1">
  <advance width="905"/>
  <unicode hex="FCF7"/>
  <outline>
    <contour>
      <point x="647" y="416"/>
      <point x="606" y="395"/>
      <point x="574" y="366" type="curve" smooth="yes"/>
      <point x="543" y="337"/>
      <point x="519" y="296"/>
      <point x="519" y="251" type="curve" smooth="yes"/>
      <point x="519" y="216"/>
      <point x="531" y="183"/>
      <point x="563" y="156" type="curve"/>
      <point x="507" y="131"/>
      <point x="466" y="107"/>
      <point x="450" y="84" type="curve" smooth="yes"/>
      <point x="437" y="65"/>
      <point x="427" y="51"/>
      <point x="418" y="-1" type="curve"/>
      <point x="488" y="-12"/>
      <point x="542" y="-34"/>
      <point x="542" y="-55" type="curve" smooth="yes"/>
      <point x="542" y="-80"/>
      <point x="489" y="-105"/>
      <point x="437" y="-119" type="curve" smooth="yes"/>
      <point x="401" y="-129"/>
      <point x="346" y="-142"/>
      <point x="293" y="-142" type="curve" smooth="yes"/>
      <point x="228" y="-142"/>
      <point x="176" y="-123"/>
      <point x="150" y="-91" type="curve" smooth="yes"/>
      <point x="122" y="-57"/>
      <point x="121" y="-3"/>
      <point x="133" y="54" type="curve"/>
      <point x="98" y="67" type="line"/>
      <point x="80" y="24"/>
      <point x="68" y="-28"/>
      <point x="64" y="-72" type="curve" smooth="yes"/>
      <point x="61" y="-108"/>
      <point x="65" y="-139"/>
      <point x="77" y="-167" type="curve" smooth="yes"/>
      <point x="92" y="-204"/>
      <point x="118" y="-232"/>
      <point x="156" y="-252" type="curve" smooth="yes"/>
      <point x="192" y="-271"/>
      <point x="237" y="-281"/>
      <point x="287" y="-281" type="curve" smooth="yes"/>
      <point x="353" y="-281"/>
      <point x="416" y="-267"/>
      <point x="471" y="-240" type="curve" smooth="yes"/>
      <point x="519" y="-217"/>
      <point x="559" y="-183"/>
      <point x="586" y="-139" type="curve" smooth="yes"/>
      <point x="605" y="-111"/>
      <point x="615" y="-80"/>
      <point x="614" y="-49" type="curve" smooth="yes"/>
      <point x="612" y="8"/>
      <point x="578" y="34"/>
      <point x="531" y="51" type="curve"/>
      <point x="594" y="85"/>
      <point x="695" y="128"/>
      <point x="816" y="161" type="curve"/>
      <point x="833" y="192"/>
      <point x="842" y="220"/>
      <point x="851" y="252" type="curve"/>
      <point x="797" y="242"/>
      <point x="717" y="222"/>
      <point x="671" y="207" type="curve"/>
      <point x="637" y="224"/>
      <point x="602" y="252"/>
      <point x="594" y="296" type="curve"/>
      <point x="614" y="309"/>
      <point x="644" y="325"/>
      <point x="692" y="325" type="curve" smooth="yes"/>
      <point x="723" y="325"/>
      <point x="749" y="318"/>
      <point x="773" y="310" type="curve"/>
      <point x="810" y="342" type="line"/>
      <point x="778" y="388"/>
      <point x="736" y="416"/>
      <point x="684" y="416" type="curve" smooth="yes"/>
    </contour>
    <contour>
      <point x="456" y="0" type="move" name="caret_1"/>
    </contour>
    <contour>
      <point x="621" y="-217" type="move" name="bottom_1"/>
    </contour>
    <contour>
      <point x="684" y="444" type="move" name="top_1"/>
    </contour>
    <contour>
      <point x="259" y="46" type="move" name="top_2"/>
    </contour>
    <contour>
      <point x="294" y="-311" type="move" name="bottom_2"/>
    </contour>
  </outline>
</glyph>
<glyph name="sad_alefMaksura-ar" format="1">
  <advance width="1146"/>
  <unicode hex="FD05"/>
  <outline>
    <contour>
      <point x="1093" y="267"/>
      <point x="1080" y="296"/>
      <point x="1052" y="319" type="curve" smooth="yes"/>
      <point x="1028" y="337"/>
      <point x="997" y="348"/>
      <point x="970" y="348" type="curve" smooth="yes"/>
      <point x="910" y="348"/>
      <point x="843" y="293"/>
      <point x="794" y="240" type="curve" smooth="yes"/>
      <point x="748" y="190"/>
      <point x="721" y="150"/>
      <point x="705" y="125" type="curve"/>
      <point x="658" y="126"/>
      <point x="630" y="144"/>
      <point x="606" y="174" type="curve" smooth="yes"/>
      <point x="583" y="203"/>
      <point x="567" y="233"/>
      <point x="519" y="233" type="curve" smooth="yes"/>
      <point x="485" y="233"/>
      <point x="458" y="213"/>
      <point x="429" y="170" type="curve" smooth="yes"/>
      <point x="418" y="154"/>
      <point x="397" y="119"/>
      <point x="385" y="86" type="curve" smooth="yes"/>
      <point x="371" y="52"/>
      <point x="364" y="15"/>
      <point x="376" y="-9" type="curve" smooth="yes"/>
      <point x="384" y="-28"/>
      <point x="410" y="-45"/>
      <point x="445" y="-55" type="curve" smooth="yes"/>
      <point x="471" y="-62"/>
      <point x="501" y="-66"/>
      <point x="528" y="-68" type="curve"/>
      <point x="524" y="-94"/>
      <point x="484" y="-115"/>
      <point x="431" y="-128" type="curve" smooth="yes"/>
      <point x="392" y="-139"/>
      <point x="346" y="-144"/>
      <point x="309" y="-144" type="curve" smooth="yes"/>
      <point x="261" y="-144"/>
      <point x="214" y="-136"/>
      <point x="183" y="-115" type="curve" smooth="yes"/>
      <point x="140" y="-94"/>
      <point x="126" y="-57"/>
      <point x="126" y="-15" type="curve" smooth="yes"/>
      <point x="126" y="4"/>
      <point x="129" y="29"/>
      <point x="135" y="53" type="curve"/>
      <point x="100" y="66" type="line"/>
      <point x="78" y="14"/>
      <point x="63" y="-49"/>
      <point x="64" y="-100" type="curve" smooth="yes"/>
      <point x="64" y="-150"/>
      <point x="81" y="-195"/>
      <point x="117" y="-227" type="curve" smooth="yes"/>
      <point x="155" y="-261"/>
      <point x="214" y="-283"/>
      <point x="289" y="-283" type="curve" smooth="yes"/>
      <point x="386" y="-283"/>
      <point x="461" y="-257"/>
      <point x="520" y="-211" type="curve" smooth="yes"/>
      <point x="546" y="-190"/>
      <point x="568" y="-164"/>
      <point x="583" y="-137" type="curve" smooth="yes"/>
      <point x="598" y="-108"/>
      <point x="608" y="-77"/>
      <point x="608" y="-49" type="curve" smooth="yes"/>
      <point x="608" y="-4"/>
      <point x="584" y="14"/>
      <point x="540" y="18" type="curve" smooth="yes"/>
      <point x="512" y="21"/>
      <point x="495" y="22"/>
      <point x="474" y="28" type="curve" smooth="yes"/>
      <point x="456" y="33"/>
      <point x="445" y="44"/>
      <point x="446" y="63" type="curve" smooth="yes"/>
      <point x="446" y="84"/>
      <point x="467" y="116"/>
      <point x="508" y="116" type="curve" smooth="yes"/>
      <point x="525" y="116"/>
      <point x="559" y="107"/>
      <point x="586" y="78" type="curve" smooth="yes"/>
      <point x="607" y="55"/>
      <point x="632" y="29"/>
      <point x="669" y="17" type="curve"/>
      <point x="662" y="-14" type="line"/>
      <point x="710" y="-14" type="line"/>
      <point x="717" y="10" type="line"/>
      <point x="743" y="6"/>
      <point x="768" y="4"/>
      <point x="795" y="5" type="curve" smooth="yes"/>
      <point x="874" y="9"/>
      <point x="948" y="38"/>
      <point x="995" y="75" type="curve" smooth="yes"/>
      <point x="1024" y="97"/>
      <point x="1048" y="124"/>
      <point x="1065" y="151" type="curve" smooth="yes"/>
      <point x="1083" y="182"/>
      <point x="1093" y="215"/>
      <point x="1093" y="239" type="curve" smooth="yes"/>
    </contour>
    <contour>
      <point x="1002" y="170"/>
      <point x="986" y="156"/>
      <point x="960" y="145" type="curve" smooth="yes"/>
      <point x="932" y="133"/>
      <point x="900" y="125"/>
      <point x="864" y="125" type="curve" smooth="yes"/>
      <point x="766" y="125" type="line"/>
      <point x="780" y="144"/>
      <point x="800" y="170"/>
      <point x="819" y="190" type="curve" smooth="yes"/>
      <point x="852" y="224"/>
      <point x="887" y="248"/>
      <point x="929" y="248" type="curve" smooth="yes"/>
      <point x="960" y="248"/>
      <point x="979" y="234"/>
      <point x="991" y="222" type="curve"/>
      <point x="1003" y="209"/>
      <point x="1009" y="195"/>
      <point x="1013" y="182" type="curve"/>
    </contour>
    <contour>
      <point x="572" y="0" type="move" name="caret_1"/>
    </contour>
    <contour>
      <point x="835" y="-28" type="move" name="bottom_1"/>
    </contour>
    <contour>
      <point x="950" y="378" type="move" name="top_1"/>
    </contour>
    <contour>
      <point x="235" y="66" type="move" name="top_2"/>
    </contour>
    <contour>
      <point x="296" y="-313" type="move" name="bottom_2"/>
    </contour>
  </outline>
</glyph>
<glyph name="ain_alefMaksura-ar.fina" format="1">
  <advance width="864"/>
  <unicode hex="FD13"/>
  <outline>
    <contour>
      <point x="751" y="125" type="line" smooth="yes"/>
      <point x="733" y="125"/>
      <point x="710" y="124"/>
      <point x="694" y="124" type="curve"/>
      <point x="708" y="133"/>
      <point x="756" y="178"/>
      <point x="756" y="215" type="curve" smooth="yes"/>
      <point x="756" y="257"/>
      <point x="713" y="290"/>
      <point x="628" y="290" type="curve" smooth="yes"/>
      <point x="587" y="290"/>
      <point x="548" y="275"/>
      <point x="522" y="260" type="curve"/>
      <point x="513" y="234"/>
      <point x="505" y="206"/>
      <point x="502" y="174" type="curve"/>
      <point x="524" y="172"/>
      <point x="555" y="161"/>
      <point x="575" y="134" type="curve"/>
      <point x="554" y="119"/>
      <point x="523" y="108"/>
      <point x="505" y="101" type="curve" smooth="yes"/>
      <point x="488" y="94"/>
      <point x="471" y="87"/>
      <point x="457" y="80" type="curve" smooth="yes"/>
      <point x="432" y="66"/>
      <point x="431" y="40"/>
      <point x="424" y="-3" type="curve"/>
      <point x="429" y="-4"/>
      <point x="459" y="-10"/>
      <point x="482" y="-17" type="curve" smooth="yes"/>
      <point x="515" y="-28"/>
      <point x="542" y="-42"/>
      <point x="542" y="-58" type="curve" smooth="yes"/>
      <point x="542" y="-86"/>
      <point x="496" y="-109"/>
      <point x="440" y="-124" type="curve" smooth="yes"/>
      <point x="403" y="-134"/>
      <point x="352" y="-144"/>
      <point x="297" y="-144" type="curve" smooth="yes"/>
      <point x="229" y="-144"/>
      <point x="177" y="-127"/>
      <point x="150" y="-94" type="curve" smooth="yes"/>
      <point x="121" y="-59"/>
      <point x="123" y="-1"/>
      <point x="134" y="52" type="curve"/>
      <point x="99" y="64" type="line"/>
      <point x="83" y="25"/>
      <point x="68" y="-22"/>
      <point x="64" y="-68" type="curve" smooth="yes"/>
      <point x="61" y="-101"/>
      <point x="64" y="-137"/>
      <point x="77" y="-170" type="curve" smooth="yes"/>
      <point x="92" y="-205"/>
      <point x="117" y="-233"/>
      <point x="156" y="-254" type="curve" smooth="yes"/>
      <point x="192" y="-273"/>
      <point x="237" y="-283"/>
      <point x="287" y="-283" type="curve" smooth="yes"/>
      <point x="360" y="-283"/>
      <point x="422" y="-268"/>
      <point x="477" y="-239" type="curve" smooth="yes"/>
      <point x="517" y="-219"/>
      <point x="550" y="-191"/>
      <point x="573" y="-159" type="curve"/>
      <point x="595" y="-128"/>
      <point x="608" y="-93"/>
      <point x="608" y="-56" type="curve" smooth="yes"/>
      <point x="608" y="-10"/>
      <point x="583" y="18"/>
      <point x="549" y="32" type="curve"/>
      <point x="575" y="45"/>
      <point x="602" y="60"/>
      <point x="625" y="80" type="curve"/>
      <point x="634" y="61"/>
      <point x="647" y="45"/>
      <point x="663" y="32" type="curve"/>
      <point x="689" y="12"/>
      <point x="722" y="0"/>
      <point x="757" y="0" type="curve" smooth="yes"/>
      <point x="864" y="0" type="line"/>
      <point x="864" y="125" type="line"/>
    </contour>
    <contour>
      <point x="416" y="0" type="move" name="caret_1"/>
    </contour>
    <contour>
      <point x="589" y="-255" type="move" name="bottom_1"/>
    </contour>
    <contour>
      <point x="614" y="320" type="move" name="top_1"/>
    </contour>
    <contour>
      <point x="262" y="40" type="move" name="top_2"/>
    </contour>
    <contour>
      <point x="294" y="-313" type="move" name="bottom_2"/>
    </contour>
  </outline>
</glyph>
<glyph name="hah_alefMaksura-ar.fina" format="1">
  <advance width="1013"/>
  <unicode hex="FD1B"/>
  <outline>
    <contour>
      <point x="884" y="125" type="line" smooth="yes"/>
      <point x="853" y="125"/>
      <point x="812" y="130"/>
      <point x="801" y="153" type="curve"/>
      <point x="823" y="157"/>
      <point x="842" y="157"/>
      <point x="860" y="157" type="curve"/>
      <point x="876" y="187"/>
      <point x="885" y="206"/>
      <point x="898" y="243" type="curve"/>
      <point x="783" y="240"/>
      <point x="732" y="251"/>
      <point x="632" y="293" type="curve" smooth="yes"/>
      <point x="600" y="307"/>
      <point x="574" y="318"/>
      <point x="545" y="318" type="curve" smooth="yes"/>
      <point x="514" y="318"/>
      <point x="488" y="305"/>
      <point x="464" y="282" type="curve" smooth="yes"/>
      <point x="441" y="261"/>
      <point x="428" y="230"/>
      <point x="414" y="186" type="curve"/>
      <point x="442" y="162" type="line"/>
      <point x="454" y="185"/>
      <point x="477" y="215"/>
      <point x="508" y="216" type="curve"/>
      <point x="526" y="218"/>
      <point x="553" y="213"/>
      <point x="583" y="205" type="curve" smooth="yes"/>
      <point x="605" y="199"/>
      <point x="641" y="188"/>
      <point x="655" y="183" type="curve"/>
      <point x="612" y="169"/>
      <point x="572" y="154"/>
      <point x="542" y="140" type="curve" smooth="yes"/>
      <point x="500" y="120"/>
      <point x="465" y="100"/>
      <point x="452" y="87" type="curve"/>
      <point x="436" y="71"/>
      <point x="426" y="53"/>
      <point x="419" y="1" type="curve"/>
      <point x="443" y="-4"/>
      <point x="458" y="-7"/>
      <point x="485" y="-14" type="curve"/>
      <point x="517" y="-25"/>
      <point x="543" y="-39"/>
      <point x="543" y="-56" type="curve" smooth="yes"/>
      <point x="543" y="-81"/>
      <point x="500" y="-102"/>
      <point x="455" y="-116" type="curve" smooth="yes"/>
      <point x="413" y="-130"/>
      <point x="354" y="-141"/>
      <point x="299" y="-141" type="curve" smooth="yes"/>
      <point x="228" y="-141"/>
      <point x="177" y="-127"/>
      <point x="150" y="-91" type="curve" smooth="yes"/>
      <point x="121" y="-56"/>
      <point x="122" y="-3"/>
      <point x="134" y="54" type="curve"/>
      <point x="99" y="67" type="line"/>
      <point x="80" y="22"/>
      <point x="68" y="-25"/>
      <point x="64" y="-68" type="curve" smooth="yes"/>
      <point x="61" y="-102"/>
      <point x="64" y="-136"/>
      <point x="77" y="-167" type="curve" smooth="yes"/>
      <point x="92" y="-203"/>
      <point x="119" y="-232"/>
      <point x="155" y="-252" type="curve" smooth="yes"/>
      <point x="192" y="-271"/>
      <point x="237" y="-281"/>
      <point x="290" y="-281" type="curve" smooth="yes"/>
      <point x="355" y="-281"/>
      <point x="424" y="-265"/>
      <point x="483" y="-235" type="curve" smooth="yes"/>
      <point x="531" y="-208"/>
      <point x="570" y="-173"/>
      <point x="593" y="-130" type="curve" smooth="yes"/>
      <point x="607" y="-101"/>
      <point x="615" y="-72"/>
      <point x="616" y="-46" type="curve"/>
      <point x="616" y="10"/>
      <point x="577" y="35"/>
      <point x="526" y="53" type="curve"/>
      <point x="541" y="62"/>
      <point x="582" y="85"/>
      <point x="629" y="102" type="curve" smooth="yes"/>
      <point x="670" y="118"/>
      <point x="710" y="130"/>
      <point x="741" y="135" type="curve"/>
      <point x="746" y="96"/>
      <point x="759" y="68"/>
      <point x="776" y="48" type="curve" smooth="yes"/>
      <point x="803" y="16"/>
      <point x="843" y="0"/>
      <point x="897" y="0" type="curve" smooth="yes"/>
      <point x="1012" y="0" type="line"/>
      <point x="1012" y="125" type="line"/>
    </contour>
    <contour>
      <point x="505" y="0" type="move" name="caret_1"/>
    </contour>
    <contour>
      <point x="746" y="-28" type="move" name="bottom_1"/>
    </contour>
    <contour>
      <point x="565" y="348" type="move" name="top_1"/>
    </contour>
    <contour>
      <point x="233" y="64" type="move" name="top_2"/>
    </contour>
    <contour>
      <point x="297" y="-311" type="move" name="bottom_2"/>
    </contour>
  </outline>
</glyph>
<glyph name="sad_alefMaksura-ar.fina" format="1">
  <advance width="1213"/>
  <unicode hex="FD21"/>
  <outline>
    <contour>
      <point x="1110" y="125" type="line" smooth="yes"/>
      <point x="1084" y="125"/>
      <point x="1051" y="118"/>
      <point x="1031" y="111" type="curve"/>
      <point x="1040" y="120"/>
      <point x="1047" y="128"/>
      <point x="1055" y="138" type="curve" smooth="yes"/>
      <point x="1076" y="168"/>
      <point x="1092" y="208"/>
      <point x="1092" y="239" type="curve" smooth="yes"/>
      <point x="1092" y="262"/>
      <point x="1080" y="296"/>
      <point x="1051" y="319" type="curve" smooth="yes"/>
      <point x="1028" y="337"/>
      <point x="998" y="347"/>
      <point x="970" y="347" type="curve" smooth="yes"/>
      <point x="941" y="347"/>
      <point x="912" y="337"/>
      <point x="879" y="316" type="curve" smooth="yes"/>
      <point x="846" y="294"/>
      <point x="814" y="263"/>
      <point x="793" y="241" type="curve" smooth="yes"/>
      <point x="761" y="206"/>
      <point x="728" y="161"/>
      <point x="703" y="125" type="curve"/>
      <point x="654" y="126"/>
      <point x="626" y="147"/>
      <point x="603" y="180" type="curve" smooth="yes"/>
      <point x="582" y="207"/>
      <point x="564" y="233"/>
      <point x="519" y="233" type="curve" smooth="yes"/>
      <point x="485" y="233"/>
      <point x="458" y="213"/>
      <point x="429" y="170" type="curve" smooth="yes"/>
      <point x="418" y="154"/>
      <point x="397" y="119"/>
      <point x="385" y="86" type="curve" smooth="yes"/>
      <point x="371" y="52"/>
      <point x="364" y="15"/>
      <point x="376" y="-9" type="curve" smooth="yes"/>
      <point x="384" y="-28"/>
      <point x="410" y="-45"/>
      <point x="445" y="-55" type="curve" smooth="yes"/>
      <point x="471" y="-62"/>
      <point x="501" y="-66"/>
      <point x="528" y="-68" type="curve"/>
      <point x="524" y="-85"/>
      <point x="495" y="-111"/>
      <point x="441" y="-127" type="curve" smooth="yes"/>
      <point x="405" y="-138"/>
      <point x="361" y="-144"/>
      <point x="309" y="-144" type="curve" smooth="yes"/>
      <point x="261" y="-144"/>
      <point x="214" y="-136"/>
      <point x="183" y="-115" type="curve" smooth="yes"/>
      <point x="140" y="-94"/>
      <point x="126" y="-57"/>
      <point x="126" y="-15" type="curve" smooth="yes"/>
      <point x="126" y="4"/>
      <point x="129" y="29"/>
      <point x="135" y="53" type="curve"/>
      <point x="100" y="66" type="line"/>
      <point x="78" y="14"/>
      <point x="63" y="-49"/>
      <point x="64" y="-100" type="curve" smooth="yes"/>
      <point x="64" y="-150"/>
      <point x="81" y="-195"/>
      <point x="117" y="-227" type="curve" smooth="yes"/>
      <point x="155" y="-261"/>
      <point x="214" y="-283"/>
      <point x="289" y="-283" type="curve" smooth="yes"/>
      <point x="385" y="-283"/>
      <point x="461" y="-257"/>
      <point x="520" y="-211" type="curve" smooth="yes"/>
      <point x="546" y="-190"/>
      <point x="568" y="-164"/>
      <point x="583" y="-137" type="curve" smooth="yes"/>
      <point x="598" y="-108"/>
      <point x="608" y="-77"/>
      <point x="608" y="-49" type="curve" smooth="yes"/>
      <point x="608" y="-4"/>
      <point x="584" y="14"/>
      <point x="540" y="18" type="curve" smooth="yes"/>
      <point x="512" y="21"/>
      <point x="495" y="22"/>
      <point x="474" y="28" type="curve" smooth="yes"/>
      <point x="456" y="33"/>
      <point x="445" y="44"/>
      <point x="446" y="63" type="curve" smooth="yes"/>
      <point x="446" y="84"/>
      <point x="467" y="116"/>
      <point x="508" y="116" type="curve" smooth="yes"/>
      <point x="545" y="116"/>
      <point x="569" y="96"/>
      <point x="589" y="75" type="curve" smooth="yes"/>
      <point x="610" y="53"/>
      <point x="630" y="29"/>
      <point x="669" y="17" type="curve"/>
      <point x="662" y="-14" type="line"/>
      <point x="710" y="-14" type="line"/>
      <point x="717" y="8" type="line"/>
      <point x="740" y="4"/>
      <point x="763" y="4"/>
      <point x="793" y="4" type="curve" smooth="yes"/>
      <point x="843" y="4"/>
      <point x="933" y="3"/>
      <point x="986" y="3" type="curve" smooth="yes"/>
      <point x="1019" y="3"/>
      <point x="1076" y="0"/>
      <point x="1100" y="0" type="curve" smooth="yes"/>
      <point x="1213" y="0" type="line"/>
      <point x="1213" y="125" type="line"/>
    </contour>
    <contour>
      <point x="1001" y="165"/>
      <point x="980" y="153"/>
      <point x="952" y="142" type="curve" smooth="yes"/>
      <point x="926" y="132"/>
      <point x="896" y="125"/>
      <point x="863" y="125" type="curve" smooth="yes"/>
      <point x="765" y="125" type="line"/>
      <point x="766" y="127"/>
      <point x="791" y="162"/>
      <point x="818" y="190" type="curve" smooth="yes"/>
      <point x="848" y="221"/>
      <point x="886" y="248"/>
      <point x="929" y="248" type="curve" smooth="yes"/>
      <point x="979" y="248"/>
      <point x="1005" y="210"/>
      <point x="1008" y="186" type="curve"/>
    </contour>
    <contour>
      <point x="585" y="0" type="move" name="caret_1"/>
    </contour>
    <contour>
      <point x="845" y="-31" type="move" name="bottom_1"/>
    </contour>
    <contour>
      <point x="950" y="377" type="move" name="top_1"/>
    </contour>
    <contour>
      <point x="232" y="67" type="move" name="top_2"/>
    </contour>
    <contour>
      <point x="296" y="-313" type="move" name="bottom_2"/>
    </contour>
  </outline>
</glyph>
<glyph name="alef-ar.fina" format="1">
  <advance width="283"/>
  <unicode hex="FE8E"/>
  <outline>
    <contour>
      <point x="215" y="125" type="line" smooth="yes"/>
      <point x="191" y="125"/>
      <point x="174" y="131"/>
      <point x="163" y="143" type="curve" smooth="yes"/>
      <point x="153" y="154"/>
      <point x="148" y="171"/>
      <point x="147" y="192" type="curve" smooth="yes"/>
      <point x="136" y="595" type="line"/>
      <point x="106" y="595" type="line"/>
      <point x="85" y="567"/>
      <point x="64" y="538"/>
      <point x="43" y="503" type="curve"/>
      <point x="58" y="406"/>
      <point x="64" y="275"/>
      <point x="65" y="159" type="curve" smooth="yes"/>
      <point x="65" y="115"/>
      <point x="76" y="74"/>
      <point x="99" y="43" type="curve" smooth="yes"/>
      <point x="121" y="15"/>
      <point x="155" y="0"/>
      <point x="197" y="0" type="curve" smooth="yes"/>
      <point x="283" y="0" type="line"/>
      <point x="283" y="125" type="line"/>
    </contour>
    <contour>
      <point x="112" y="611" type="move" name="top"/>
    </contour>
    <contour>
      <point x="93" y="-29" type="move" name="bottom"/>
    </contour>
  </outline>
</glyph>
<glyph name="hah-ar.fina" format="1">
  <advance width="683"/>
  <unicode hex="FEA2"/>
  <outline>
    <contour>
      <point x="590" y="125" type="line" smooth="yes"/>
      <point x="549" y="125"/>
      <point x="524" y="135"/>
      <point x="508" y="150" type="curve" smooth="yes"/>
      <point x="491" y="165"/>
      <point x="488" y="182"/>
      <point x="487" y="197" type="curve"/>
      <point x="494" y="197"/>
      <point x="510" y="197"/>
      <point x="518" y="195" type="curve"/>
      <point x="534" y="230"/>
      <point x="545" y="272"/>
      <point x="552" y="299" type="curve"/>
      <point x="539" y="298"/>
      <point x="522" y="297"/>
      <point x="505" y="297" type="curve" smooth="yes"/>
      <point x="395" y="297"/>
      <point x="330" y="316"/>
      <point x="284" y="331" type="curve" smooth="yes"/>
      <point x="248" y="342"/>
      <point x="225" y="346"/>
      <point x="207" y="346" type="curve" smooth="yes"/>
      <point x="168" y="346"/>
      <point x="143" y="331"/>
      <point x="117" y="288" type="curve" smooth="yes"/>
      <point x="103" y="267"/>
      <point x="91" y="243"/>
      <point x="83" y="226" type="curve"/>
      <point x="112" y="203" type="line"/>
      <point x="130" y="232"/>
      <point x="149" y="249"/>
      <point x="197" y="249" type="curve" smooth="yes"/>
      <point x="229" y="249"/>
      <point x="258" y="240"/>
      <point x="280" y="233" type="curve"/>
      <point x="247" y="220"/>
      <point x="215" y="202"/>
      <point x="187" y="179" type="curve" smooth="yes"/>
      <point x="150" y="149"/>
      <point x="119" y="110"/>
      <point x="97" y="64" type="curve" smooth="yes"/>
      <point x="78" y="25"/>
      <point x="66" y="-20"/>
      <point x="64" y="-66" type="curve" smooth="yes"/>
      <point x="61" y="-142"/>
      <point x="80" y="-211"/>
      <point x="122" y="-259" type="curve" smooth="yes"/>
      <point x="165" y="-306"/>
      <point x="226" y="-332"/>
      <point x="296" y="-332" type="curve" smooth="yes"/>
      <point x="345" y="-332"/>
      <point x="371" y="-319"/>
      <point x="397" y="-305" type="curve" smooth="yes"/>
      <point x="422" y="-292"/>
      <point x="452" y="-277"/>
      <point x="495" y="-278" type="curve"/>
      <point x="508" y="-238" type="line"/>
      <point x="468" y="-231"/>
      <point x="439" y="-229"/>
      <point x="410" y="-228" type="curve" smooth="yes"/>
      <point x="388" y="-227"/>
      <point x="343" y="-223"/>
      <point x="312" y="-218" type="curve" smooth="yes"/>
      <point x="254" y="-207"/>
      <point x="210" y="-184"/>
      <point x="182" y="-153" type="curve" smooth="yes"/>
      <point x="148" y="-115"/>
      <point x="139" y="-63"/>
      <point x="142" y="-21" type="curve" smooth="yes"/>
      <point x="147" y="36"/>
      <point x="176" y="84"/>
      <point x="218" y="120" type="curve" smooth="yes"/>
      <point x="272" y="168"/>
      <point x="349" y="196"/>
      <point x="432" y="196" type="curve"/>
      <point x="426" y="140"/>
      <point x="430" y="98"/>
      <point x="449" y="65" type="curve" smooth="yes"/>
      <point x="474" y="24"/>
      <point x="517" y="0"/>
      <point x="584" y="0" type="curve" smooth="yes"/>
      <point x="683" y="0" type="line"/>
      <point x="683" y="125" type="line"/>
    </contour>
    <contour>
      <point x="309" y="-18" type="move" name="center"/>
    </contour>
    <contour>
      <point x="296" y="-362" type="move" name="bottom"/>
    </contour>
    <contour>
      <point x="270" y="376" type="move" name="top"/>
    </contour>
  </outline>
</glyph>
<glyph name="hah-ar.init" format="1">
  <advance width="578"/>
  <unicode hex="FEA3"/>
  <outline>
    <contour>
      <point x="517" y="258"/>
      <point x="509" y="257"/>
      <point x="501" y="257" type="curve" smooth="yes"/>
      <point x="364" y="257"/>
      <point x="334" y="268"/>
      <point x="238" y="305" type="curve" smooth="yes"/>
      <point x="206" y="318"/>
      <point x="178" y="328"/>
      <point x="150" y="328" type="curve" smooth="yes"/>
      <point x="119" y="328"/>
      <point x="91" y="315"/>
      <point x="69" y="291" type="curve" smooth="yes"/>
      <point x="47" y="269"/>
      <point x="35" y="243"/>
      <point x="26" y="203" type="curve"/>
      <point x="51" y="181" type="line"/>
      <point x="68" y="214"/>
      <point x="85" y="227"/>
      <point x="121" y="228" type="curve" smooth="yes"/>
      <point x="154" y="230"/>
      <point x="217" y="213"/>
      <point x="295" y="180" type="curve"/>
      <point x="279" y="172"/>
      <point x="241" y="155"/>
      <point x="198" y="144" type="curve" smooth="yes"/>
      <point x="163" y="135"/>
      <point x="103" y="125"/>
      <point x="41" y="125" type="curve" smooth="yes"/>
      <point x="-13" y="125" type="line" smooth="yes"/>
      <point x="-49" y="125"/>
      <point x="-76" y="99"/>
      <point x="-76" y="62" type="curve" smooth="yes"/>
      <point x="-76" y="25"/>
      <point x="-48" y="0"/>
      <point x="-13" y="0" type="curve" smooth="yes"/>
      <point x="39" y="0" type="line" smooth="yes"/>
      <point x="150" y="0"/>
      <point x="214" y="40"/>
      <point x="266" y="73" type="curve" smooth="yes"/>
      <point x="335" y="117"/>
      <point x="372" y="139"/>
      <point x="469" y="139" type="curve"/>
      <point x="493" y="179"/>
      <point x="509" y="215"/>
      <point x="525" y="258" type="curve"/>
    </contour>
    <contour>
      <point x="190" y="358" type="move" name="top"/>
    </contour>
    <contour>
      <point x="180" y="-27" type="move" name="bottom"/>
    </contour>
  </outline>
</glyph>
<glyph name="reh-ar.fina" format="1">
  <advance width="409"/>
  <unicode hex="FEAE"/>
  <outline>
    <contour>
      <point x="178" y="167"/>
      <point x="157" y="136"/>
      <point x="136" y="98" type="curve"/>
      <point x="149" y="86"/>
      <point x="213" y="36"/>
      <point x="213" y="-31" type="curve" smooth="yes"/>
      <point x="213" y="-81"/>
      <point x="176" y="-113"/>
      <point x="113" y="-152" type="curve" smooth="yes"/>
      <point x="54" y="-193"/>
      <point x="-34" y="-238"/>
      <point x="-60" y="-252" type="curve"/>
      <point x="-37" y="-285" type="line"/>
      <point x="-18" y="-279"/>
      <point x="14" y="-275"/>
      <point x="34" y="-275" type="curve" smooth="yes"/>
      <point x="54" y="-275"/>
      <point x="73" y="-279"/>
      <point x="94" y="-279" type="curve" smooth="yes"/>
      <point x="130" y="-279"/>
      <point x="158" y="-268"/>
      <point x="182" y="-250" type="curve" smooth="yes"/>
      <point x="207" y="-232"/>
      <point x="225" y="-204"/>
      <point x="238" y="-179" type="curve" smooth="yes"/>
      <point x="278" y="-103"/>
      <point x="279" y="-36"/>
      <point x="279" y="10" type="curve"/>
      <point x="287" y="8"/>
      <point x="305" y="0"/>
      <point x="330" y="0" type="curve" smooth="yes"/>
      <point x="409" y="0" type="line"/>
      <point x="409" y="125" type="line"/>
      <point x="317" y="125" type="line" smooth="yes"/>
      <point x="293" y="125"/>
      <point x="268" y="134"/>
      <point x="246" y="149" type="curve"/>
      <point x="222" y="166"/>
      <point x="209" y="188"/>
      <point x="204" y="194" type="curve"/>
    </contour>
    <contour>
      <point x="83" y="-28" type="move" name="center"/>
    </contour>
    <contour>
      <point x="59" y="-308" type="move" name="bottom"/>
    </contour>
    <contour>
      <point x="167" y="227" type="move" name="top"/>
    </contour>
  </outline>
</glyph>
<glyph name="seen-ar.init" format="1">
  <advance width="544"/>
  <unicode hex="FEB3"/>
  <outline>
    <contour>
      <point x="419" y="273"/>
      <point x="403" y="252"/>
      <point x="386" y="225" type="curve"/>
      <point x="434" y="159" type="line"/>
      <point x="424" y="135"/>
      <point x="407" y="121"/>
      <point x="375" y="121" type="curve" smooth="yes"/>
      <point x="352" y="121"/>
      <point x="335" y="127"/>
      <point x="325" y="139" type="curve" smooth="yes"/>
      <point x="312" y="153"/>
      <point x="309" y="172"/>
      <point x="311" y="194" type="curve" smooth="yes"/>
      <point x="311" y="204"/>
      <point x="312" y="214"/>
      <point x="313" y="223" type="curve"/>
      <point x="272" y="207" type="line"/>
      <point x="271" y="198"/>
      <point x="270" y="190"/>
      <point x="268" y="181" type="curve" smooth="yes"/>
      <point x="261" y="148"/>
      <point x="245" y="121"/>
      <point x="204" y="121" type="curve" smooth="yes"/>
      <point x="156" y="121"/>
      <point x="146" y="154"/>
      <point x="143" y="181" type="curve" smooth="yes"/>
      <point x="143" y="191"/>
      <point x="144" y="204"/>
      <point x="146" y="223" type="curve"/>
      <point x="105" y="207" type="line"/>
      <point x="101" y="188"/>
      <point x="99" y="173"/>
      <point x="88" y="157" type="curve" smooth="yes"/>
      <point x="77" y="138"/>
      <point x="59" y="125"/>
      <point x="32" y="125" type="curve" smooth="yes"/>
      <point x="-13" y="125" type="line" smooth="yes"/>
      <point x="-47" y="125"/>
      <point x="-76" y="96"/>
      <point x="-76" y="62" type="curve" smooth="yes"/>
      <point x="-76" y="32"/>
      <point x="-51" y="0"/>
      <point x="-13" y="0" type="curve" smooth="yes"/>
      <point x="25" y="0" type="line" smooth="yes"/>
      <point x="55" y="0"/>
      <point x="75" y="9"/>
      <point x="88" y="20" type="curve" smooth="yes"/>
      <point x="106" y="34"/>
      <point x="112" y="53"/>
      <point x="115" y="57" type="curve"/>
      <point x="120" y="38"/>
      <point x="140" y="3"/>
      <point x="194" y="3" type="curve" smooth="yes"/>
      <point x="253" y="3"/>
      <point x="279" y="41"/>
      <point x="286" y="60" type="curve"/>
      <point x="293" y="40"/>
      <point x="318" y="9"/>
      <point x="373" y="9" type="curve" smooth="yes"/>
      <point x="413" y="9"/>
      <point x="443" y="30"/>
      <point x="464" y="67" type="curve" smooth="yes"/>
      <point x="486" y="103"/>
      <point x="491" y="144"/>
      <point x="491" y="153" type="curve" smooth="yes"/>
      <point x="491" y="249"/>
      <point x="444" y="291"/>
      <point x="440" y="295" type="curve"/>
    </contour>
    <contour>
      <point x="281" y="256" type="move" name="top"/>
    </contour>
    <contour>
      <point x="286" y="-27" type="move" name="bottom"/>
    </contour>
  </outline>
</glyph>
<glyph name="sad-ar.medi" format="1">
  <advance width="701"/>
  <unicode hex="FEBC"/>
  <outline>
    <contour>
      <point x="586" y="125" type="line" smooth="yes"/>
      <point x="560" y="125"/>
      <point x="527" y="118"/>
      <point x="508" y="111" type="curve"/>
      <point x="516" y="120"/>
      <point x="524" y="129"/>
      <point x="531" y="138" type="curve" smooth="yes"/>
      <point x="550" y="163"/>
      <point x="569" y="208"/>
      <point x="569" y="239" type="curve" smooth="yes"/>
      <point x="569" y="262"/>
      <point x="557" y="296"/>
      <point x="528" y="319" type="curve" smooth="yes"/>
      <point x="505" y="337"/>
      <point x="474" y="347"/>
      <point x="447" y="347" type="curve" smooth="yes"/>
      <point x="418" y="347"/>
      <point x="389" y="337"/>
      <point x="356" y="316" type="curve" smooth="yes"/>
      <point x="323" y="294"/>
      <point x="291" y="263"/>
      <point x="270" y="241" type="curve" smooth="yes"/>
      <point x="221" y="188"/>
      <point x="189" y="137"/>
      <point x="181" y="125" type="curve"/>
      <point x="166" y="127"/>
      <point x="155" y="133"/>
      <point x="148" y="141" type="curve" smooth="yes"/>
      <point x="131" y="160"/>
      <point x="135" y="196"/>
      <point x="140" y="229" type="curve"/>
      <point x="99" y="212" type="line"/>
      <point x="92" y="179"/>
      <point x="88" y="166"/>
      <point x="78" y="153" type="curve" smooth="yes"/>
      <point x="66" y="135"/>
      <point x="50" y="125"/>
      <point x="25" y="125" type="curve" smooth="yes"/>
      <point x="-14" y="125" type="line" smooth="yes"/>
      <point x="-47" y="125"/>
      <point x="-76" y="106"/>
      <point x="-76" y="62" type="curve" smooth="yes"/>
      <point x="-76" y="16"/>
      <point x="-45" y="0"/>
      <point x="-14" y="0" type="curve" smooth="yes"/>
      <point x="24" y="0" type="line" smooth="yes"/>
      <point x="71" y="0"/>
      <point x="102" y="18"/>
      <point x="117" y="53" type="curve"/>
      <point x="122" y="41"/>
      <point x="130" y="33"/>
      <point x="148" y="26" type="curve"/>
      <point x="137" y="-17" type="line"/>
      <point x="186" y="-17" type="line"/>
      <point x="194" y="8" type="line"/>
      <point x="217" y="4"/>
      <point x="239" y="4"/>
      <point x="269" y="4" type="curve" smooth="yes"/>
      <point x="285" y="4"/>
      <point x="449" y="3"/>
      <point x="463" y="3" type="curve" smooth="yes"/>
      <point x="551" y="0"/>
      <point x="553" y="0"/>
      <point x="576" y="0" type="curve" smooth="yes"/>
      <point x="702" y="0" type="line"/>
      <point x="702" y="125" type="line"/>
    </contour>
    <contour>
      <point x="478" y="166"/>
      <point x="459" y="153"/>
      <point x="429" y="142" type="curve" smooth="yes"/>
      <point x="403" y="132"/>
      <point x="373" y="125"/>
      <point x="340" y="125" type="curve" smooth="yes"/>
      <point x="242" y="125" type="line"/>
      <point x="243" y="127"/>
      <point x="266" y="160"/>
      <point x="295" y="190" type="curve" smooth="yes"/>
      <point x="323" y="218"/>
      <point x="359" y="248"/>
      <point x="405" y="248" type="curve" smooth="yes"/>
      <point x="456" y="248"/>
      <point x="482" y="210"/>
      <point x="485" y="186" type="curve"/>
    </contour>
    <contour>
      <point x="426" y="377" type="move" name="top"/>
    </contour>
    <contour>
      <point x="328" y="-28" type="move" name="bottom"/>
    </contour>
  </outline>
</glyph>
<glyph name="ain-ar.medi" format="1">
  <advance width="427"/>
  <unicode hex="FECC"/>
  <outline>
    <contour>
      <point x="309" y="125" type="line"/>
      <point x="291" y="125"/>
      <point x="270" y="125"/>
      <point x="252" y="125" type="curve"/>
      <point x="264" y="135"/>
      <point x="314" y="178"/>
      <point x="314" y="215" type="curve" smooth="yes"/>
      <point x="314" y="257"/>
      <point x="271" y="290"/>
      <point x="187" y="290" type="curve" smooth="yes"/>
      <point x="146" y="290"/>
      <point x="106" y="275"/>
      <point x="80" y="260" type="curve"/>
      <point x="71" y="234"/>
      <point x="64" y="206"/>
      <point x="61" y="174" type="curve"/>
      <point x="84" y="172"/>
      <point x="109" y="164"/>
      <point x="124" y="138" type="curve"/>
      <point x="111" y="131"/>
      <point x="95" y="125"/>
      <point x="74" y="125" type="curve" smooth="yes"/>
      <point x="-14" y="125" type="line" smooth="yes"/>
      <point x="-37" y="125"/>
      <point x="-76" y="105"/>
      <point x="-76" y="62" type="curve" smooth="yes"/>
      <point x="-76" y="41"/>
      <point x="-58" y="0"/>
      <point x="-14" y="0" type="curve" smooth="yes"/>
      <point x="36" y="0" type="line" smooth="yes"/>
      <point x="70" y="0"/>
      <point x="98" y="7"/>
      <point x="123" y="19" type="curve" smooth="yes"/>
      <point x="143" y="29"/>
      <point x="164" y="45"/>
      <point x="186" y="65" type="curve"/>
      <point x="194" y="52"/>
      <point x="204" y="40"/>
      <point x="221" y="29" type="curve" smooth="yes"/>
      <point x="246" y="10"/>
      <point x="276" y="0"/>
      <point x="309" y="0" type="curve" smooth="yes"/>
      <point x="427" y="0" type="line"/>
      <point x="427" y="125" type="line"/>
    </contour>
    <contour>
      <point x="186" y="320" type="move" name="top"/>
    </contour>
    <contour>
      <point x="175" y="-28" type="move" name="bottom"/>
    </contour>
  </outline>
</glyph>
<glyph name="kaf-ar.fina" format="1">
  <advance width="847"/>
  <unicode hex="FEDA"/>
  <outline>
    <contour>
      <point x="780" y="125" type="line" smooth="yes"/>
      <point x="757" y="125"/>
      <point x="740" y="132"/>
      <point x="728" y="147" type="curve" smooth="yes"/>
      <point x="718" y="160"/>
      <point x="714" y="177"/>
      <point x="712" y="193" type="curve" smooth="yes"/>
      <point x="697" y="312"/>
      <point x="679" y="512"/>
      <point x="671" y="595" type="curve"/>
      <point x="635" y="556"/>
      <point x="611" y="526"/>
      <point x="587" y="485" type="curve"/>
      <point x="608" y="368"/>
      <point x="622" y="293"/>
      <point x="631" y="203" type="curve" smooth="yes"/>
      <point x="632" y="191" type="line"/>
      <point x="634" y="171"/>
      <point x="629" y="155"/>
      <point x="617" y="143" type="curve" smooth="yes"/>
      <point x="605" y="131"/>
      <point x="588" y="123"/>
      <point x="569" y="122" type="curve"/>
      <point x="409" y="120" type="line" smooth="yes"/>
      <point x="316" y="119"/>
      <point x="258" y="123"/>
      <point x="233" y="126" type="curve" smooth="yes"/>
      <point x="195" y="132"/>
      <point x="149" y="148"/>
      <point x="125" y="176" type="curve" smooth="yes"/>
      <point x="114" y="190"/>
      <point x="102" y="212"/>
      <point x="99" y="245" type="curve"/>
      <point x="63" y="255" type="line"/>
      <point x="54" y="193"/>
      <point x="54" y="148"/>
      <point x="71" y="108" type="curve" smooth="yes"/>
      <point x="81" y="84"/>
      <point x="98" y="60"/>
      <point x="121" y="42" type="curve" smooth="yes"/>
      <point x="145" y="24"/>
      <point x="183" y="6"/>
      <point x="231" y="-2" type="curve" smooth="yes"/>
      <point x="268" y="-8"/>
      <point x="323" y="-9"/>
      <point x="394" y="-8" type="curve" smooth="yes"/>
      <point x="440" y="-7"/>
      <point x="462" y="-8"/>
      <point x="572" y="-6" type="curve" smooth="yes"/>
      <point x="664" y="-5"/>
      <point x="684" y="30"/>
      <point x="694" y="63" type="curve"/>
      <point x="710" y="24"/>
      <point x="748" y="0"/>
      <point x="797" y="0" type="curve" smooth="yes"/>
      <point x="847" y="0" type="line"/>
      <point x="847" y="125" type="line"/>
    </contour>
    <contour>
      <point x="475" y="283"/>
      <point x="449" y="287"/>
      <point x="418" y="287" type="curve" smooth="yes"/>
      <point x="398" y="287"/>
      <point x="381" y="290"/>
      <point x="381" y="301" type="curve"/>
      <point x="394" y="312"/>
      <point x="414" y="322"/>
      <point x="439" y="329" type="curve"/>
      <point x="451" y="344"/>
      <point x="458" y="356"/>
      <point x="469" y="380" type="curve"/>
      <point x="444" y="375"/>
      <point x="416" y="367"/>
      <point x="386" y="352" type="curve"/>
      <point x="352" y="333"/>
      <point x="334" y="310"/>
      <point x="334" y="282" type="curve" smooth="yes"/>
      <point x="334" y="257"/>
      <point x="355" y="247"/>
      <point x="387" y="247" type="curve" smooth="yes"/>
      <point x="408" y="246"/>
      <point x="417" y="245"/>
      <point x="417" y="238" type="curve"/>
      <point x="417" y="224"/>
      <point x="334" y="199"/>
      <point x="281" y="185" type="curve"/>
      <point x="322" y="176"/>
      <point x="363" y="175"/>
      <point x="408" y="182" type="curve" smooth="yes"/>
      <point x="456" y="211"/>
      <point x="475" y="233"/>
      <point x="475" y="259" type="curve" smooth="yes"/>
    </contour>
    <contour>
      <point x="396" y="402" type="move" name="top"/>
    </contour>
    <contour>
      <point x="403" y="-48" type="move" name="bottom"/>
    </contour>
  </outline>
</glyph>
<glyph name="kaf-ar.medi" format="1">
  <advance width="392"/>
  <unicode hex="FEDC"/>
  <outline>
    <contour>
      <point x="289" y="516"/>
      <point x="295" y="551"/>
      <point x="300" y="595" type="curve"/>
      <point x="195" y="545"/>
      <point x="69" y="480"/>
      <point x="-1" y="421" type="curve"/>
      <point x="-7" y="394"/>
      <point x="-10" y="371"/>
      <point x="-13" y="339" type="curve"/>
      <point x="11" y="314"/>
      <point x="47" y="276"/>
      <point x="67" y="251" type="curve" smooth="yes"/>
      <point x="92" y="223"/>
      <point x="121" y="190"/>
      <point x="143" y="155" type="curve"/>
      <point x="138" y="149"/>
      <point x="120" y="125"/>
      <point x="83" y="125" type="curve" smooth="yes"/>
      <point x="-13" y="125" type="line" smooth="yes"/>
      <point x="-48" y="125"/>
      <point x="-76" y="97"/>
      <point x="-76" y="62" type="curve" smooth="yes"/>
      <point x="-76" y="27"/>
      <point x="-49" y="0"/>
      <point x="-13" y="0" type="curve" smooth="yes"/>
      <point x="91" y="0" type="line" smooth="yes"/>
      <point x="164" y="0"/>
      <point x="195" y="57"/>
      <point x="200" y="88" type="curve"/>
      <point x="213" y="57"/>
      <point x="255" y="0"/>
      <point x="344" y="0" type="curve" smooth="yes"/>
      <point x="392" y="0" type="line"/>
      <point x="392" y="125" type="line"/>
      <point x="343" y="125" type="line" smooth="yes"/>
      <point x="285" y="125"/>
      <point x="259" y="159"/>
      <point x="232" y="193" type="curve" smooth="yes"/>
      <point x="215" y="214"/>
      <point x="183" y="253"/>
      <point x="149" y="291" type="curve" smooth="yes"/>
      <point x="127" y="316"/>
      <point x="96" y="348"/>
      <point x="74" y="371" type="curve"/>
      <point x="137" y="409"/>
      <point x="215" y="448"/>
      <point x="278" y="473" type="curve"/>
    </contour>
    <contour>
      <point x="114" y="561" type="move" name="top"/>
    </contour>
    <contour>
      <point x="89" y="-36" type="move" name="bottom"/>
    </contour>
  </outline>
</glyph>
<glyph name="meem-ar.fina" format="1">
  <advance width="522"/>
  <unicode hex="FEE2"/>
  <outline>
    <contour>
      <point x="467" y="125" type="line" smooth="yes"/>
      <point x="419" y="125"/>
      <point x="372" y="156"/>
      <point x="330" y="191" type="curve"/>
      <point x="305" y="210"/>
      <point x="279" y="236"/>
      <point x="265" y="254" type="curve"/>
      <point x="234" y="211" type="line"/>
      <point x="211" y="211"/>
      <point x="176" y="207"/>
      <point x="141" y="189" type="curve" smooth="yes"/>
      <point x="114" y="174"/>
      <point x="92" y="152"/>
      <point x="79" y="125" type="curve" smooth="yes"/>
      <point x="63" y="91"/>
      <point x="60" y="50"/>
      <point x="68" y="3" type="curve" smooth="yes"/>
      <point x="93" y="-152"/>
      <point x="110" y="-247"/>
      <point x="116" y="-343" type="curve"/>
      <point x="163" y="-327" type="line"/>
      <point x="166" y="-229"/>
      <point x="158" y="-131"/>
      <point x="151" y="-87" type="curve" smooth="yes"/>
      <point x="150" y="-75"/>
      <point x="136" y="26"/>
      <point x="136" y="37" type="curve"/>
      <point x="136" y="50"/>
      <point x="145" y="65"/>
      <point x="160" y="78" type="curve" smooth="yes"/>
      <point x="180" y="93"/>
      <point x="201" y="99"/>
      <point x="227" y="99" type="curve"/>
      <point x="229" y="83"/>
      <point x="232" y="47"/>
      <point x="256" y="17" type="curve" smooth="yes"/>
      <point x="281" y="-15"/>
      <point x="318" y="-39"/>
      <point x="373" y="-37" type="curve"/>
      <point x="391" y="-24"/>
      <point x="407" y="2"/>
      <point x="419" y="23" type="curve"/>
      <point x="430" y="10"/>
      <point x="446" y="0"/>
      <point x="474" y="0" type="curve" smooth="yes"/>
      <point x="522" y="0" type="line"/>
      <point x="522" y="125" type="line"/>
    </contour>
    <contour>
      <point x="252" y="284" type="move" name="top"/>
    </contour>
    <contour>
      <point x="142" y="-367" type="move" name="bottom"/>
    </contour>
  </outline>
</glyph>
<glyph name="meem-ar.medi" format="1">
  <advance width="512"/>
  <unicode hex="FEE4"/>
  <outline>
    <contour>
      <point x="451" y="125" type="line" smooth="yes"/>
      <point x="433" y="125"/>
      <point x="420" y="132"/>
      <point x="408" y="146" type="curve" smooth="yes"/>
      <point x="391" y="171"/>
      <point x="381" y="225"/>
      <point x="356" y="259" type="curve" smooth="yes"/>
      <point x="339" y="280"/>
      <point x="317" y="294"/>
      <point x="287" y="294" type="curve" smooth="yes"/>
      <point x="261" y="294"/>
      <point x="237" y="282"/>
      <point x="214" y="262" type="curve" smooth="yes"/>
      <point x="201" y="251"/>
      <point x="186" y="235"/>
      <point x="172" y="217" type="curve"/>
      <point x="161" y="227" type="line"/>
      <point x="134" y="197"/>
      <point x="123" y="184"/>
      <point x="104" y="162" type="curve" smooth="yes"/>
      <point x="92" y="150"/>
      <point x="71" y="125"/>
      <point x="30" y="125" type="curve" smooth="yes"/>
      <point x="-14" y="125" type="line" smooth="yes"/>
      <point x="-58" y="125"/>
      <point x="-76" y="86"/>
      <point x="-76" y="62" type="curve" smooth="yes"/>
      <point x="-76" y="26"/>
      <point x="-49" y="0"/>
      <point x="-14" y="0" type="curve" smooth="yes"/>
      <point x="26" y="0" type="line" smooth="yes"/>
      <point x="60" y="0"/>
      <point x="87" y="10"/>
      <point x="106" y="30" type="curve" smooth="yes"/>
      <point x="124" y="47"/>
      <point x="134" y="71"/>
      <point x="140" y="100" type="curve"/>
      <point x="191" y="53"/>
      <point x="244" y="19"/>
      <point x="312" y="-10" type="curve" smooth="yes"/>
      <point x="333" y="9"/>
      <point x="354" y="35"/>
      <point x="367" y="62" type="curve"/>
      <point x="383" y="22"/>
      <point x="412" y="0"/>
      <point x="469" y="0" type="curve" smooth="yes"/>
      <point x="512" y="0" type="line"/>
      <point x="512" y="125" type="line"/>
    </contour>
    <contour>
      <point x="292" y="219"/>
      <point x="311" y="208"/>
      <point x="322" y="190" type="curve" smooth="yes"/>
      <point x="330" y="179"/>
      <point x="335" y="164"/>
      <point x="335" y="149" type="curve" smooth="yes"/>
      <point x="335" y="128"/>
      <point x="325" y="109"/>
      <point x="321" y="102" type="curve"/>
      <point x="299" y="117"/>
      <point x="238" y="158"/>
      <point x="206" y="185" type="curve"/>
      <point x="210" y="189"/>
      <point x="220" y="199"/>
      <point x="232" y="207" type="curve" smooth="yes"/>
      <point x="244" y="214"/>
      <point x="258" y="219"/>
      <point x="272" y="219" type="curve" smooth="yes"/>
    </contour>
    <contour>
      <point x="263" y="324" type="move" name="top"/>
    </contour>
    <contour>
      <point x="151" y="-28" type="move" name="bottom"/>
    </contour>
  </outline>
</glyph>
<glyph name="heh-ar.fina" format="1">
  <advance width="444"/>
  <unicode hex="FEEA"/>
  <outline>
    <contour>
      <point x="402" y="125" type="line" smooth="yes"/>
      <point x="369" y="125"/>
      <point x="352" y="140"/>
      <point x="340" y="165" type="curve" smooth="yes"/>
      <point x="331" y="183"/>
      <point x="324" y="206"/>
      <point x="315" y="233" type="curve" smooth="yes"/>
      <point x="304" y="269"/>
      <point x="288" y="321"/>
      <point x="273" y="373" type="curve"/>
      <point x="241" y="351"/>
      <point x="225" y="337"/>
      <point x="202" y="310" type="curve"/>
      <point x="212" y="282" type="line"/>
      <point x="186" y="278"/>
      <point x="152" y="268"/>
      <point x="124" y="250" type="curve" smooth="yes"/>
      <point x="101" y="237"/>
      <point x="79" y="216"/>
      <point x="75" y="191" type="curve" smooth="yes"/>
      <point x="65" y="131" type="line" smooth="yes"/>
      <point x="60" y="102"/>
      <point x="77" y="85"/>
      <point x="103" y="75" type="curve" smooth="yes"/>
      <point x="132" y="64"/>
      <point x="173" y="62"/>
      <point x="211" y="68" type="curve"/>
      <point x="229" y="90"/>
      <point x="250" y="119"/>
      <point x="259" y="141" type="curve"/>
      <point x="271" y="102"/>
      <point x="283" y="67"/>
      <point x="303" y="42" type="curve" smooth="yes"/>
      <point x="324" y="16"/>
      <point x="354" y="0"/>
      <point x="398" y="0" type="curve" smooth="yes"/>
      <point x="445" y="0" type="line"/>
      <point x="445" y="125" type="line"/>
    </contour>
    <contour>
      <point x="116" y="162" type="line"/>
      <point x="116" y="169" type="line" smooth="yes"/>
      <point x="117" y="189"/>
      <point x="137" y="211"/>
      <point x="163" y="217" type="curve" smooth="yes"/>
      <point x="178" y="220"/>
      <point x="207" y="219"/>
      <point x="214" y="219" type="curve"/>
      <point x="226" y="244" type="line"/>
      <point x="238" y="207" type="line"/>
      <point x="227" y="182"/>
      <point x="214" y="162"/>
      <point x="189" y="162" type="curve" smooth="yes"/>
    </contour>
    <contour>
      <point x="140" y="358" type="move" name="top"/>
    </contour>
    <contour>
      <point x="179" y="19" type="move" name="bottom"/>
    </contour>
  </outline>
</glyph>
<glyph name="lam_alef-ar.fina" format="1">
  <advance width="588"/>
  <unicode hex="FEFC"/>
  <outline>
    <contour>
      <point x="538" y="125" type="line" smooth="yes"/>
      <point x="509" y="125"/>
      <point x="492" y="137"/>
      <point x="481" y="159" type="curve" smooth="yes"/>
      <point x="472" y="175"/>
      <point x="467" y="202"/>
      <point x="462" y="247" type="curve" smooth="yes"/>
      <point x="457" y="285"/>
      <point x="450" y="363"/>
      <point x="445" y="409" type="curve" smooth="yes"/>
      <point x="441" y="455"/>
      <point x="441" y="455"/>
      <point x="426" y="594" type="curve"/>
      <point x="390" y="568"/>
      <point x="372" y="548"/>
      <point x="345" y="512" type="curve"/>
      <point x="355" y="439"/>
      <point x="358" y="420"/>
      <point x="360" y="401" type="curve" smooth="yes"/>
      <point x="365" y="368"/>
      <point x="368" y="328"/>
      <point x="367" y="296" type="curve" smooth="yes"/>
      <point x="366" y="252"/>
      <point x="359" y="229"/>
      <point x="351" y="211" type="curve"/>
      <point x="342" y="246"/>
      <point x="324" y="283"/>
      <point x="306" y="314" type="curve" smooth="yes"/>
      <point x="284" y="352"/>
      <point x="252" y="392"/>
      <point x="213" y="430" type="curve" smooth="yes"/>
      <point x="154" y="491"/>
      <point x="83" y="544"/>
      <point x="56" y="544" type="curve" smooth="yes"/>
      <point x="41" y="544"/>
      <point x="30" y="534"/>
      <point x="29" y="517" type="curve" smooth="yes"/>
      <point x="26" y="495"/>
      <point x="25" y="490"/>
      <point x="20" y="442" type="curve" smooth="yes"/>
      <point x="28" y="436"/>
      <point x="70" y="404"/>
      <point x="108" y="380" type="curve"/>
      <point x="121" y="402" type="line"/>
      <point x="139" y="387"/>
      <point x="171" y="360"/>
      <point x="208" y="316" type="curve" smooth="yes"/>
      <point x="267" y="245"/>
      <point x="296" y="183"/>
      <point x="300" y="136" type="curve"/>
      <point x="264" y="92"/>
      <point x="194" y="36"/>
      <point x="70" y="-25" type="curve"/>
      <point x="76" y="-62" type="line"/>
      <point x="119" y="-50"/>
      <point x="138" y="-46"/>
      <point x="165" y="-42" type="curve" smooth="yes"/>
      <point x="205" y="-36"/>
      <point x="238" y="-31"/>
      <point x="274" y="-11" type="curve" smooth="yes"/>
      <point x="351" y="31"/>
      <point x="380" y="91"/>
      <point x="393" y="119" type="curve"/>
      <point x="398" y="82"/>
      <point x="409" y="58"/>
      <point x="424" y="41" type="curve" smooth="yes"/>
      <point x="448" y="14"/>
      <point x="484" y="0"/>
      <point x="541" y="0" type="curve" smooth="yes"/>
      <point x="588" y="0" type="line"/>
      <point x="588" y="125" type="line"/>
    </contour>
    <contour>
      <point x="178" y="-62" type="move" name="caret_1"/>
    </contour>
    <contour>
      <point x="425" y="-38" type="move" name="bottom_1"/>
    </contour>
    <contour>
      <point x="343" y="586" type="move" name="top_1"/>
    </contour>
    <contour>
      <point x="42" y="554" type="move" name="top_2"/>
    </contour>
    <contour>
      <point x="171" y="-68" type="move" name="bottom_2"/>
    </contour>
  </outline>
</glyph>
<glyph name="Longdotlessbeh-ar.init" format="1">
  <advance width="443"/>
  <outline>
    <contour>
      <point x="300" y="307"/>
      <point x="285" y="282"/>
      <point x="265" y="241" type="curve"/>
      <point x="291" y="214"/>
      <point x="309" y="195"/>
      <point x="331" y="170" type="curve"/>
      <point x="321" y="154"/>
      <point x="291" y="125"/>
      <point x="247" y="125" type="curve" smooth="yes"/>
      <point x="-7" y="125" type="line" smooth="yes"/>
      <point x="-39" y="125"/>
      <point x="-70" y="101"/>
      <point x="-70" y="63" type="curve" smooth="yes"/>
      <point x="-70" y="28"/>
      <point x="-42" y="0"/>
      <point x="-7" y="0" type="curve" smooth="yes"/>
      <point x="239" y="0" type="line" smooth="yes"/>
      <point x="290" y="0"/>
      <point x="330" y="21"/>
      <point x="356" y="62" type="curve" smooth="yes"/>
      <point x="378" y="97"/>
      <point x="389" y="133"/>
      <point x="389" y="176" type="curve" smooth="yes"/>
      <point x="389" y="264"/>
      <point x="336" y="321"/>
      <point x="325" y="333" type="curve"/>
    </contour>
    <contour>
      <point x="158" y="318" type="move" name="top"/>
    </contour>
    <contour>
      <point x="164" y="-28" type="move" name="bottom"/>
    </contour>
  </outline>
</glyph>
